%TF.GenerationSoftware,KiCad,Pcbnew,9.0.7*%
%TF.CreationDate,2026-02-17T16:38:20-05:00*%
%TF.ProjectId,Tiny solar supply,54696e79-2073-46f6-9c61-722073757070,rev?*%
%TF.SameCoordinates,Original*%
%TF.FileFunction,Copper,L1,Top*%
%TF.FilePolarity,Positive*%
%FSLAX46Y46*%
G04 Gerber Fmt 4.6, Leading zero omitted, Abs format (unit mm)*
G04 Created by KiCad (PCBNEW 9.0.7) date 2026-02-17 16:38:20*
%MOMM*%
%LPD*%
G01*
G04 APERTURE LIST*
G04 Aperture macros list*
%AMRoundRect*
0 Rectangle with rounded corners*
0 $1 Rounding radius*
0 $2 $3 $4 $5 $6 $7 $8 $9 X,Y pos of 4 corners*
0 Add a 4 corners polygon primitive as box body*
4,1,4,$2,$3,$4,$5,$6,$7,$8,$9,$2,$3,0*
0 Add four circle primitives for the rounded corners*
1,1,$1+$1,$2,$3*
1,1,$1+$1,$4,$5*
1,1,$1+$1,$6,$7*
1,1,$1+$1,$8,$9*
0 Add four rect primitives between the rounded corners*
20,1,$1+$1,$2,$3,$4,$5,0*
20,1,$1+$1,$4,$5,$6,$7,0*
20,1,$1+$1,$6,$7,$8,$9,0*
20,1,$1+$1,$8,$9,$2,$3,0*%
G04 Aperture macros list end*
%TA.AperFunction,Conductor*%
%ADD10C,0.200000*%
%TD*%
%TA.AperFunction,ComponentPad*%
%ADD11C,1.700000*%
%TD*%
%TA.AperFunction,ComponentPad*%
%ADD12R,1.700000X1.700000*%
%TD*%
%TA.AperFunction,SMDPad,CuDef*%
%ADD13RoundRect,0.250000X-0.250000X-0.475000X0.250000X-0.475000X0.250000X0.475000X-0.250000X0.475000X0*%
%TD*%
%TA.AperFunction,SMDPad,CuDef*%
%ADD14RoundRect,0.150000X-0.587500X-0.150000X0.587500X-0.150000X0.587500X0.150000X-0.587500X0.150000X0*%
%TD*%
%TA.AperFunction,SMDPad,CuDef*%
%ADD15R,3.302000X2.667000*%
%TD*%
%TA.AperFunction,SMDPad,CuDef*%
%ADD16R,2.120000X1.500000*%
%TD*%
%TA.AperFunction,SMDPad,CuDef*%
%ADD17RoundRect,0.250000X-0.262500X-0.450000X0.262500X-0.450000X0.262500X0.450000X-0.262500X0.450000X0*%
%TD*%
%TA.AperFunction,SMDPad,CuDef*%
%ADD18RoundRect,0.250000X0.262500X0.450000X-0.262500X0.450000X-0.262500X-0.450000X0.262500X-0.450000X0*%
%TD*%
%TA.AperFunction,SMDPad,CuDef*%
%ADD19R,1.181100X0.558800*%
%TD*%
%TA.AperFunction,ComponentPad*%
%ADD20RoundRect,0.250000X-0.550000X-0.550000X0.550000X-0.550000X0.550000X0.550000X-0.550000X0.550000X0*%
%TD*%
%TA.AperFunction,ComponentPad*%
%ADD21C,1.600000*%
%TD*%
%TA.AperFunction,SMDPad,CuDef*%
%ADD22RoundRect,0.250000X-0.325000X-0.650000X0.325000X-0.650000X0.325000X0.650000X-0.325000X0.650000X0*%
%TD*%
%TA.AperFunction,ViaPad*%
%ADD23C,0.600000*%
%TD*%
G04 APERTURE END LIST*
D10*
%TO.N,Net-(J3-Pin_1)*%
X123890000Y-82379902D02*
X121550000Y-80039902D01*
%TD*%
D11*
%TO.P,J4,2,Pin_2*%
%TO.N,GNDD*%
X99120000Y-74334537D03*
D12*
%TO.P,J4,1,Pin_1*%
%TO.N,/Solar_P*%
X99120000Y-76874537D03*
%TD*%
D13*
%TO.P,C3,1*%
%TO.N,/OUT_P*%
X123890000Y-86159902D03*
%TO.P,C3,2*%
%TO.N,Net-(U1-FB)*%
X125790000Y-86159902D03*
%TD*%
D12*
%TO.P,J1,1,Pin_1*%
%TO.N,/OUT_P*%
X131965000Y-77450000D03*
D11*
%TO.P,J1,2,Pin_2*%
%TO.N,GNDD*%
X131965000Y-79990000D03*
%TD*%
D13*
%TO.P,C1,1*%
%TO.N,Net-(J3-Pin_1)*%
X123890000Y-82379902D03*
%TO.P,C1,2*%
%TO.N,GNDD*%
X125790000Y-82379902D03*
%TD*%
D14*
%TO.P,Q1,1,G*%
%TO.N,/Solar_P*%
X104137500Y-81412402D03*
%TO.P,Q1,2,S*%
%TO.N,GNDD*%
X104137500Y-83312402D03*
%TO.P,Q1,3,D*%
%TO.N,Net-(Q1-D)*%
X106012500Y-82362402D03*
%TD*%
D15*
%TO.P,L1,1,1*%
%TO.N,Net-(U1-SW)*%
X125730000Y-72390000D03*
%TO.P,L1,2,2*%
%TO.N,Net-(J3-Pin_1)*%
X125730000Y-77520800D03*
%TD*%
D16*
%TO.P,D2,A*%
%TO.N,/Solar_P*%
X104455000Y-71567402D03*
%TO.P,D2,C*%
%TO.N,/Bat_P*%
X108685000Y-71567402D03*
%TD*%
%TO.P,D1,A*%
%TO.N,Net-(U1-SW)*%
X114575000Y-71554902D03*
%TO.P,D1,C*%
%TO.N,/OUT_P*%
X118805000Y-71554902D03*
%TD*%
D17*
%TO.P,R4,1*%
%TO.N,/Solar_P*%
X109360000Y-86159902D03*
%TO.P,R4,2*%
%TO.N,GNDD*%
X111185000Y-86159902D03*
%TD*%
D18*
%TO.P,R1,1*%
%TO.N,/OUT_P*%
X120777500Y-82379902D03*
%TO.P,R1,2*%
%TO.N,Net-(U1-FB)*%
X118952500Y-82379902D03*
%TD*%
D19*
%TO.P,U1,1,SW*%
%TO.N,Net-(U1-SW)*%
X117535000Y-77904902D03*
%TO.P,U1,2,GND*%
%TO.N,GNDD*%
X117535000Y-76954901D03*
%TO.P,U1,3,FB*%
%TO.N,Net-(U1-FB)*%
X117535000Y-76004900D03*
%TO.P,U1,4,SHDN*%
%TO.N,Net-(Q1-D)*%
X114804500Y-76004900D03*
%TO.P,U1,5,VIN*%
%TO.N,Net-(J3-Pin_1)*%
X114804500Y-77904902D03*
%TD*%
D18*
%TO.P,R3,1*%
%TO.N,Net-(J3-Pin_1)*%
X111185000Y-82379902D03*
%TO.P,R3,2*%
%TO.N,Net-(Q1-D)*%
X109360000Y-82379902D03*
%TD*%
%TO.P,R2,1*%
%TO.N,Net-(U1-FB)*%
X115802500Y-82379902D03*
%TO.P,R2,2*%
%TO.N,GNDD*%
X113977500Y-82379902D03*
%TD*%
D20*
%TO.P,J3,1,Pin_1*%
%TO.N,Net-(J3-Pin_1)*%
X103565000Y-76647402D03*
D21*
%TO.P,J3,2,Pin_2*%
%TO.N,/Bat_P*%
X111185000Y-76647402D03*
%TD*%
D12*
%TO.P,J2,1,Pin_1*%
%TO.N,/Bat_P*%
X99120000Y-83190000D03*
D11*
%TO.P,J2,2,Pin_2*%
%TO.N,GNDD*%
X99120000Y-80650000D03*
%TD*%
D22*
%TO.P,C2,1*%
%TO.N,/OUT_P*%
X115446250Y-86159902D03*
%TO.P,C2,2*%
%TO.N,GNDD*%
X118396250Y-86159902D03*
%TD*%
D23*
%TO.N,GNDD*%
X129253049Y-82256951D03*
X116618250Y-84381902D03*
X112785200Y-85499502D03*
X102930000Y-83721502D03*
X118830400Y-76457102D03*
%TO.N,Net-(J3-Pin_1)*%
X107680000Y-80810000D03*
X121550000Y-80039902D03*
X115122000Y-79098702D03*
X107680000Y-83840000D03*
%TO.N,Net-(U1-FB)*%
X127923600Y-85702702D03*
X120202000Y-84026302D03*
%TO.N,/Bat_P*%
X103285600Y-79606702D03*
X111312000Y-72850302D03*
%TD*%
D10*
%TO.N,GNDD*%
X111185000Y-86159902D02*
X112124800Y-86159902D01*
X112785200Y-83572202D02*
X113977500Y-82379902D01*
X129130098Y-82379902D02*
X129253049Y-82256951D01*
X113977500Y-83440602D02*
X113977500Y-82379902D01*
X112785200Y-85499502D02*
X112785200Y-83572202D01*
X118332601Y-76954901D02*
X118830400Y-76457102D01*
X118396250Y-86159902D02*
X116618250Y-84381902D01*
X117535000Y-76954901D02*
X118332601Y-76954901D01*
X112124800Y-86159902D02*
X112785200Y-85499502D01*
X103339100Y-83312402D02*
X102930000Y-83721502D01*
X104137500Y-83312402D02*
X103339100Y-83312402D01*
X129253049Y-82256951D02*
X132140000Y-79370000D01*
X125790000Y-82379902D02*
X129130098Y-82379902D01*
X114918800Y-84381902D02*
X113977500Y-83440602D01*
X116618250Y-84381902D02*
X114918800Y-84381902D01*
%TO.N,Net-(J3-Pin_1)*%
X109724902Y-83840000D02*
X107680000Y-83840000D01*
X107680000Y-80810000D02*
X107680000Y-80762402D01*
X114804500Y-78781202D02*
X114804500Y-77904902D01*
X107680000Y-80762402D02*
X103565000Y-76647402D01*
X125155000Y-76685702D02*
X125155000Y-77600102D01*
X125155000Y-81114902D02*
X123890000Y-82379902D01*
X125155000Y-76685702D02*
X125155000Y-81114902D01*
X115122000Y-79098702D02*
X114804500Y-78781202D01*
X114804500Y-77904902D02*
X111185000Y-81524402D01*
X111185000Y-82379902D02*
X109724902Y-83840000D01*
X111185000Y-81524402D02*
X111185000Y-82379902D01*
%TO.N,/OUT_P*%
X132140000Y-76830000D02*
X134019600Y-78709600D01*
X123890000Y-84910302D02*
X123890000Y-86159902D01*
X115446250Y-86159902D02*
X117122650Y-87836302D01*
X132140000Y-76830000D02*
X131462302Y-76830000D01*
X117122650Y-87836302D02*
X122213600Y-87836302D01*
X120777500Y-73527402D02*
X120777500Y-79251102D01*
X134019600Y-82095902D02*
X131530400Y-84585102D01*
X120777500Y-79251102D02*
X120777500Y-82379902D01*
X134019600Y-78709600D02*
X134019600Y-82095902D01*
X124215200Y-84585102D02*
X123890000Y-84910302D01*
X120777500Y-82379902D02*
X120777500Y-83047402D01*
X131530400Y-84585102D02*
X124215200Y-84585102D01*
X120777500Y-83047402D02*
X123890000Y-86159902D01*
X118805000Y-71554902D02*
X120777500Y-73527402D01*
X122213600Y-87836302D02*
X123890000Y-86159902D01*
%TO.N,Net-(U1-FB)*%
X127466400Y-86159902D02*
X127923600Y-85702702D01*
X115802500Y-82379902D02*
X116087200Y-82095202D01*
X120202000Y-84026302D02*
X118952500Y-82776802D01*
X116087200Y-76761902D02*
X116844202Y-76004900D01*
X125790000Y-86159902D02*
X127466400Y-86159902D01*
X115802500Y-82379902D02*
X118952500Y-82379902D01*
X118952500Y-82776802D02*
X118952500Y-82379902D01*
X116087200Y-82095202D02*
X116087200Y-76761902D01*
X116844202Y-76004900D02*
X117535000Y-76004900D01*
%TO.N,Net-(U1-SW)*%
X125155000Y-71554902D02*
X123097600Y-69497502D01*
X118855800Y-77904902D02*
X119694000Y-77066702D01*
X114575000Y-70298502D02*
X114575000Y-71554902D01*
X119694000Y-77066702D02*
X119694000Y-75136302D01*
X119694000Y-75136302D02*
X116112600Y-71554902D01*
X117535000Y-77904902D02*
X118855800Y-77904902D01*
X115376000Y-69497502D02*
X114575000Y-70298502D01*
X116112600Y-71554902D02*
X114575000Y-71554902D01*
X123097600Y-69497502D02*
X115376000Y-69497502D01*
%TO.N,/Solar_P*%
X102641200Y-86159902D02*
X101015600Y-84534302D01*
X104137500Y-81412402D02*
X101015600Y-84534302D01*
X101015600Y-84534302D02*
X97443600Y-84534302D01*
X96173600Y-83264302D02*
X96173600Y-78641502D01*
X104455000Y-71567402D02*
X104009700Y-71567402D01*
X109360000Y-86159902D02*
X102641200Y-86159902D01*
X104009700Y-71567402D02*
X99120000Y-76457102D01*
X97443600Y-84534302D02*
X96173600Y-83264302D01*
X98145663Y-76669439D02*
X99120000Y-76669439D01*
X99120000Y-76457102D02*
X99120000Y-76669439D01*
X96173600Y-78641502D02*
X98145663Y-76669439D01*
%TO.N,/Bat_P*%
X99120000Y-82984902D02*
X99907400Y-82984902D01*
X108685000Y-71567402D02*
X108685000Y-72162402D01*
X110029100Y-71567402D02*
X111312000Y-72850302D01*
X99907400Y-82984902D02*
X103285600Y-79606702D01*
X108685000Y-71567402D02*
X110029100Y-71567402D01*
%TO.N,Net-(Q1-D)*%
X106030000Y-82379902D02*
X106012500Y-82362402D01*
X109360000Y-82379902D02*
X109360000Y-81449400D01*
X109360000Y-82379902D02*
X106030000Y-82379902D01*
X109360000Y-81449400D02*
X114804500Y-76004900D01*
%TD*%
M02*
