%TF.GenerationSoftware,KiCad,Pcbnew,9.0.7*%
%TF.CreationDate,2026-02-17T16:38:20-05:00*%
%TF.ProjectId,Tiny solar supply,54696e79-2073-46f6-9c61-722073757070,rev?*%
%TF.SameCoordinates,Original*%
%TF.FileFunction,Copper,L2,Bot*%
%TF.FilePolarity,Positive*%
%FSLAX46Y46*%
G04 Gerber Fmt 4.6, Leading zero omitted, Abs format (unit mm)*
G04 Created by KiCad (PCBNEW 9.0.7) date 2026-02-17 16:38:20*
%MOMM*%
%LPD*%
G01*
G04 APERTURE LIST*
G04 Aperture macros list*
%AMRoundRect*
0 Rectangle with rounded corners*
0 $1 Rounding radius*
0 $2 $3 $4 $5 $6 $7 $8 $9 X,Y pos of 4 corners*
0 Add a 4 corners polygon primitive as box body*
4,1,4,$2,$3,$4,$5,$6,$7,$8,$9,$2,$3,0*
0 Add four circle primitives for the rounded corners*
1,1,$1+$1,$2,$3*
1,1,$1+$1,$4,$5*
1,1,$1+$1,$6,$7*
1,1,$1+$1,$8,$9*
0 Add four rect primitives between the rounded corners*
20,1,$1+$1,$2,$3,$4,$5,0*
20,1,$1+$1,$4,$5,$6,$7,0*
20,1,$1+$1,$6,$7,$8,$9,0*
20,1,$1+$1,$8,$9,$2,$3,0*%
G04 Aperture macros list end*
%TA.AperFunction,Conductor*%
%ADD10C,0.200000*%
%TD*%
%TA.AperFunction,ComponentPad*%
%ADD11C,1.700000*%
%TD*%
%TA.AperFunction,ComponentPad*%
%ADD12R,1.700000X1.700000*%
%TD*%
%TA.AperFunction,ComponentPad*%
%ADD13RoundRect,0.250000X-0.550000X-0.550000X0.550000X-0.550000X0.550000X0.550000X-0.550000X0.550000X0*%
%TD*%
%TA.AperFunction,ComponentPad*%
%ADD14C,1.600000*%
%TD*%
%TA.AperFunction,ViaPad*%
%ADD15C,0.600000*%
%TD*%
G04 APERTURE END LIST*
D10*
%TO.N,Net-(J3-Pin_1)*%
X115122000Y-80039902D02*
X115122000Y-79098702D01*
X116725000Y-80039902D02*
X115122000Y-80039902D01*
X121550000Y-80039902D02*
X116725000Y-80039902D01*
%TD*%
D11*
%TO.P,J4,2,Pin_2*%
%TO.N,GNDD*%
X99120000Y-74334537D03*
D12*
%TO.P,J4,1,Pin_1*%
%TO.N,/Solar_P*%
X99120000Y-76874537D03*
%TD*%
%TO.P,J1,1,Pin_1*%
%TO.N,/OUT_P*%
X131965000Y-77450000D03*
D11*
%TO.P,J1,2,Pin_2*%
%TO.N,GNDD*%
X131965000Y-79990000D03*
%TD*%
D13*
%TO.P,J3,1,Pin_1*%
%TO.N,Net-(J3-Pin_1)*%
X103565000Y-76647402D03*
D14*
%TO.P,J3,2,Pin_2*%
%TO.N,/Bat_P*%
X111185000Y-76647402D03*
%TD*%
D12*
%TO.P,J2,1,Pin_1*%
%TO.N,/Bat_P*%
X99120000Y-83190000D03*
D11*
%TO.P,J2,2,Pin_2*%
%TO.N,GNDD*%
X99120000Y-80650000D03*
%TD*%
D15*
%TO.N,GNDD*%
X129253049Y-82256951D03*
X116618250Y-84381902D03*
X112785200Y-85499502D03*
X102930000Y-83721502D03*
X118830400Y-76457102D03*
%TO.N,Net-(J3-Pin_1)*%
X107680000Y-80810000D03*
X121550000Y-80039902D03*
X115122000Y-79098702D03*
X107680000Y-83840000D03*
%TO.N,Net-(U1-FB)*%
X127923600Y-85702702D03*
X120202000Y-84026302D03*
%TO.N,/Bat_P*%
X103285600Y-79606702D03*
X111312000Y-72850302D03*
%TD*%
D10*
%TO.N,Net-(J3-Pin_1)*%
X107680000Y-83840000D02*
X107680000Y-80810000D01*
%TO.N,Net-(U1-FB)*%
X120405200Y-84077102D02*
X120252800Y-84077102D01*
X126298000Y-84077102D02*
X120405200Y-84077102D01*
X127923600Y-85702702D02*
X126298000Y-84077102D01*
X120252800Y-84077102D02*
X120202000Y-84026302D01*
%TO.N,/Bat_P*%
X111312000Y-72850302D02*
X111312000Y-76520402D01*
X103285600Y-79606702D02*
X109726702Y-79606702D01*
X111185000Y-78195000D02*
X111185000Y-76647402D01*
X109750000Y-79630000D02*
X111185000Y-78195000D01*
X109726702Y-79606702D02*
X109750000Y-79630000D01*
X111312000Y-76520402D02*
X111185000Y-76647402D01*
%TD*%
%TA.AperFunction,Conductor*%
%TO.N,GNDD*%
G36*
X131313179Y-69517187D02*
G01*
X131333821Y-69533821D01*
X132600153Y-70800153D01*
X132633638Y-70861476D01*
X132635411Y-70904018D01*
X132624500Y-70986902D01*
X132624500Y-71213088D01*
X132624501Y-71213104D01*
X132654023Y-71437347D01*
X132712567Y-71655834D01*
X132799120Y-71864794D01*
X132799127Y-71864809D01*
X132912220Y-72060692D01*
X133049915Y-72240140D01*
X133049920Y-72240146D01*
X133088680Y-72278905D01*
X133122166Y-72340227D01*
X133125000Y-72366587D01*
X133125000Y-76002849D01*
X133105315Y-76069888D01*
X133052511Y-76115643D01*
X132983353Y-76125587D01*
X132957668Y-76119031D01*
X132922485Y-76105909D01*
X132922483Y-76105908D01*
X132862883Y-76099501D01*
X132862881Y-76099500D01*
X132862873Y-76099500D01*
X132862864Y-76099500D01*
X131067129Y-76099500D01*
X131067123Y-76099501D01*
X131007516Y-76105908D01*
X130872671Y-76156202D01*
X130872664Y-76156206D01*
X130757455Y-76242452D01*
X130757452Y-76242455D01*
X130671206Y-76357664D01*
X130671202Y-76357671D01*
X130620908Y-76492517D01*
X130614501Y-76552116D01*
X130614500Y-76552135D01*
X130614500Y-78347870D01*
X130614501Y-78347876D01*
X130620908Y-78407483D01*
X130671202Y-78542328D01*
X130671206Y-78542335D01*
X130757452Y-78657544D01*
X130757455Y-78657547D01*
X130872664Y-78743793D01*
X130872671Y-78743797D01*
X130882605Y-78747502D01*
X131007517Y-78794091D01*
X131067127Y-78800500D01*
X131077685Y-78800499D01*
X131144723Y-78820179D01*
X131165372Y-78836818D01*
X131835591Y-79507037D01*
X131772007Y-79524075D01*
X131657993Y-79589901D01*
X131564901Y-79682993D01*
X131499075Y-79797007D01*
X131482037Y-79860591D01*
X130849728Y-79228282D01*
X130849727Y-79228282D01*
X130810380Y-79282439D01*
X130713904Y-79471782D01*
X130648242Y-79673869D01*
X130648242Y-79673872D01*
X130615000Y-79883753D01*
X130615000Y-80096246D01*
X130648242Y-80306127D01*
X130648242Y-80306130D01*
X130713904Y-80508217D01*
X130810375Y-80697550D01*
X130849728Y-80751716D01*
X131482037Y-80119408D01*
X131499075Y-80182993D01*
X131564901Y-80297007D01*
X131657993Y-80390099D01*
X131772007Y-80455925D01*
X131835590Y-80472962D01*
X131203282Y-81105269D01*
X131203282Y-81105270D01*
X131257449Y-81144624D01*
X131446782Y-81241095D01*
X131648870Y-81306757D01*
X131858754Y-81340000D01*
X132071246Y-81340000D01*
X132281127Y-81306757D01*
X132281130Y-81306757D01*
X132483217Y-81241095D01*
X132672554Y-81144622D01*
X132726716Y-81105270D01*
X132726717Y-81105270D01*
X132094408Y-80472962D01*
X132157993Y-80455925D01*
X132272007Y-80390099D01*
X132365099Y-80297007D01*
X132430925Y-80182993D01*
X132447962Y-80119408D01*
X133103490Y-80774937D01*
X133125000Y-80814329D01*
X133125000Y-80923034D01*
X133125000Y-85083412D01*
X133105315Y-85150451D01*
X133088681Y-85171093D01*
X133049921Y-85209852D01*
X133049915Y-85209859D01*
X132912220Y-85389307D01*
X132799127Y-85585190D01*
X132799120Y-85585205D01*
X132712567Y-85794165D01*
X132654023Y-86012652D01*
X132624501Y-86236895D01*
X132624500Y-86236911D01*
X132624500Y-86463088D01*
X132624501Y-86463104D01*
X132654022Y-86687340D01*
X132654023Y-86687346D01*
X132654023Y-86687347D01*
X132654026Y-86687358D01*
X132663733Y-86723586D01*
X132662070Y-86793436D01*
X132631640Y-86843359D01*
X132517247Y-86957752D01*
X132311317Y-87163682D01*
X132249996Y-87197166D01*
X132223638Y-87200000D01*
X98176165Y-87200000D01*
X98109126Y-87180315D01*
X98063371Y-87127511D01*
X98053427Y-87058353D01*
X98061604Y-87028548D01*
X98090928Y-86957752D01*
X98112433Y-86905834D01*
X98170976Y-86687351D01*
X98200500Y-86463095D01*
X98200500Y-86236905D01*
X98170976Y-86012649D01*
X98112433Y-85794166D01*
X98063180Y-85675259D01*
X98025879Y-85585205D01*
X98025872Y-85585190D01*
X97998915Y-85538499D01*
X99223000Y-85538499D01*
X99223000Y-86076000D01*
X100725000Y-86076000D01*
X101723000Y-86076000D01*
X103225000Y-86076000D01*
X104223000Y-86076000D01*
X105725000Y-86076000D01*
X106723000Y-86076000D01*
X108225000Y-86076000D01*
X108225000Y-85558150D01*
X108179767Y-85571872D01*
X108173903Y-85573495D01*
X108138177Y-85582445D01*
X108132235Y-85583779D01*
X107929508Y-85624104D01*
X107923511Y-85625145D01*
X107887080Y-85630549D01*
X107881039Y-85631294D01*
X107832267Y-85636097D01*
X107826197Y-85636545D01*
X107789425Y-85638351D01*
X107783342Y-85638500D01*
X107576658Y-85638500D01*
X107570575Y-85638351D01*
X107533803Y-85636545D01*
X107527733Y-85636097D01*
X107478961Y-85631294D01*
X107472920Y-85630549D01*
X107436489Y-85625145D01*
X107430492Y-85624104D01*
X107227765Y-85583779D01*
X107221823Y-85582445D01*
X107186097Y-85573495D01*
X107180233Y-85571872D01*
X107133338Y-85557646D01*
X107127560Y-85555737D01*
X107092899Y-85543335D01*
X107087222Y-85541145D01*
X106896272Y-85462052D01*
X106890708Y-85459586D01*
X106857426Y-85443845D01*
X106851991Y-85441109D01*
X106808770Y-85418008D01*
X106803475Y-85415009D01*
X106771882Y-85396074D01*
X106766737Y-85392816D01*
X106723000Y-85363591D01*
X106723000Y-86076000D01*
X105725000Y-86076000D01*
X105725000Y-84767953D01*
X109223000Y-84767953D01*
X109223000Y-86076000D01*
X110725000Y-86076000D01*
X114223000Y-86076000D01*
X115725000Y-86076000D01*
X115725000Y-85654780D01*
X116723000Y-85654780D01*
X116723000Y-86076000D01*
X118225000Y-86076000D01*
X119223000Y-86076000D01*
X120725000Y-86076000D01*
X121723000Y-86076000D01*
X123225000Y-86076000D01*
X124223000Y-86076000D01*
X125725000Y-86076000D01*
X125725000Y-85764721D01*
X125635881Y-85675602D01*
X124223000Y-85675602D01*
X124223000Y-86076000D01*
X123225000Y-86076000D01*
X123225000Y-85675602D01*
X121723000Y-85675602D01*
X121723000Y-86076000D01*
X120725000Y-86076000D01*
X120725000Y-85751126D01*
X120701767Y-85758174D01*
X120695903Y-85759797D01*
X120660177Y-85768747D01*
X120654235Y-85770081D01*
X120451508Y-85810406D01*
X120445511Y-85811447D01*
X120409080Y-85816851D01*
X120403039Y-85817596D01*
X120354267Y-85822399D01*
X120348197Y-85822847D01*
X120311425Y-85824653D01*
X120305342Y-85824802D01*
X120098658Y-85824802D01*
X120092575Y-85824653D01*
X120055803Y-85822847D01*
X120049733Y-85822399D01*
X120000961Y-85817596D01*
X119994920Y-85816851D01*
X119958489Y-85811447D01*
X119952492Y-85810406D01*
X119749765Y-85770081D01*
X119743823Y-85768747D01*
X119708097Y-85759797D01*
X119702233Y-85758174D01*
X119655338Y-85743948D01*
X119649560Y-85742039D01*
X119614899Y-85729637D01*
X119609222Y-85727447D01*
X119418272Y-85648354D01*
X119412708Y-85645888D01*
X119379426Y-85630147D01*
X119373991Y-85627411D01*
X119330770Y-85604310D01*
X119325475Y-85601311D01*
X119293882Y-85582376D01*
X119288737Y-85579118D01*
X119223000Y-85535193D01*
X119223000Y-86076000D01*
X118225000Y-86076000D01*
X118225000Y-84745502D01*
X117839672Y-84745502D01*
X117801928Y-84861667D01*
X117794482Y-84879644D01*
X117712303Y-85040928D01*
X117702136Y-85057518D01*
X117595739Y-85203962D01*
X117583102Y-85218758D01*
X117455106Y-85346754D01*
X117440310Y-85359391D01*
X117293866Y-85465788D01*
X117277276Y-85475955D01*
X117115992Y-85558134D01*
X117098015Y-85565580D01*
X116925860Y-85621516D01*
X116906940Y-85626058D01*
X116728155Y-85654375D01*
X116723000Y-85654780D01*
X115725000Y-85654780D01*
X115725000Y-85290360D01*
X115653398Y-85218758D01*
X115640761Y-85203962D01*
X115534364Y-85057518D01*
X115524197Y-85040928D01*
X115442018Y-84879644D01*
X115434572Y-84861667D01*
X115396828Y-84745502D01*
X114223000Y-84745502D01*
X114223000Y-86076000D01*
X110725000Y-86076000D01*
X110725000Y-84745502D01*
X109237642Y-84745502D01*
X109236074Y-84748118D01*
X109232816Y-84753263D01*
X109223000Y-84767953D01*
X105725000Y-84767953D01*
X105725000Y-84745502D01*
X104223000Y-84745502D01*
X104223000Y-86076000D01*
X103225000Y-86076000D01*
X103225000Y-84964143D01*
X103218690Y-84965658D01*
X103039905Y-84993975D01*
X103020507Y-84995502D01*
X102839493Y-84995502D01*
X102820095Y-84993975D01*
X102641310Y-84965658D01*
X102622390Y-84961116D01*
X102450235Y-84905180D01*
X102432258Y-84897734D01*
X102270974Y-84815555D01*
X102254384Y-84805388D01*
X102171958Y-84745502D01*
X101723000Y-84745502D01*
X101723000Y-86076000D01*
X100725000Y-86076000D01*
X100725000Y-85340802D01*
X100721923Y-85342628D01*
X100659333Y-85376805D01*
X100651419Y-85380767D01*
X100602682Y-85403025D01*
X100594502Y-85406413D01*
X100397018Y-85480069D01*
X100389679Y-85482548D01*
X100344828Y-85496153D01*
X100337352Y-85498168D01*
X100276637Y-85512516D01*
X100269045Y-85514061D01*
X100222840Y-85521972D01*
X100215167Y-85523041D01*
X100111245Y-85534212D01*
X100107936Y-85534523D01*
X100087899Y-85536135D01*
X100084587Y-85536357D01*
X100057905Y-85537786D01*
X100054587Y-85537919D01*
X100034536Y-85538455D01*
X100031222Y-85538499D01*
X99223000Y-85538499D01*
X97998915Y-85538499D01*
X97912779Y-85389307D01*
X97775084Y-85209859D01*
X97775078Y-85209852D01*
X97615147Y-85049921D01*
X97615140Y-85049915D01*
X97435692Y-84912220D01*
X97239809Y-84799127D01*
X97239794Y-84799120D01*
X97030834Y-84712567D01*
X96812347Y-84654023D01*
X96584071Y-84623970D01*
X96584293Y-84622282D01*
X96525228Y-84600616D01*
X96483054Y-84544910D01*
X96475000Y-84500948D01*
X96475000Y-84101362D01*
X96494685Y-84034323D01*
X96511319Y-84013681D01*
X96600000Y-83925000D01*
X96600000Y-82292135D01*
X97769500Y-82292135D01*
X97769500Y-84087870D01*
X97769501Y-84087876D01*
X97775908Y-84147483D01*
X97826202Y-84282328D01*
X97826206Y-84282335D01*
X97912452Y-84397544D01*
X97912455Y-84397547D01*
X98027664Y-84483793D01*
X98027671Y-84483797D01*
X98162517Y-84534091D01*
X98162516Y-84534091D01*
X98169444Y-84534835D01*
X98222127Y-84540500D01*
X100017872Y-84540499D01*
X100077483Y-84534091D01*
X100212331Y-84483796D01*
X100327546Y-84397546D01*
X100413796Y-84282331D01*
X100464091Y-84147483D01*
X100470500Y-84087873D01*
X100470500Y-83747502D01*
X104223000Y-83747502D01*
X105725000Y-83747502D01*
X105725000Y-82245502D01*
X104223000Y-82245502D01*
X104223000Y-83747502D01*
X100470500Y-83747502D01*
X100470500Y-83313515D01*
X101723000Y-83313515D01*
X101746322Y-83241737D01*
X101753768Y-83223760D01*
X101835947Y-83062476D01*
X101846114Y-83045886D01*
X101952511Y-82899442D01*
X101965148Y-82884646D01*
X102093144Y-82756650D01*
X102107940Y-82744013D01*
X102254384Y-82637616D01*
X102270974Y-82627449D01*
X102432258Y-82545270D01*
X102450235Y-82537824D01*
X102622390Y-82481888D01*
X102641310Y-82477346D01*
X102820095Y-82449029D01*
X102839493Y-82447502D01*
X103020507Y-82447502D01*
X103039905Y-82449029D01*
X103218690Y-82477346D01*
X103225000Y-82478860D01*
X103225000Y-82245502D01*
X101723000Y-82245502D01*
X101723000Y-83313515D01*
X100470500Y-83313515D01*
X100470499Y-82292128D01*
X100464091Y-82232517D01*
X100413796Y-82097669D01*
X100413795Y-82097668D01*
X100413793Y-82097664D01*
X100327547Y-81982455D01*
X100327544Y-81982452D01*
X100212335Y-81896206D01*
X100212328Y-81896202D01*
X100077482Y-81845908D01*
X100077483Y-81845908D01*
X100017883Y-81839501D01*
X100017881Y-81839500D01*
X100017873Y-81839500D01*
X100017865Y-81839500D01*
X100007309Y-81839500D01*
X99940270Y-81819815D01*
X99919628Y-81803181D01*
X99249408Y-81132962D01*
X99312993Y-81115925D01*
X99427007Y-81050099D01*
X99520099Y-80957007D01*
X99585925Y-80842993D01*
X99602962Y-80779409D01*
X100235270Y-81411717D01*
X100235270Y-81411716D01*
X100274622Y-81357554D01*
X100371095Y-81168217D01*
X100436757Y-80966130D01*
X100436757Y-80966127D01*
X100470000Y-80756246D01*
X100470000Y-80543753D01*
X100436757Y-80333872D01*
X100436757Y-80333869D01*
X100371095Y-80131782D01*
X100274624Y-79942449D01*
X100235270Y-79888282D01*
X100235269Y-79888282D01*
X99602962Y-80520590D01*
X99585925Y-80457007D01*
X99520099Y-80342993D01*
X99427007Y-80249901D01*
X99312993Y-80184075D01*
X99249409Y-80167037D01*
X99881716Y-79534728D01*
X99872256Y-79527855D01*
X102485100Y-79527855D01*
X102485100Y-79685548D01*
X102515861Y-79840191D01*
X102515864Y-79840203D01*
X102576202Y-79985874D01*
X102576209Y-79985887D01*
X102663810Y-80116990D01*
X102663813Y-80116994D01*
X102775307Y-80228488D01*
X102775311Y-80228491D01*
X102906414Y-80316092D01*
X102906427Y-80316099D01*
X102985494Y-80348849D01*
X103052103Y-80376439D01*
X103171014Y-80400092D01*
X103206753Y-80407201D01*
X103206756Y-80407202D01*
X103206758Y-80407202D01*
X103364444Y-80407202D01*
X103364445Y-80407201D01*
X103519097Y-80376439D01*
X103664779Y-80316096D01*
X103728680Y-80273399D01*
X103796475Y-80228100D01*
X103863153Y-80207222D01*
X103865366Y-80207202D01*
X106888035Y-80207202D01*
X106955074Y-80226887D01*
X107000829Y-80279691D01*
X107010773Y-80348849D01*
X106991137Y-80400092D01*
X106970612Y-80430809D01*
X106970602Y-80430827D01*
X106910264Y-80576498D01*
X106910261Y-80576510D01*
X106879500Y-80731153D01*
X106879500Y-80888846D01*
X106910261Y-81043489D01*
X106910264Y-81043501D01*
X106970602Y-81189172D01*
X106970609Y-81189185D01*
X107058602Y-81320874D01*
X107079480Y-81387551D01*
X107079500Y-81389765D01*
X107079500Y-83260234D01*
X107059815Y-83327273D01*
X107058602Y-83329125D01*
X106970609Y-83460814D01*
X106970602Y-83460827D01*
X106910264Y-83606498D01*
X106910261Y-83606510D01*
X106879500Y-83761153D01*
X106879500Y-83918846D01*
X106910261Y-84073489D01*
X106910264Y-84073501D01*
X106970602Y-84219172D01*
X106970609Y-84219185D01*
X107058210Y-84350288D01*
X107058213Y-84350292D01*
X107169707Y-84461786D01*
X107169711Y-84461789D01*
X107300814Y-84549390D01*
X107300827Y-84549397D01*
X107446498Y-84609735D01*
X107446503Y-84609737D01*
X107601153Y-84640499D01*
X107601156Y-84640500D01*
X107601158Y-84640500D01*
X107758844Y-84640500D01*
X107758845Y-84640499D01*
X107913497Y-84609737D01*
X108059179Y-84549394D01*
X108190289Y-84461789D01*
X108301789Y-84350289D01*
X108389394Y-84219179D01*
X108449737Y-84073497D01*
X108474808Y-83947455D01*
X119401500Y-83947455D01*
X119401500Y-84105148D01*
X119432261Y-84259791D01*
X119432264Y-84259803D01*
X119492602Y-84405474D01*
X119492609Y-84405487D01*
X119580210Y-84536590D01*
X119580213Y-84536594D01*
X119691707Y-84648088D01*
X119691711Y-84648091D01*
X119822814Y-84735692D01*
X119822827Y-84735699D01*
X119952569Y-84789439D01*
X119968503Y-84796039D01*
X120120016Y-84826177D01*
X120123153Y-84826801D01*
X120123156Y-84826802D01*
X120123158Y-84826802D01*
X120280844Y-84826802D01*
X120280845Y-84826801D01*
X120435497Y-84796039D01*
X120581179Y-84735696D01*
X120636847Y-84698500D01*
X120703525Y-84677622D01*
X120705738Y-84677602D01*
X125997903Y-84677602D01*
X126064942Y-84697287D01*
X126085584Y-84713921D01*
X127089025Y-85717362D01*
X127122510Y-85778685D01*
X127122961Y-85780851D01*
X127153861Y-85936193D01*
X127153864Y-85936203D01*
X127214202Y-86081874D01*
X127214209Y-86081887D01*
X127301810Y-86212990D01*
X127301813Y-86212994D01*
X127413307Y-86324488D01*
X127413311Y-86324491D01*
X127544414Y-86412092D01*
X127544427Y-86412099D01*
X127667544Y-86463095D01*
X127690103Y-86472439D01*
X127844753Y-86503201D01*
X127844756Y-86503202D01*
X127844758Y-86503202D01*
X128002444Y-86503202D01*
X128002445Y-86503201D01*
X128157097Y-86472439D01*
X128302779Y-86412096D01*
X128433889Y-86324491D01*
X128545389Y-86212991D01*
X128632994Y-86081881D01*
X128693337Y-85936199D01*
X128724100Y-85781544D01*
X128724100Y-85623860D01*
X128724100Y-85623857D01*
X128724099Y-85623855D01*
X128707647Y-85541145D01*
X128693337Y-85469205D01*
X128682833Y-85443845D01*
X128632997Y-85323529D01*
X128632990Y-85323516D01*
X128545389Y-85192413D01*
X128545386Y-85192409D01*
X128433892Y-85080915D01*
X128433888Y-85080912D01*
X128302785Y-84993311D01*
X128302772Y-84993304D01*
X128157101Y-84932966D01*
X128157091Y-84932963D01*
X128001751Y-84902064D01*
X127939841Y-84869679D01*
X127938262Y-84868128D01*
X127815636Y-84745502D01*
X129447058Y-84745502D01*
X129476416Y-84789439D01*
X129479674Y-84794584D01*
X129498609Y-84826177D01*
X129501608Y-84831472D01*
X129524709Y-84874693D01*
X129527445Y-84880128D01*
X129543186Y-84913410D01*
X129545652Y-84918974D01*
X129624745Y-85109924D01*
X129626935Y-85115601D01*
X129639337Y-85150262D01*
X129641246Y-85156040D01*
X129655472Y-85202935D01*
X129657095Y-85208799D01*
X129666045Y-85244525D01*
X129667379Y-85250467D01*
X129707704Y-85453194D01*
X129708745Y-85459191D01*
X129714149Y-85495622D01*
X129714894Y-85501663D01*
X129719697Y-85550435D01*
X129720145Y-85556505D01*
X129721951Y-85593277D01*
X129722100Y-85599360D01*
X129722100Y-85806044D01*
X129721951Y-85812127D01*
X129720145Y-85848899D01*
X129719697Y-85854969D01*
X129714894Y-85903741D01*
X129714149Y-85909782D01*
X129708745Y-85946213D01*
X129707704Y-85952210D01*
X129683081Y-86076000D01*
X130725000Y-86076000D01*
X130725000Y-84745502D01*
X129447058Y-84745502D01*
X127815636Y-84745502D01*
X126785590Y-83715457D01*
X126785588Y-83715454D01*
X126666717Y-83596583D01*
X126666709Y-83596577D01*
X126554637Y-83531873D01*
X126554636Y-83531872D01*
X126537168Y-83521787D01*
X126529785Y-83517525D01*
X126377057Y-83476601D01*
X126218943Y-83476601D01*
X126211347Y-83476601D01*
X126211331Y-83476602D01*
X120835740Y-83476602D01*
X120768701Y-83456917D01*
X120748058Y-83440282D01*
X120712292Y-83404515D01*
X120712288Y-83404512D01*
X120581185Y-83316911D01*
X120581172Y-83316904D01*
X120435501Y-83256566D01*
X120435489Y-83256563D01*
X120280845Y-83225802D01*
X120280842Y-83225802D01*
X120123158Y-83225802D01*
X120123155Y-83225802D01*
X119968510Y-83256563D01*
X119968498Y-83256566D01*
X119822827Y-83316904D01*
X119822814Y-83316911D01*
X119691711Y-83404512D01*
X119691707Y-83404515D01*
X119580213Y-83516009D01*
X119580210Y-83516013D01*
X119492609Y-83647116D01*
X119492602Y-83647129D01*
X119432264Y-83792800D01*
X119432261Y-83792812D01*
X119401500Y-83947455D01*
X108474808Y-83947455D01*
X108480500Y-83918842D01*
X108480500Y-83761158D01*
X108480500Y-83761155D01*
X108480499Y-83761153D01*
X108456193Y-83638961D01*
X108449737Y-83606503D01*
X108424281Y-83545046D01*
X108389397Y-83460827D01*
X108389390Y-83460814D01*
X108301398Y-83329125D01*
X108280520Y-83262447D01*
X108280500Y-83260234D01*
X108280500Y-83007108D01*
X109278500Y-83007108D01*
X109281110Y-83011992D01*
X109283845Y-83017426D01*
X109299586Y-83050708D01*
X109302052Y-83056272D01*
X109381145Y-83247222D01*
X109383335Y-83252899D01*
X109395737Y-83287560D01*
X109397646Y-83293338D01*
X109411872Y-83340233D01*
X109413495Y-83346097D01*
X109422445Y-83381823D01*
X109423779Y-83387765D01*
X109464104Y-83590492D01*
X109465145Y-83596489D01*
X109470549Y-83632920D01*
X109471294Y-83638961D01*
X109476097Y-83687733D01*
X109476545Y-83693803D01*
X109478351Y-83730575D01*
X109478500Y-83736658D01*
X109478500Y-83747502D01*
X110725000Y-83747502D01*
X111723000Y-83747502D01*
X113225000Y-83747502D01*
X114223000Y-83747502D01*
X115511649Y-83747502D01*
X115524197Y-83722876D01*
X115534364Y-83706286D01*
X115640761Y-83559842D01*
X115653398Y-83545046D01*
X115725000Y-83473444D01*
X115725000Y-83109023D01*
X116723000Y-83109023D01*
X116728155Y-83109429D01*
X116906940Y-83137746D01*
X116925860Y-83142288D01*
X117098015Y-83198224D01*
X117115992Y-83205670D01*
X117277276Y-83287849D01*
X117293866Y-83298016D01*
X117440310Y-83404413D01*
X117455106Y-83417050D01*
X117583102Y-83545046D01*
X117595739Y-83559842D01*
X117702136Y-83706286D01*
X117712303Y-83722876D01*
X117724851Y-83747502D01*
X118225000Y-83747502D01*
X118225000Y-82536090D01*
X126723000Y-82536090D01*
X126819663Y-82561992D01*
X126827430Y-82564348D01*
X126873943Y-82580138D01*
X126881539Y-82582998D01*
X126941919Y-82608011D01*
X126949306Y-82611358D01*
X126993327Y-82633067D01*
X127000481Y-82636891D01*
X127552027Y-82955315D01*
X127600244Y-83005881D01*
X127613468Y-83074488D01*
X127609804Y-83094796D01*
X127602726Y-83121209D01*
X128225000Y-83743482D01*
X128225000Y-83530951D01*
X129223000Y-83530951D01*
X129223000Y-83747502D01*
X130725000Y-83747502D01*
X130725000Y-82245502D01*
X130527049Y-82245502D01*
X130527049Y-82347458D01*
X130525522Y-82366856D01*
X130497205Y-82545641D01*
X130492663Y-82564561D01*
X130436727Y-82736716D01*
X130429281Y-82754693D01*
X130347102Y-82915977D01*
X130336935Y-82932567D01*
X130230538Y-83079011D01*
X130217901Y-83093807D01*
X130089905Y-83221803D01*
X130075109Y-83234440D01*
X129928665Y-83340837D01*
X129912075Y-83351004D01*
X129750791Y-83433183D01*
X129732814Y-83440629D01*
X129560659Y-83496565D01*
X129541739Y-83501107D01*
X129362954Y-83529424D01*
X129343556Y-83530951D01*
X129223000Y-83530951D01*
X128225000Y-83530951D01*
X128225000Y-83009420D01*
X128169163Y-82932567D01*
X128158996Y-82915977D01*
X128076817Y-82754693D01*
X128069371Y-82736716D01*
X128013435Y-82564561D01*
X128008893Y-82545641D01*
X127980576Y-82366856D01*
X127979049Y-82347458D01*
X127979049Y-82245502D01*
X126723000Y-82245502D01*
X126723000Y-82536090D01*
X118225000Y-82536090D01*
X118225000Y-82245502D01*
X116723000Y-82245502D01*
X116723000Y-83109023D01*
X115725000Y-83109023D01*
X115725000Y-82245502D01*
X114223000Y-82245502D01*
X114223000Y-83747502D01*
X113225000Y-83747502D01*
X113225000Y-82245502D01*
X111723000Y-82245502D01*
X111723000Y-83747502D01*
X110725000Y-83747502D01*
X110725000Y-82245502D01*
X109278500Y-82245502D01*
X109278500Y-83007108D01*
X108280500Y-83007108D01*
X108280500Y-81389765D01*
X108300185Y-81322726D01*
X108301398Y-81320874D01*
X108389390Y-81189185D01*
X108389390Y-81189184D01*
X108389394Y-81189179D01*
X108449737Y-81043497D01*
X108480500Y-80888842D01*
X108480500Y-80731158D01*
X108480500Y-80731155D01*
X108480499Y-80731153D01*
X108464357Y-80650001D01*
X108449737Y-80576503D01*
X108436172Y-80543753D01*
X108389397Y-80430827D01*
X108389387Y-80430809D01*
X108368863Y-80400092D01*
X108347985Y-80333415D01*
X108366470Y-80266035D01*
X108418449Y-80219345D01*
X108471965Y-80207202D01*
X109567665Y-80207202D01*
X109599758Y-80211427D01*
X109611323Y-80214525D01*
X109670943Y-80230501D01*
X109670945Y-80230501D01*
X109829054Y-80230501D01*
X109829057Y-80230501D01*
X109981785Y-80189577D01*
X110118716Y-80110519D01*
X110311618Y-79917617D01*
X111723000Y-79917617D01*
X111723000Y-81247502D01*
X113225000Y-81247502D01*
X124223000Y-81247502D01*
X125725000Y-81247502D01*
X126723000Y-81247502D01*
X128225000Y-81247502D01*
X128225000Y-80982951D01*
X129223000Y-80982951D01*
X129343556Y-80982951D01*
X129362954Y-80984478D01*
X129541739Y-81012795D01*
X129560659Y-81017337D01*
X129732814Y-81073273D01*
X129750791Y-81080719D01*
X129912075Y-81162898D01*
X129928665Y-81173065D01*
X129935504Y-81178034D01*
X129932352Y-81172405D01*
X129930056Y-81168110D01*
X129815786Y-80943846D01*
X129813660Y-80939463D01*
X129801331Y-80912719D01*
X129799381Y-80908261D01*
X129784379Y-80872045D01*
X129782604Y-80867509D01*
X129772405Y-80839864D01*
X129770809Y-80835263D01*
X129693026Y-80595870D01*
X129691611Y-80591206D01*
X129683609Y-80562829D01*
X129682379Y-80558113D01*
X129673231Y-80519996D01*
X129672189Y-80515244D01*
X129666449Y-80486381D01*
X129665594Y-80481593D01*
X129626223Y-80233020D01*
X129625555Y-80228196D01*
X129622095Y-80198962D01*
X129621619Y-80194125D01*
X129618541Y-80155046D01*
X129618254Y-80150181D01*
X129617096Y-80120729D01*
X129617000Y-80115857D01*
X129617000Y-79864143D01*
X129617096Y-79859271D01*
X129618254Y-79829819D01*
X129618541Y-79824954D01*
X129621619Y-79785875D01*
X129622095Y-79781038D01*
X129625555Y-79751804D01*
X129626223Y-79746979D01*
X129626457Y-79745502D01*
X129223000Y-79745502D01*
X129223000Y-80982951D01*
X128225000Y-80982951D01*
X128225000Y-79745502D01*
X126723000Y-79745502D01*
X126723000Y-81247502D01*
X125725000Y-81247502D01*
X125725000Y-79745502D01*
X124223000Y-79745502D01*
X124223000Y-81247502D01*
X113225000Y-81247502D01*
X113225000Y-79745502D01*
X111895115Y-79745502D01*
X111723000Y-79917617D01*
X110311618Y-79917617D01*
X111209379Y-79019855D01*
X114321500Y-79019855D01*
X114321500Y-79177548D01*
X114352261Y-79332191D01*
X114352264Y-79332203D01*
X114412602Y-79477874D01*
X114412609Y-79477887D01*
X114500602Y-79609576D01*
X114521480Y-79676253D01*
X114521500Y-79678467D01*
X114521500Y-79960845D01*
X114521500Y-80118959D01*
X114552063Y-80233020D01*
X114562423Y-80271685D01*
X114562426Y-80271692D01*
X114641475Y-80408611D01*
X114641479Y-80408616D01*
X114641480Y-80408618D01*
X114753284Y-80520422D01*
X114753286Y-80520423D01*
X114753290Y-80520426D01*
X114883965Y-80595870D01*
X114890216Y-80599479D01*
X115042943Y-80640402D01*
X116645943Y-80640402D01*
X120970234Y-80640402D01*
X121037273Y-80660087D01*
X121039125Y-80661300D01*
X121170814Y-80749292D01*
X121170827Y-80749299D01*
X121232724Y-80774937D01*
X121316503Y-80809639D01*
X121445323Y-80835263D01*
X121471153Y-80840401D01*
X121471156Y-80840402D01*
X121471158Y-80840402D01*
X121628844Y-80840402D01*
X121628845Y-80840401D01*
X121783497Y-80809639D01*
X121929179Y-80749296D01*
X122060289Y-80661691D01*
X122171789Y-80550191D01*
X122259394Y-80419081D01*
X122263728Y-80408619D01*
X122306179Y-80306130D01*
X122319737Y-80273399D01*
X122350500Y-80118744D01*
X122350500Y-79961060D01*
X122350500Y-79961057D01*
X122350499Y-79961055D01*
X122343163Y-79924174D01*
X122319737Y-79806405D01*
X122295122Y-79746979D01*
X122259397Y-79660729D01*
X122259390Y-79660716D01*
X122171789Y-79529613D01*
X122171786Y-79529609D01*
X122060292Y-79418115D01*
X122060288Y-79418112D01*
X121929185Y-79330511D01*
X121929172Y-79330504D01*
X121783501Y-79270166D01*
X121783489Y-79270163D01*
X121628845Y-79239402D01*
X121628842Y-79239402D01*
X121471158Y-79239402D01*
X121471155Y-79239402D01*
X121316510Y-79270163D01*
X121316498Y-79270166D01*
X121170827Y-79330504D01*
X121170814Y-79330511D01*
X121039125Y-79418504D01*
X120972447Y-79439382D01*
X120970234Y-79439402D01*
X116021508Y-79439402D01*
X115954469Y-79419717D01*
X115908714Y-79366913D01*
X115898770Y-79297755D01*
X115899891Y-79291211D01*
X115922499Y-79177548D01*
X115922500Y-79177546D01*
X115922500Y-79019857D01*
X115922499Y-79019855D01*
X115919783Y-79006202D01*
X115891737Y-78865205D01*
X115868650Y-78809468D01*
X115831397Y-78719529D01*
X115831390Y-78719516D01*
X115743789Y-78588413D01*
X115743786Y-78588409D01*
X115632292Y-78476915D01*
X115632288Y-78476912D01*
X115501185Y-78389311D01*
X115501172Y-78389304D01*
X115355501Y-78328966D01*
X115355489Y-78328963D01*
X115200845Y-78298202D01*
X115200842Y-78298202D01*
X115043158Y-78298202D01*
X115043155Y-78298202D01*
X114888510Y-78328963D01*
X114888498Y-78328966D01*
X114742827Y-78389304D01*
X114742814Y-78389311D01*
X114611711Y-78476912D01*
X114611707Y-78476915D01*
X114500213Y-78588409D01*
X114500210Y-78588413D01*
X114412609Y-78719516D01*
X114412602Y-78719529D01*
X114352264Y-78865200D01*
X114352261Y-78865212D01*
X114321500Y-79019855D01*
X111209379Y-79019855D01*
X111543506Y-78685727D01*
X111543511Y-78685724D01*
X111553714Y-78675520D01*
X111553716Y-78675520D01*
X111665520Y-78563716D01*
X111744577Y-78426784D01*
X111785500Y-78274057D01*
X111785500Y-78270488D01*
X116723000Y-78270488D01*
X116723110Y-78270694D01*
X116725845Y-78276128D01*
X116741586Y-78309410D01*
X116744052Y-78314974D01*
X116796419Y-78441402D01*
X118225000Y-78441402D01*
X118225000Y-77669101D01*
X119223000Y-77669101D01*
X119223000Y-78441402D01*
X120717110Y-78441402D01*
X120721991Y-78438793D01*
X120725000Y-78437278D01*
X120725000Y-78245846D01*
X121723000Y-78245846D01*
X121751039Y-78248608D01*
X121757080Y-78249353D01*
X121793511Y-78254757D01*
X121799508Y-78255798D01*
X122002235Y-78296123D01*
X122008177Y-78297457D01*
X122043903Y-78306407D01*
X122049767Y-78308030D01*
X122096662Y-78322256D01*
X122102440Y-78324165D01*
X122137101Y-78336567D01*
X122142778Y-78338757D01*
X122333728Y-78417850D01*
X122339292Y-78420316D01*
X122372574Y-78436057D01*
X122378009Y-78438793D01*
X122421230Y-78461894D01*
X122426525Y-78464893D01*
X122458118Y-78483828D01*
X122463263Y-78487086D01*
X122635122Y-78601919D01*
X122640098Y-78605424D01*
X122669671Y-78627357D01*
X122674469Y-78631101D01*
X122712351Y-78662190D01*
X122716958Y-78666164D01*
X122744245Y-78690895D01*
X122748654Y-78695093D01*
X122801063Y-78747502D01*
X123225000Y-78747502D01*
X124223000Y-78747502D01*
X125725000Y-78747502D01*
X126723000Y-78747502D01*
X128225000Y-78747502D01*
X129223000Y-78747502D01*
X129682571Y-78747502D01*
X129674931Y-78727017D01*
X129672452Y-78719679D01*
X129658847Y-78674828D01*
X129656832Y-78667352D01*
X129642484Y-78606637D01*
X129640939Y-78599045D01*
X129633028Y-78552840D01*
X129631959Y-78545167D01*
X129620788Y-78441245D01*
X129620477Y-78437936D01*
X129618865Y-78417899D01*
X129618643Y-78414587D01*
X129617214Y-78387905D01*
X129617081Y-78384587D01*
X129616545Y-78364536D01*
X129616501Y-78361222D01*
X129616500Y-77245502D01*
X129223000Y-77245502D01*
X129223000Y-78747502D01*
X128225000Y-78747502D01*
X128225000Y-77245502D01*
X126723000Y-77245502D01*
X126723000Y-78747502D01*
X125725000Y-78747502D01*
X125725000Y-77245502D01*
X124223000Y-77245502D01*
X124223000Y-78747502D01*
X123225000Y-78747502D01*
X123225000Y-77245502D01*
X121723000Y-77245502D01*
X121723000Y-78245846D01*
X120725000Y-78245846D01*
X120725000Y-77245502D01*
X119832344Y-77245502D01*
X119807889Y-77279162D01*
X119795252Y-77293958D01*
X119667256Y-77421954D01*
X119652460Y-77434591D01*
X119506016Y-77540988D01*
X119489426Y-77551155D01*
X119328142Y-77633334D01*
X119310165Y-77640780D01*
X119223000Y-77669101D01*
X118225000Y-77669101D01*
X118225000Y-77578478D01*
X118171374Y-77551155D01*
X118154784Y-77540988D01*
X118008340Y-77434591D01*
X117993544Y-77421954D01*
X117865548Y-77293958D01*
X117852911Y-77279162D01*
X117828456Y-77245502D01*
X116723000Y-77245502D01*
X116723000Y-78270488D01*
X111785500Y-78270488D01*
X111785500Y-77877003D01*
X111805185Y-77809964D01*
X111853206Y-77766518D01*
X111866610Y-77759689D01*
X112032219Y-77639368D01*
X112176966Y-77494621D01*
X112176968Y-77494617D01*
X112176971Y-77494615D01*
X112281892Y-77350201D01*
X112297287Y-77329012D01*
X112390220Y-77146621D01*
X112453477Y-76951936D01*
X112485500Y-76749754D01*
X112485500Y-76545050D01*
X112455821Y-76357669D01*
X112453477Y-76342867D01*
X112422491Y-76247502D01*
X114223000Y-76247502D01*
X115725000Y-76247502D01*
X116723000Y-76247502D01*
X117573717Y-76247502D01*
X117586244Y-76168412D01*
X117590786Y-76149492D01*
X117646722Y-75977337D01*
X117654168Y-75959360D01*
X117736347Y-75798076D01*
X117746514Y-75781486D01*
X117852911Y-75635042D01*
X117865548Y-75620246D01*
X117993544Y-75492250D01*
X118008340Y-75479613D01*
X118154784Y-75373216D01*
X118171374Y-75363049D01*
X118225000Y-75335724D01*
X118225000Y-75245102D01*
X119223000Y-75245102D01*
X119310165Y-75273424D01*
X119328142Y-75280870D01*
X119489426Y-75363049D01*
X119506016Y-75373216D01*
X119652460Y-75479613D01*
X119667256Y-75492250D01*
X119795252Y-75620246D01*
X119807889Y-75635042D01*
X119914286Y-75781486D01*
X119924453Y-75798076D01*
X120006632Y-75959360D01*
X120014078Y-75977337D01*
X120070014Y-76149492D01*
X120074556Y-76168412D01*
X120087083Y-76247502D01*
X120725000Y-76247502D01*
X121723000Y-76247502D01*
X123225000Y-76247502D01*
X124223000Y-76247502D01*
X125725000Y-76247502D01*
X126723000Y-76247502D01*
X128225000Y-76247502D01*
X129223000Y-76247502D01*
X129653321Y-76247502D01*
X129656826Y-76232670D01*
X129658842Y-76225191D01*
X129672450Y-76180328D01*
X129674929Y-76172988D01*
X129748587Y-75975498D01*
X129751975Y-75967318D01*
X129774233Y-75918581D01*
X129778195Y-75910667D01*
X129812372Y-75848077D01*
X129816890Y-75840463D01*
X129845854Y-75795396D01*
X129850902Y-75788126D01*
X129979886Y-75615827D01*
X129985439Y-75608936D01*
X130020519Y-75568451D01*
X130026551Y-75561972D01*
X130076972Y-75511551D01*
X130083451Y-75505519D01*
X130123936Y-75470439D01*
X130130827Y-75464886D01*
X130303126Y-75335902D01*
X130310396Y-75330854D01*
X130355463Y-75301890D01*
X130363077Y-75297372D01*
X130425667Y-75263195D01*
X130433581Y-75259233D01*
X130482318Y-75236975D01*
X130490498Y-75233587D01*
X130687982Y-75159931D01*
X130695321Y-75157452D01*
X130725000Y-75148449D01*
X130725000Y-74745502D01*
X129223000Y-74745502D01*
X129223000Y-76247502D01*
X128225000Y-76247502D01*
X128225000Y-74745502D01*
X126723000Y-74745502D01*
X126723000Y-76247502D01*
X125725000Y-76247502D01*
X125725000Y-74745502D01*
X124223000Y-74745502D01*
X124223000Y-76247502D01*
X123225000Y-76247502D01*
X123225000Y-74745502D01*
X121723000Y-74745502D01*
X121723000Y-76247502D01*
X120725000Y-76247502D01*
X120725000Y-74745502D01*
X119223000Y-74745502D01*
X119223000Y-75245102D01*
X118225000Y-75245102D01*
X118225000Y-74745502D01*
X116723000Y-74745502D01*
X116723000Y-76247502D01*
X115725000Y-76247502D01*
X115725000Y-74745502D01*
X114223000Y-74745502D01*
X114223000Y-76247502D01*
X112422491Y-76247502D01*
X112420851Y-76242455D01*
X112390220Y-76148183D01*
X112390218Y-76148180D01*
X112390218Y-76148178D01*
X112338865Y-76047393D01*
X112297287Y-75965792D01*
X112281892Y-75944602D01*
X112176971Y-75800188D01*
X112032221Y-75655438D01*
X112032219Y-75655436D01*
X111963613Y-75605590D01*
X111920949Y-75550262D01*
X111912500Y-75505274D01*
X111912500Y-73747502D01*
X114223000Y-73747502D01*
X115725000Y-73747502D01*
X116723000Y-73747502D01*
X118225000Y-73747502D01*
X119223000Y-73747502D01*
X120725000Y-73747502D01*
X121723000Y-73747502D01*
X123225000Y-73747502D01*
X124223000Y-73747502D01*
X125725000Y-73747502D01*
X126723000Y-73747502D01*
X128225000Y-73747502D01*
X129223000Y-73747502D01*
X130725000Y-73747502D01*
X130725000Y-72245502D01*
X129223000Y-72245502D01*
X129223000Y-73747502D01*
X128225000Y-73747502D01*
X128225000Y-72245502D01*
X126723000Y-72245502D01*
X126723000Y-73747502D01*
X125725000Y-73747502D01*
X125725000Y-72245502D01*
X124223000Y-72245502D01*
X124223000Y-73747502D01*
X123225000Y-73747502D01*
X123225000Y-72245502D01*
X121723000Y-72245502D01*
X121723000Y-73747502D01*
X120725000Y-73747502D01*
X120725000Y-72245502D01*
X119223000Y-72245502D01*
X119223000Y-73747502D01*
X118225000Y-73747502D01*
X118225000Y-72245502D01*
X116723000Y-72245502D01*
X116723000Y-73747502D01*
X115725000Y-73747502D01*
X115725000Y-72245502D01*
X114223000Y-72245502D01*
X114223000Y-73747502D01*
X111912500Y-73747502D01*
X111912500Y-73430067D01*
X111932185Y-73363028D01*
X111933398Y-73361176D01*
X111940820Y-73350069D01*
X112021394Y-73229481D01*
X112081737Y-73083799D01*
X112112500Y-72929144D01*
X112112500Y-72771460D01*
X112112500Y-72771457D01*
X112112499Y-72771455D01*
X112106417Y-72740877D01*
X112081737Y-72616805D01*
X112049004Y-72537779D01*
X112021397Y-72471129D01*
X112021390Y-72471116D01*
X111933789Y-72340013D01*
X111933786Y-72340009D01*
X111822292Y-72228515D01*
X111822288Y-72228512D01*
X111691185Y-72140911D01*
X111691172Y-72140904D01*
X111545501Y-72080566D01*
X111545489Y-72080563D01*
X111390845Y-72049802D01*
X111390842Y-72049802D01*
X111233158Y-72049802D01*
X111233155Y-72049802D01*
X111078510Y-72080563D01*
X111078498Y-72080566D01*
X110932827Y-72140904D01*
X110932814Y-72140911D01*
X110801711Y-72228512D01*
X110801707Y-72228515D01*
X110690213Y-72340009D01*
X110690210Y-72340013D01*
X110602609Y-72471116D01*
X110602602Y-72471129D01*
X110542264Y-72616800D01*
X110542261Y-72616812D01*
X110511500Y-72771455D01*
X110511500Y-72929148D01*
X110542261Y-73083791D01*
X110542264Y-73083803D01*
X110602602Y-73229474D01*
X110602609Y-73229487D01*
X110690602Y-73361176D01*
X110711480Y-73427853D01*
X110711500Y-73430067D01*
X110711500Y-75353090D01*
X110691815Y-75420129D01*
X110643795Y-75463575D01*
X110503385Y-75535117D01*
X110337786Y-75655430D01*
X110193028Y-75800188D01*
X110072715Y-75965788D01*
X109979781Y-76148178D01*
X109916522Y-76342867D01*
X109884500Y-76545050D01*
X109884500Y-76749753D01*
X109916522Y-76951936D01*
X109979781Y-77146625D01*
X110072715Y-77329015D01*
X110193028Y-77494615D01*
X110193034Y-77494621D01*
X110337781Y-77639368D01*
X110503390Y-77759689D01*
X110516793Y-77766518D01*
X110567589Y-77814490D01*
X110584500Y-77877003D01*
X110584500Y-77894903D01*
X110564815Y-77961942D01*
X110548181Y-77982584D01*
X109560882Y-78969883D01*
X109499559Y-79003368D01*
X109473201Y-79006202D01*
X103865366Y-79006202D01*
X103798327Y-78986517D01*
X103796475Y-78985304D01*
X103664785Y-78897311D01*
X103664772Y-78897304D01*
X103519101Y-78836966D01*
X103519089Y-78836963D01*
X103364445Y-78806202D01*
X103364442Y-78806202D01*
X103206758Y-78806202D01*
X103206755Y-78806202D01*
X103052110Y-78836963D01*
X103052098Y-78836966D01*
X102906427Y-78897304D01*
X102906414Y-78897311D01*
X102775311Y-78984912D01*
X102775307Y-78984915D01*
X102663813Y-79096409D01*
X102663810Y-79096413D01*
X102576209Y-79227516D01*
X102576202Y-79227529D01*
X102515864Y-79373200D01*
X102515861Y-79373212D01*
X102485100Y-79527855D01*
X99872256Y-79527855D01*
X99827550Y-79495375D01*
X99638217Y-79398904D01*
X99436129Y-79333242D01*
X99226246Y-79300000D01*
X99013754Y-79300000D01*
X98803872Y-79333242D01*
X98803869Y-79333242D01*
X98601782Y-79398904D01*
X98412439Y-79495380D01*
X98358282Y-79534727D01*
X98358282Y-79534728D01*
X98990591Y-80167037D01*
X98927007Y-80184075D01*
X98812993Y-80249901D01*
X98719901Y-80342993D01*
X98654075Y-80457007D01*
X98637037Y-80520591D01*
X98004728Y-79888282D01*
X98004727Y-79888282D01*
X97965380Y-79942439D01*
X97868904Y-80131782D01*
X97803242Y-80333869D01*
X97803242Y-80333872D01*
X97770000Y-80543753D01*
X97770000Y-80756246D01*
X97803242Y-80966127D01*
X97803242Y-80966130D01*
X97868904Y-81168217D01*
X97965375Y-81357550D01*
X98004728Y-81411716D01*
X98637037Y-80779408D01*
X98654075Y-80842993D01*
X98719901Y-80957007D01*
X98812993Y-81050099D01*
X98927007Y-81115925D01*
X98990590Y-81132962D01*
X98320370Y-81803181D01*
X98259047Y-81836666D01*
X98232698Y-81839500D01*
X98222134Y-81839500D01*
X98222123Y-81839501D01*
X98162516Y-81845908D01*
X98027671Y-81896202D01*
X98027664Y-81896206D01*
X97912455Y-81982452D01*
X97912452Y-81982455D01*
X97826206Y-82097664D01*
X97826202Y-82097671D01*
X97775908Y-82232517D01*
X97769501Y-82292116D01*
X97769501Y-82292123D01*
X97769500Y-82292135D01*
X96600000Y-82292135D01*
X96600000Y-75976672D01*
X97769500Y-75976672D01*
X97769500Y-77772407D01*
X97769501Y-77772413D01*
X97775908Y-77832020D01*
X97826202Y-77966865D01*
X97826206Y-77966872D01*
X97912452Y-78082081D01*
X97912455Y-78082084D01*
X98027664Y-78168330D01*
X98027671Y-78168334D01*
X98162517Y-78218628D01*
X98162516Y-78218628D01*
X98169444Y-78219372D01*
X98222127Y-78225037D01*
X100017872Y-78225036D01*
X100077483Y-78218628D01*
X100212331Y-78168333D01*
X100327546Y-78082083D01*
X100382853Y-78008202D01*
X106723000Y-78008202D01*
X108225000Y-78008202D01*
X108225000Y-77245502D01*
X106723000Y-77245502D01*
X106723000Y-78008202D01*
X100382853Y-78008202D01*
X100413796Y-77966868D01*
X100464091Y-77832020D01*
X100470500Y-77772410D01*
X100470499Y-76047385D01*
X102264500Y-76047385D01*
X102264500Y-77247403D01*
X102264501Y-77247420D01*
X102275000Y-77350198D01*
X102275001Y-77350201D01*
X102322856Y-77494615D01*
X102330186Y-77516736D01*
X102422288Y-77666058D01*
X102546344Y-77790114D01*
X102695666Y-77882216D01*
X102862203Y-77937401D01*
X102964991Y-77947902D01*
X104165008Y-77947901D01*
X104267797Y-77937401D01*
X104434334Y-77882216D01*
X104583656Y-77790114D01*
X104707712Y-77666058D01*
X104799814Y-77516736D01*
X104854999Y-77350199D01*
X104865500Y-77247411D01*
X104865499Y-76247502D01*
X106723000Y-76247502D01*
X108225000Y-76247502D01*
X108225000Y-74745502D01*
X106723000Y-74745502D01*
X106723000Y-76247502D01*
X104865499Y-76247502D01*
X104865499Y-76047394D01*
X104854999Y-75944605D01*
X104799814Y-75778068D01*
X104707712Y-75628746D01*
X104583656Y-75504690D01*
X104434334Y-75412588D01*
X104267797Y-75357403D01*
X104267795Y-75357402D01*
X104165010Y-75346902D01*
X102964998Y-75346902D01*
X102964981Y-75346903D01*
X102862203Y-75357402D01*
X102862200Y-75357403D01*
X102695668Y-75412587D01*
X102695663Y-75412589D01*
X102546342Y-75504691D01*
X102422289Y-75628744D01*
X102330187Y-75778065D01*
X102330185Y-75778070D01*
X102328814Y-75782208D01*
X102275001Y-75944605D01*
X102275001Y-75944606D01*
X102275000Y-75944606D01*
X102264500Y-76047385D01*
X100470499Y-76047385D01*
X100470499Y-75976665D01*
X100464091Y-75917054D01*
X100438364Y-75848077D01*
X100413797Y-75782208D01*
X100413793Y-75782201D01*
X100327547Y-75666992D01*
X100327544Y-75666989D01*
X100212335Y-75580743D01*
X100212328Y-75580739D01*
X100077482Y-75530445D01*
X100077483Y-75530445D01*
X100017883Y-75524038D01*
X100017881Y-75524037D01*
X100017873Y-75524037D01*
X100017865Y-75524037D01*
X100007309Y-75524037D01*
X99940270Y-75504352D01*
X99919628Y-75487718D01*
X99249408Y-74817499D01*
X99312993Y-74800462D01*
X99427007Y-74734636D01*
X99520099Y-74641544D01*
X99585925Y-74527530D01*
X99602962Y-74463946D01*
X100235270Y-75096254D01*
X100235270Y-75096253D01*
X100274622Y-75042091D01*
X100371095Y-74852754D01*
X100436757Y-74650667D01*
X100436757Y-74650664D01*
X100470000Y-74440783D01*
X100470000Y-74228290D01*
X100436757Y-74018409D01*
X100436757Y-74018406D01*
X100371095Y-73816319D01*
X100336031Y-73747502D01*
X101723000Y-73747502D01*
X103225000Y-73747502D01*
X104223000Y-73747502D01*
X105725000Y-73747502D01*
X106723000Y-73747502D01*
X108225000Y-73747502D01*
X109223000Y-73747502D01*
X109713500Y-73747502D01*
X109713500Y-73683192D01*
X109710891Y-73678311D01*
X109708155Y-73672876D01*
X109692414Y-73639594D01*
X109689948Y-73634030D01*
X109610855Y-73443080D01*
X109608665Y-73437403D01*
X109596263Y-73402742D01*
X109594354Y-73396964D01*
X109580128Y-73350069D01*
X109578505Y-73344205D01*
X109569555Y-73308479D01*
X109568221Y-73302537D01*
X109527896Y-73099810D01*
X109526855Y-73093813D01*
X109521451Y-73057382D01*
X109520706Y-73051341D01*
X109515903Y-73002569D01*
X109515455Y-72996499D01*
X109513649Y-72959727D01*
X109513500Y-72953644D01*
X109513500Y-72746960D01*
X109513649Y-72740877D01*
X109515455Y-72704105D01*
X109515903Y-72698035D01*
X109520706Y-72649263D01*
X109521451Y-72643222D01*
X109526855Y-72606791D01*
X109527896Y-72600794D01*
X109568221Y-72398067D01*
X109569555Y-72392125D01*
X109578505Y-72356399D01*
X109580128Y-72350535D01*
X109594354Y-72303640D01*
X109596263Y-72297862D01*
X109608665Y-72263201D01*
X109610855Y-72257524D01*
X109615835Y-72245502D01*
X109223000Y-72245502D01*
X109223000Y-73747502D01*
X108225000Y-73747502D01*
X108225000Y-72245502D01*
X106723000Y-72245502D01*
X106723000Y-73747502D01*
X105725000Y-73747502D01*
X105725000Y-72245502D01*
X104223000Y-72245502D01*
X104223000Y-73747502D01*
X103225000Y-73747502D01*
X103225000Y-72245502D01*
X101723000Y-72245502D01*
X101723000Y-73747502D01*
X100336031Y-73747502D01*
X100274624Y-73626986D01*
X100235270Y-73572819D01*
X100235269Y-73572819D01*
X99602962Y-74205127D01*
X99585925Y-74141544D01*
X99520099Y-74027530D01*
X99427007Y-73934438D01*
X99312993Y-73868612D01*
X99249409Y-73851574D01*
X99881716Y-73219265D01*
X99827550Y-73179912D01*
X99638217Y-73083441D01*
X99436129Y-73017779D01*
X99226246Y-72984537D01*
X99013754Y-72984537D01*
X98803872Y-73017779D01*
X98803869Y-73017779D01*
X98601782Y-73083441D01*
X98412439Y-73179917D01*
X98358282Y-73219264D01*
X98358282Y-73219265D01*
X98990591Y-73851574D01*
X98927007Y-73868612D01*
X98812993Y-73934438D01*
X98719901Y-74027530D01*
X98654075Y-74141544D01*
X98637037Y-74205128D01*
X98004728Y-73572819D01*
X98004727Y-73572819D01*
X97965380Y-73626976D01*
X97868904Y-73816319D01*
X97803242Y-74018406D01*
X97803242Y-74018409D01*
X97770000Y-74228290D01*
X97770000Y-74440783D01*
X97803242Y-74650664D01*
X97803242Y-74650667D01*
X97868904Y-74852754D01*
X97965375Y-75042087D01*
X98004728Y-75096253D01*
X98637037Y-74463945D01*
X98654075Y-74527530D01*
X98719901Y-74641544D01*
X98812993Y-74734636D01*
X98927007Y-74800462D01*
X98990590Y-74817499D01*
X98320370Y-75487718D01*
X98259047Y-75521203D01*
X98232698Y-75524037D01*
X98222134Y-75524037D01*
X98222123Y-75524038D01*
X98162516Y-75530445D01*
X98027671Y-75580739D01*
X98027664Y-75580743D01*
X97912455Y-75666989D01*
X97912452Y-75666992D01*
X97826206Y-75782201D01*
X97826202Y-75782208D01*
X97775908Y-75917054D01*
X97771360Y-75959360D01*
X97769501Y-75976660D01*
X97769500Y-75976672D01*
X96600000Y-75976672D01*
X96600000Y-73078537D01*
X96619685Y-73011498D01*
X96672489Y-72965743D01*
X96724000Y-72954537D01*
X96895463Y-72954537D01*
X97152926Y-72697073D01*
X97193145Y-72670201D01*
X97239806Y-72650874D01*
X97435693Y-72537779D01*
X97615142Y-72400083D01*
X97775083Y-72240142D01*
X97912779Y-72060693D01*
X98025874Y-71864806D01*
X98112433Y-71655834D01*
X98170976Y-71437351D01*
X98200500Y-71213095D01*
X98200500Y-71165439D01*
X99223000Y-71165439D01*
X99223000Y-71247502D01*
X100725000Y-71247502D01*
X101723000Y-71247502D01*
X103225000Y-71247502D01*
X104223000Y-71247502D01*
X105725000Y-71247502D01*
X106723000Y-71247502D01*
X108225000Y-71247502D01*
X109223000Y-71247502D01*
X110487350Y-71247502D01*
X110489426Y-71246457D01*
X110522708Y-71230716D01*
X110528272Y-71228250D01*
X110719222Y-71149157D01*
X110724899Y-71146967D01*
X110725000Y-71146930D01*
X110725000Y-71098320D01*
X111723000Y-71098320D01*
X111764236Y-71106523D01*
X111770177Y-71107857D01*
X111805903Y-71116807D01*
X111811767Y-71118430D01*
X111858662Y-71132656D01*
X111864440Y-71134565D01*
X111899101Y-71146967D01*
X111904778Y-71149157D01*
X112095728Y-71228250D01*
X112101292Y-71230716D01*
X112134574Y-71246457D01*
X112136650Y-71247502D01*
X113225000Y-71247502D01*
X114223000Y-71247502D01*
X115725000Y-71247502D01*
X116723000Y-71247502D01*
X118225000Y-71247502D01*
X119223000Y-71247502D01*
X120725000Y-71247502D01*
X121723000Y-71247502D01*
X123225000Y-71247502D01*
X124223000Y-71247502D01*
X125725000Y-71247502D01*
X126723000Y-71247502D01*
X128225000Y-71247502D01*
X129223000Y-71247502D01*
X130725000Y-71247502D01*
X130725000Y-70621502D01*
X129223000Y-70621502D01*
X129223000Y-71247502D01*
X128225000Y-71247502D01*
X128225000Y-70621502D01*
X126723000Y-70621502D01*
X126723000Y-71247502D01*
X125725000Y-71247502D01*
X125725000Y-70621502D01*
X124223000Y-70621502D01*
X124223000Y-71247502D01*
X123225000Y-71247502D01*
X123225000Y-70621502D01*
X121723000Y-70621502D01*
X121723000Y-71247502D01*
X120725000Y-71247502D01*
X120725000Y-70621502D01*
X119223000Y-70621502D01*
X119223000Y-71247502D01*
X118225000Y-71247502D01*
X118225000Y-70621502D01*
X116723000Y-70621502D01*
X116723000Y-71247502D01*
X115725000Y-71247502D01*
X115725000Y-70621502D01*
X114223000Y-70621502D01*
X114223000Y-71247502D01*
X113225000Y-71247502D01*
X113225000Y-70621502D01*
X111723000Y-70621502D01*
X111723000Y-71098320D01*
X110725000Y-71098320D01*
X110725000Y-70621502D01*
X109223000Y-70621502D01*
X109223000Y-71247502D01*
X108225000Y-71247502D01*
X108225000Y-70621502D01*
X106723000Y-70621502D01*
X106723000Y-71247502D01*
X105725000Y-71247502D01*
X105725000Y-70621502D01*
X104223000Y-70621502D01*
X104223000Y-71247502D01*
X103225000Y-71247502D01*
X103225000Y-70621502D01*
X101723000Y-70621502D01*
X101723000Y-71247502D01*
X100725000Y-71247502D01*
X100725000Y-70621502D01*
X99766090Y-70621502D01*
X99223000Y-71165439D01*
X98200500Y-71165439D01*
X98200500Y-70986905D01*
X98170976Y-70762649D01*
X98161104Y-70725806D01*
X98162765Y-70655958D01*
X98193124Y-70606105D01*
X99263670Y-69533889D01*
X99324968Y-69500356D01*
X99351420Y-69497502D01*
X131246140Y-69497502D01*
X131313179Y-69517187D01*
G37*
%TD.AperFunction*%
%TA.AperFunction,Conductor*%
G36*
X133088681Y-78809468D02*
G01*
X133122166Y-78870791D01*
X133125000Y-78897150D01*
X133125000Y-79165045D01*
X133106565Y-79201875D01*
X133103490Y-79205061D01*
X132447962Y-79860590D01*
X132430925Y-79797007D01*
X132365099Y-79682993D01*
X132272007Y-79589901D01*
X132157993Y-79524075D01*
X132094409Y-79507037D01*
X132764627Y-78836818D01*
X132825950Y-78803333D01*
X132852307Y-78800499D01*
X132862872Y-78800499D01*
X132922483Y-78794091D01*
X132957668Y-78780967D01*
X133027358Y-78775984D01*
X133088681Y-78809468D01*
G37*
%TD.AperFunction*%
%TD*%
M02*
