%TF.GenerationSoftware,KiCad,Pcbnew,9.0.7*%
%TF.CreationDate,2026-02-17T16:38:21-05:00*%
%TF.ProjectId,Tiny solar supply,54696e79-2073-46f6-9c61-722073757070,rev?*%
%TF.SameCoordinates,Original*%
%TF.FileFunction,Legend,Top*%
%TF.FilePolarity,Positive*%
%FSLAX46Y46*%
G04 Gerber Fmt 4.6, Leading zero omitted, Abs format (unit mm)*
G04 Created by KiCad (PCBNEW 9.0.7) date 2026-02-17 16:38:21*
%MOMM*%
%LPD*%
G01*
G04 APERTURE LIST*
%ADD10C,0.100000*%
%ADD11C,0.150000*%
%ADD12C,0.120000*%
%ADD13C,0.152400*%
%ADD14C,0.127000*%
%ADD15C,0.200000*%
G04 APERTURE END LIST*
D10*
X112403884Y-70791466D02*
X113165789Y-70791466D01*
X112784836Y-71172419D02*
X112784836Y-70410514D01*
X101558800Y-77281830D02*
X101596895Y-77167544D01*
X101596895Y-77167544D02*
X101596895Y-76977068D01*
X101596895Y-76977068D02*
X101558800Y-76900877D01*
X101558800Y-76900877D02*
X101520704Y-76862782D01*
X101520704Y-76862782D02*
X101444514Y-76824687D01*
X101444514Y-76824687D02*
X101368323Y-76824687D01*
X101368323Y-76824687D02*
X101292133Y-76862782D01*
X101292133Y-76862782D02*
X101254038Y-76900877D01*
X101254038Y-76900877D02*
X101215942Y-76977068D01*
X101215942Y-76977068D02*
X101177847Y-77129449D01*
X101177847Y-77129449D02*
X101139752Y-77205639D01*
X101139752Y-77205639D02*
X101101657Y-77243734D01*
X101101657Y-77243734D02*
X101025466Y-77281830D01*
X101025466Y-77281830D02*
X100949276Y-77281830D01*
X100949276Y-77281830D02*
X100873085Y-77243734D01*
X100873085Y-77243734D02*
X100834990Y-77205639D01*
X100834990Y-77205639D02*
X100796895Y-77129449D01*
X100796895Y-77129449D02*
X100796895Y-76938972D01*
X100796895Y-76938972D02*
X100834990Y-76824687D01*
X100796895Y-76329448D02*
X100796895Y-76177067D01*
X100796895Y-76177067D02*
X100834990Y-76100877D01*
X100834990Y-76100877D02*
X100911180Y-76024686D01*
X100911180Y-76024686D02*
X101063561Y-75986591D01*
X101063561Y-75986591D02*
X101330228Y-75986591D01*
X101330228Y-75986591D02*
X101482609Y-76024686D01*
X101482609Y-76024686D02*
X101558800Y-76100877D01*
X101558800Y-76100877D02*
X101596895Y-76177067D01*
X101596895Y-76177067D02*
X101596895Y-76329448D01*
X101596895Y-76329448D02*
X101558800Y-76405639D01*
X101558800Y-76405639D02*
X101482609Y-76481829D01*
X101482609Y-76481829D02*
X101330228Y-76519925D01*
X101330228Y-76519925D02*
X101063561Y-76519925D01*
X101063561Y-76519925D02*
X100911180Y-76481829D01*
X100911180Y-76481829D02*
X100834990Y-76405639D01*
X100834990Y-76405639D02*
X100796895Y-76329448D01*
X101596895Y-75262782D02*
X101596895Y-75643734D01*
X101596895Y-75643734D02*
X100796895Y-75643734D01*
X101368323Y-75034211D02*
X101368323Y-74653258D01*
X101596895Y-75110401D02*
X100796895Y-74843734D01*
X100796895Y-74843734D02*
X101596895Y-74577068D01*
X101596895Y-73853258D02*
X101215942Y-74119925D01*
X101596895Y-74310401D02*
X100796895Y-74310401D01*
X100796895Y-74310401D02*
X100796895Y-74005639D01*
X100796895Y-74005639D02*
X100834990Y-73929449D01*
X100834990Y-73929449D02*
X100873085Y-73891354D01*
X100873085Y-73891354D02*
X100949276Y-73853258D01*
X100949276Y-73853258D02*
X101063561Y-73853258D01*
X101063561Y-73853258D02*
X101139752Y-73891354D01*
X101139752Y-73891354D02*
X101177847Y-73929449D01*
X101177847Y-73929449D02*
X101215942Y-74005639D01*
X101215942Y-74005639D02*
X101215942Y-74310401D01*
X102003884Y-70591466D02*
X102765789Y-70591466D01*
X102384836Y-70972419D02*
X102384836Y-70210514D01*
X101408659Y-81952993D02*
X101446754Y-81838707D01*
X101446754Y-81838707D02*
X101484850Y-81800612D01*
X101484850Y-81800612D02*
X101561040Y-81762516D01*
X101561040Y-81762516D02*
X101675326Y-81762516D01*
X101675326Y-81762516D02*
X101751516Y-81800612D01*
X101751516Y-81800612D02*
X101789612Y-81838707D01*
X101789612Y-81838707D02*
X101827707Y-81914897D01*
X101827707Y-81914897D02*
X101827707Y-82219659D01*
X101827707Y-82219659D02*
X101027707Y-82219659D01*
X101027707Y-82219659D02*
X101027707Y-81952993D01*
X101027707Y-81952993D02*
X101065802Y-81876802D01*
X101065802Y-81876802D02*
X101103897Y-81838707D01*
X101103897Y-81838707D02*
X101180088Y-81800612D01*
X101180088Y-81800612D02*
X101256278Y-81800612D01*
X101256278Y-81800612D02*
X101332469Y-81838707D01*
X101332469Y-81838707D02*
X101370564Y-81876802D01*
X101370564Y-81876802D02*
X101408659Y-81952993D01*
X101408659Y-81952993D02*
X101408659Y-82219659D01*
X101599135Y-81457755D02*
X101599135Y-81076802D01*
X101827707Y-81533945D02*
X101027707Y-81267278D01*
X101027707Y-81267278D02*
X101827707Y-81000612D01*
X101027707Y-80848231D02*
X101027707Y-80391088D01*
X101827707Y-80619660D02*
X101027707Y-80619660D01*
D11*
X99266666Y-71054819D02*
X99266666Y-71769104D01*
X99266666Y-71769104D02*
X99219047Y-71911961D01*
X99219047Y-71911961D02*
X99123809Y-72007200D01*
X99123809Y-72007200D02*
X98980952Y-72054819D01*
X98980952Y-72054819D02*
X98885714Y-72054819D01*
X100171428Y-71388152D02*
X100171428Y-72054819D01*
X99933333Y-71007200D02*
X99695238Y-71721485D01*
X99695238Y-71721485D02*
X100314285Y-71721485D01*
X124673333Y-84839482D02*
X124625714Y-84887102D01*
X124625714Y-84887102D02*
X124482857Y-84934721D01*
X124482857Y-84934721D02*
X124387619Y-84934721D01*
X124387619Y-84934721D02*
X124244762Y-84887102D01*
X124244762Y-84887102D02*
X124149524Y-84791863D01*
X124149524Y-84791863D02*
X124101905Y-84696625D01*
X124101905Y-84696625D02*
X124054286Y-84506149D01*
X124054286Y-84506149D02*
X124054286Y-84363292D01*
X124054286Y-84363292D02*
X124101905Y-84172816D01*
X124101905Y-84172816D02*
X124149524Y-84077578D01*
X124149524Y-84077578D02*
X124244762Y-83982340D01*
X124244762Y-83982340D02*
X124387619Y-83934721D01*
X124387619Y-83934721D02*
X124482857Y-83934721D01*
X124482857Y-83934721D02*
X124625714Y-83982340D01*
X124625714Y-83982340D02*
X124673333Y-84029959D01*
X125006667Y-83934721D02*
X125625714Y-83934721D01*
X125625714Y-83934721D02*
X125292381Y-84315673D01*
X125292381Y-84315673D02*
X125435238Y-84315673D01*
X125435238Y-84315673D02*
X125530476Y-84363292D01*
X125530476Y-84363292D02*
X125578095Y-84410911D01*
X125578095Y-84410911D02*
X125625714Y-84506149D01*
X125625714Y-84506149D02*
X125625714Y-84744244D01*
X125625714Y-84744244D02*
X125578095Y-84839482D01*
X125578095Y-84839482D02*
X125530476Y-84887102D01*
X125530476Y-84887102D02*
X125435238Y-84934721D01*
X125435238Y-84934721D02*
X125149524Y-84934721D01*
X125149524Y-84934721D02*
X125054286Y-84887102D01*
X125054286Y-84887102D02*
X125006667Y-84839482D01*
X134681666Y-73634819D02*
X134681666Y-74349104D01*
X134681666Y-74349104D02*
X134634047Y-74491961D01*
X134634047Y-74491961D02*
X134538809Y-74587200D01*
X134538809Y-74587200D02*
X134395952Y-74634819D01*
X134395952Y-74634819D02*
X134300714Y-74634819D01*
X135681666Y-74634819D02*
X135110238Y-74634819D01*
X135395952Y-74634819D02*
X135395952Y-73634819D01*
X135395952Y-73634819D02*
X135300714Y-73777676D01*
X135300714Y-73777676D02*
X135205476Y-73872914D01*
X135205476Y-73872914D02*
X135110238Y-73920533D01*
X124673333Y-81059482D02*
X124625714Y-81107102D01*
X124625714Y-81107102D02*
X124482857Y-81154721D01*
X124482857Y-81154721D02*
X124387619Y-81154721D01*
X124387619Y-81154721D02*
X124244762Y-81107102D01*
X124244762Y-81107102D02*
X124149524Y-81011863D01*
X124149524Y-81011863D02*
X124101905Y-80916625D01*
X124101905Y-80916625D02*
X124054286Y-80726149D01*
X124054286Y-80726149D02*
X124054286Y-80583292D01*
X124054286Y-80583292D02*
X124101905Y-80392816D01*
X124101905Y-80392816D02*
X124149524Y-80297578D01*
X124149524Y-80297578D02*
X124244762Y-80202340D01*
X124244762Y-80202340D02*
X124387619Y-80154721D01*
X124387619Y-80154721D02*
X124482857Y-80154721D01*
X124482857Y-80154721D02*
X124625714Y-80202340D01*
X124625714Y-80202340D02*
X124673333Y-80249959D01*
X125625714Y-81154721D02*
X125054286Y-81154721D01*
X125340000Y-81154721D02*
X125340000Y-80154721D01*
X125340000Y-80154721D02*
X125244762Y-80297578D01*
X125244762Y-80297578D02*
X125149524Y-80392816D01*
X125149524Y-80392816D02*
X125054286Y-80440435D01*
X104979761Y-80512459D02*
X104884523Y-80464840D01*
X104884523Y-80464840D02*
X104789285Y-80369602D01*
X104789285Y-80369602D02*
X104646428Y-80226744D01*
X104646428Y-80226744D02*
X104551190Y-80179125D01*
X104551190Y-80179125D02*
X104455952Y-80179125D01*
X104503571Y-80417221D02*
X104408333Y-80369602D01*
X104408333Y-80369602D02*
X104313095Y-80274363D01*
X104313095Y-80274363D02*
X104265476Y-80083887D01*
X104265476Y-80083887D02*
X104265476Y-79750554D01*
X104265476Y-79750554D02*
X104313095Y-79560078D01*
X104313095Y-79560078D02*
X104408333Y-79464840D01*
X104408333Y-79464840D02*
X104503571Y-79417221D01*
X104503571Y-79417221D02*
X104694047Y-79417221D01*
X104694047Y-79417221D02*
X104789285Y-79464840D01*
X104789285Y-79464840D02*
X104884523Y-79560078D01*
X104884523Y-79560078D02*
X104932142Y-79750554D01*
X104932142Y-79750554D02*
X104932142Y-80083887D01*
X104932142Y-80083887D02*
X104884523Y-80274363D01*
X104884523Y-80274363D02*
X104789285Y-80369602D01*
X104789285Y-80369602D02*
X104694047Y-80417221D01*
X104694047Y-80417221D02*
X104503571Y-80417221D01*
X105884523Y-80417221D02*
X105313095Y-80417221D01*
X105598809Y-80417221D02*
X105598809Y-79417221D01*
X105598809Y-79417221D02*
X105503571Y-79560078D01*
X105503571Y-79560078D02*
X105408333Y-79655316D01*
X105408333Y-79655316D02*
X105313095Y-79702935D01*
X125275180Y-74788733D02*
X125275180Y-74312543D01*
X125275180Y-74312543D02*
X126275180Y-74312543D01*
X125275180Y-75645876D02*
X125275180Y-75074448D01*
X125275180Y-75360162D02*
X126275180Y-75360162D01*
X126275180Y-75360162D02*
X126132323Y-75264924D01*
X126132323Y-75264924D02*
X126037085Y-75169686D01*
X126037085Y-75169686D02*
X125989466Y-75074448D01*
X110018822Y-74056467D02*
X110018822Y-73269065D01*
X110018822Y-73269065D02*
X110206299Y-73269065D01*
X110206299Y-73269065D02*
X110318785Y-73306560D01*
X110318785Y-73306560D02*
X110393776Y-73381551D01*
X110393776Y-73381551D02*
X110431271Y-73456542D01*
X110431271Y-73456542D02*
X110468766Y-73606523D01*
X110468766Y-73606523D02*
X110468766Y-73719009D01*
X110468766Y-73719009D02*
X110431271Y-73868990D01*
X110431271Y-73868990D02*
X110393776Y-73943981D01*
X110393776Y-73943981D02*
X110318785Y-74018972D01*
X110318785Y-74018972D02*
X110206299Y-74056467D01*
X110206299Y-74056467D02*
X110018822Y-74056467D01*
X110768729Y-73344056D02*
X110806224Y-73306560D01*
X110806224Y-73306560D02*
X110881215Y-73269065D01*
X110881215Y-73269065D02*
X111068692Y-73269065D01*
X111068692Y-73269065D02*
X111143682Y-73306560D01*
X111143682Y-73306560D02*
X111181178Y-73344056D01*
X111181178Y-73344056D02*
X111218673Y-73419046D01*
X111218673Y-73419046D02*
X111218673Y-73494037D01*
X111218673Y-73494037D02*
X111181178Y-73606523D01*
X111181178Y-73606523D02*
X110731234Y-74056467D01*
X110731234Y-74056467D02*
X111218673Y-74056467D01*
X118518822Y-74341369D02*
X118518822Y-73553967D01*
X118518822Y-73553967D02*
X118706299Y-73553967D01*
X118706299Y-73553967D02*
X118818785Y-73591462D01*
X118818785Y-73591462D02*
X118893776Y-73666453D01*
X118893776Y-73666453D02*
X118931271Y-73741444D01*
X118931271Y-73741444D02*
X118968766Y-73891425D01*
X118968766Y-73891425D02*
X118968766Y-74003911D01*
X118968766Y-74003911D02*
X118931271Y-74153892D01*
X118931271Y-74153892D02*
X118893776Y-74228883D01*
X118893776Y-74228883D02*
X118818785Y-74303874D01*
X118818785Y-74303874D02*
X118706299Y-74341369D01*
X118706299Y-74341369D02*
X118518822Y-74341369D01*
X119718673Y-74341369D02*
X119268729Y-74341369D01*
X119493701Y-74341369D02*
X119493701Y-73553967D01*
X119493701Y-73553967D02*
X119418710Y-73666453D01*
X119418710Y-73666453D02*
X119343720Y-73741444D01*
X119343720Y-73741444D02*
X119268729Y-73778939D01*
X109333333Y-85033898D02*
X109000000Y-84557707D01*
X108761905Y-85033898D02*
X108761905Y-84033898D01*
X108761905Y-84033898D02*
X109142857Y-84033898D01*
X109142857Y-84033898D02*
X109238095Y-84081517D01*
X109238095Y-84081517D02*
X109285714Y-84129136D01*
X109285714Y-84129136D02*
X109333333Y-84224374D01*
X109333333Y-84224374D02*
X109333333Y-84367231D01*
X109333333Y-84367231D02*
X109285714Y-84462469D01*
X109285714Y-84462469D02*
X109238095Y-84510088D01*
X109238095Y-84510088D02*
X109142857Y-84557707D01*
X109142857Y-84557707D02*
X108761905Y-84557707D01*
X110190476Y-84367231D02*
X110190476Y-85033898D01*
X109952381Y-83986279D02*
X109714286Y-84700564D01*
X109714286Y-84700564D02*
X110333333Y-84700564D01*
X119753333Y-81184721D02*
X119420000Y-80708530D01*
X119181905Y-81184721D02*
X119181905Y-80184721D01*
X119181905Y-80184721D02*
X119562857Y-80184721D01*
X119562857Y-80184721D02*
X119658095Y-80232340D01*
X119658095Y-80232340D02*
X119705714Y-80279959D01*
X119705714Y-80279959D02*
X119753333Y-80375197D01*
X119753333Y-80375197D02*
X119753333Y-80518054D01*
X119753333Y-80518054D02*
X119705714Y-80613292D01*
X119705714Y-80613292D02*
X119658095Y-80660911D01*
X119658095Y-80660911D02*
X119562857Y-80708530D01*
X119562857Y-80708530D02*
X119181905Y-80708530D01*
X120705714Y-81184721D02*
X120134286Y-81184721D01*
X120420000Y-81184721D02*
X120420000Y-80184721D01*
X120420000Y-80184721D02*
X120324762Y-80327578D01*
X120324762Y-80327578D02*
X120229524Y-80422816D01*
X120229524Y-80422816D02*
X120134286Y-80470435D01*
X115363095Y-73754721D02*
X115363095Y-74564244D01*
X115363095Y-74564244D02*
X115410714Y-74659482D01*
X115410714Y-74659482D02*
X115458333Y-74707102D01*
X115458333Y-74707102D02*
X115553571Y-74754721D01*
X115553571Y-74754721D02*
X115744047Y-74754721D01*
X115744047Y-74754721D02*
X115839285Y-74707102D01*
X115839285Y-74707102D02*
X115886904Y-74659482D01*
X115886904Y-74659482D02*
X115934523Y-74564244D01*
X115934523Y-74564244D02*
X115934523Y-73754721D01*
X116934523Y-74754721D02*
X116363095Y-74754721D01*
X116648809Y-74754721D02*
X116648809Y-73754721D01*
X116648809Y-73754721D02*
X116553571Y-73897578D01*
X116553571Y-73897578D02*
X116458333Y-73992816D01*
X116458333Y-73992816D02*
X116363095Y-74040435D01*
X118889999Y-78945082D02*
X118889999Y-78706987D01*
X119128094Y-78802225D02*
X118889999Y-78706987D01*
X118889999Y-78706987D02*
X118651904Y-78802225D01*
X119032856Y-78516511D02*
X118889999Y-78706987D01*
X118889999Y-78706987D02*
X118747142Y-78516511D01*
X110010833Y-81084721D02*
X109677500Y-80608530D01*
X109439405Y-81084721D02*
X109439405Y-80084721D01*
X109439405Y-80084721D02*
X109820357Y-80084721D01*
X109820357Y-80084721D02*
X109915595Y-80132340D01*
X109915595Y-80132340D02*
X109963214Y-80179959D01*
X109963214Y-80179959D02*
X110010833Y-80275197D01*
X110010833Y-80275197D02*
X110010833Y-80418054D01*
X110010833Y-80418054D02*
X109963214Y-80513292D01*
X109963214Y-80513292D02*
X109915595Y-80560911D01*
X109915595Y-80560911D02*
X109820357Y-80608530D01*
X109820357Y-80608530D02*
X109439405Y-80608530D01*
X110344167Y-80084721D02*
X110963214Y-80084721D01*
X110963214Y-80084721D02*
X110629881Y-80465673D01*
X110629881Y-80465673D02*
X110772738Y-80465673D01*
X110772738Y-80465673D02*
X110867976Y-80513292D01*
X110867976Y-80513292D02*
X110915595Y-80560911D01*
X110915595Y-80560911D02*
X110963214Y-80656149D01*
X110963214Y-80656149D02*
X110963214Y-80894244D01*
X110963214Y-80894244D02*
X110915595Y-80989482D01*
X110915595Y-80989482D02*
X110867976Y-81037102D01*
X110867976Y-81037102D02*
X110772738Y-81084721D01*
X110772738Y-81084721D02*
X110487024Y-81084721D01*
X110487024Y-81084721D02*
X110391786Y-81037102D01*
X110391786Y-81037102D02*
X110344167Y-80989482D01*
X114133333Y-81154819D02*
X113800000Y-80678628D01*
X113561905Y-81154819D02*
X113561905Y-80154819D01*
X113561905Y-80154819D02*
X113942857Y-80154819D01*
X113942857Y-80154819D02*
X114038095Y-80202438D01*
X114038095Y-80202438D02*
X114085714Y-80250057D01*
X114085714Y-80250057D02*
X114133333Y-80345295D01*
X114133333Y-80345295D02*
X114133333Y-80488152D01*
X114133333Y-80488152D02*
X114085714Y-80583390D01*
X114085714Y-80583390D02*
X114038095Y-80631009D01*
X114038095Y-80631009D02*
X113942857Y-80678628D01*
X113942857Y-80678628D02*
X113561905Y-80678628D01*
X114514286Y-80250057D02*
X114561905Y-80202438D01*
X114561905Y-80202438D02*
X114657143Y-80154819D01*
X114657143Y-80154819D02*
X114895238Y-80154819D01*
X114895238Y-80154819D02*
X114990476Y-80202438D01*
X114990476Y-80202438D02*
X115038095Y-80250057D01*
X115038095Y-80250057D02*
X115085714Y-80345295D01*
X115085714Y-80345295D02*
X115085714Y-80440533D01*
X115085714Y-80440533D02*
X115038095Y-80583390D01*
X115038095Y-80583390D02*
X114466667Y-81154819D01*
X114466667Y-81154819D02*
X115085714Y-81154819D01*
X106916666Y-79354721D02*
X106916666Y-80069006D01*
X106916666Y-80069006D02*
X106869047Y-80211863D01*
X106869047Y-80211863D02*
X106773809Y-80307102D01*
X106773809Y-80307102D02*
X106630952Y-80354721D01*
X106630952Y-80354721D02*
X106535714Y-80354721D01*
X107297619Y-79354721D02*
X107916666Y-79354721D01*
X107916666Y-79354721D02*
X107583333Y-79735673D01*
X107583333Y-79735673D02*
X107726190Y-79735673D01*
X107726190Y-79735673D02*
X107821428Y-79783292D01*
X107821428Y-79783292D02*
X107869047Y-79830911D01*
X107869047Y-79830911D02*
X107916666Y-79926149D01*
X107916666Y-79926149D02*
X107916666Y-80164244D01*
X107916666Y-80164244D02*
X107869047Y-80259482D01*
X107869047Y-80259482D02*
X107821428Y-80307102D01*
X107821428Y-80307102D02*
X107726190Y-80354721D01*
X107726190Y-80354721D02*
X107440476Y-80354721D01*
X107440476Y-80354721D02*
X107345238Y-80307102D01*
X107345238Y-80307102D02*
X107297619Y-80259482D01*
X98856666Y-86009746D02*
X98856666Y-86724031D01*
X98856666Y-86724031D02*
X98809047Y-86866888D01*
X98809047Y-86866888D02*
X98713809Y-86962127D01*
X98713809Y-86962127D02*
X98570952Y-87009746D01*
X98570952Y-87009746D02*
X98475714Y-87009746D01*
X99285238Y-86104984D02*
X99332857Y-86057365D01*
X99332857Y-86057365D02*
X99428095Y-86009746D01*
X99428095Y-86009746D02*
X99666190Y-86009746D01*
X99666190Y-86009746D02*
X99761428Y-86057365D01*
X99761428Y-86057365D02*
X99809047Y-86104984D01*
X99809047Y-86104984D02*
X99856666Y-86200222D01*
X99856666Y-86200222D02*
X99856666Y-86295460D01*
X99856666Y-86295460D02*
X99809047Y-86438317D01*
X99809047Y-86438317D02*
X99237619Y-87009746D01*
X99237619Y-87009746D02*
X99856666Y-87009746D01*
X116754583Y-84669482D02*
X116706964Y-84717102D01*
X116706964Y-84717102D02*
X116564107Y-84764721D01*
X116564107Y-84764721D02*
X116468869Y-84764721D01*
X116468869Y-84764721D02*
X116326012Y-84717102D01*
X116326012Y-84717102D02*
X116230774Y-84621863D01*
X116230774Y-84621863D02*
X116183155Y-84526625D01*
X116183155Y-84526625D02*
X116135536Y-84336149D01*
X116135536Y-84336149D02*
X116135536Y-84193292D01*
X116135536Y-84193292D02*
X116183155Y-84002816D01*
X116183155Y-84002816D02*
X116230774Y-83907578D01*
X116230774Y-83907578D02*
X116326012Y-83812340D01*
X116326012Y-83812340D02*
X116468869Y-83764721D01*
X116468869Y-83764721D02*
X116564107Y-83764721D01*
X116564107Y-83764721D02*
X116706964Y-83812340D01*
X116706964Y-83812340D02*
X116754583Y-83859959D01*
X117135536Y-83859959D02*
X117183155Y-83812340D01*
X117183155Y-83812340D02*
X117278393Y-83764721D01*
X117278393Y-83764721D02*
X117516488Y-83764721D01*
X117516488Y-83764721D02*
X117611726Y-83812340D01*
X117611726Y-83812340D02*
X117659345Y-83859959D01*
X117659345Y-83859959D02*
X117706964Y-83955197D01*
X117706964Y-83955197D02*
X117706964Y-84050435D01*
X117706964Y-84050435D02*
X117659345Y-84193292D01*
X117659345Y-84193292D02*
X117087917Y-84764721D01*
X117087917Y-84764721D02*
X117706964Y-84764721D01*
%TO.C,J4*%
D12*
X97730000Y-78254537D02*
X94970000Y-78254537D01*
X94970000Y-72954537D01*
X97730000Y-72954537D01*
X97730000Y-78254537D01*
X94970000Y-77304537D02*
X88970000Y-77304537D01*
X88970000Y-76444537D01*
X94970000Y-76444537D01*
X94970000Y-77304537D01*
G36*
X94970000Y-77304537D02*
G01*
X88970000Y-77304537D01*
X88970000Y-76444537D01*
X94970000Y-76444537D01*
X94970000Y-77304537D01*
G37*
X100390000Y-78144537D02*
X99120000Y-78144537D01*
X100390000Y-76874537D02*
X100390000Y-78144537D01*
X98042642Y-74764537D02*
X97730000Y-74764537D01*
X98042642Y-73904537D02*
X97730000Y-73904537D01*
X97960000Y-77304537D02*
X97730000Y-77304537D01*
X97960000Y-76444537D02*
X97730000Y-76444537D01*
X97730000Y-75604537D02*
X94970000Y-75604537D01*
X94970000Y-74764537D02*
X88970000Y-74764537D01*
X88970000Y-74764537D02*
X88970000Y-73904537D01*
X88970000Y-73904537D02*
X94970000Y-73904537D01*
%TO.C,C3*%
X124578748Y-85424902D02*
X125101252Y-85424902D01*
X124578748Y-86894902D02*
X125101252Y-86894902D01*
%TO.C,J1*%
X130695000Y-76180000D02*
X131965000Y-76180000D01*
X130695000Y-77450000D02*
X130695000Y-76180000D01*
X133042358Y-79560000D02*
X133355000Y-79560000D01*
X133042358Y-80420000D02*
X133355000Y-80420000D01*
X133125000Y-77020000D02*
X133355000Y-77020000D01*
X133125000Y-77880000D02*
X133355000Y-77880000D01*
X133355000Y-78720000D02*
X136115000Y-78720000D01*
X136115000Y-79560000D02*
X142115000Y-79560000D01*
X142115000Y-79560000D02*
X142115000Y-80420000D01*
X142115000Y-80420000D02*
X136115000Y-80420000D01*
X133355000Y-76070000D02*
X136115000Y-76070000D01*
X136115000Y-81370000D01*
X133355000Y-81370000D01*
X133355000Y-76070000D01*
X136115000Y-77020000D02*
X142115000Y-77020000D01*
X142115000Y-77880000D01*
X136115000Y-77880000D01*
X136115000Y-77020000D01*
G36*
X136115000Y-77020000D02*
G01*
X142115000Y-77020000D01*
X142115000Y-77880000D01*
X136115000Y-77880000D01*
X136115000Y-77020000D01*
G37*
%TO.C,C1*%
X124578748Y-81644902D02*
X125101252Y-81644902D01*
X124578748Y-83114902D02*
X125101252Y-83114902D01*
%TO.C,Q1*%
X104315000Y-80802402D02*
X105835000Y-80802402D01*
X104315000Y-80852402D02*
X104315000Y-80802402D01*
X104315000Y-82752402D02*
X104315000Y-81972402D01*
X104315000Y-83922402D02*
X104315000Y-83872402D01*
X105835000Y-80802402D02*
X105835000Y-81802402D01*
X105835000Y-82922402D02*
X105835000Y-83922402D01*
X105835000Y-83922402D02*
X104315000Y-83922402D01*
X104015000Y-82312402D02*
X103535000Y-82312402D01*
X103775000Y-81982402D01*
X104015000Y-82312402D01*
G36*
X104015000Y-82312402D02*
G01*
X103535000Y-82312402D01*
X103775000Y-81982402D01*
X104015000Y-82312402D01*
G37*
D13*
%TO.C,L1*%
X122174000Y-71081900D02*
X122174000Y-78828900D01*
X122174000Y-78828900D02*
X123746260Y-78828900D01*
X123746260Y-71081900D02*
X122174000Y-71081900D01*
X127713740Y-78828900D02*
X129286000Y-78828900D01*
X129286000Y-71081900D02*
X127713740Y-71081900D01*
X129286000Y-78828900D02*
X129286000Y-71081900D01*
X125806200Y-69938900D02*
G75*
G02*
X125653800Y-69938900I-76200J0D01*
G01*
X125653800Y-69938900D02*
G75*
G02*
X125806200Y-69938900I76200J0D01*
G01*
D14*
%TO.C,D2*%
X104405000Y-70287402D02*
X104405000Y-70497402D01*
X104405000Y-72637402D02*
X104405000Y-72847402D01*
X104405000Y-72847402D02*
X108735000Y-72847402D01*
X108735000Y-70287402D02*
X104405000Y-70287402D01*
X108735000Y-70287402D02*
X108735000Y-70497402D01*
X108735000Y-72847402D02*
X108735000Y-72637402D01*
D15*
X110670000Y-71567402D02*
G75*
G02*
X110470000Y-71567402I-100000J0D01*
G01*
X110470000Y-71567402D02*
G75*
G02*
X110670000Y-71567402I100000J0D01*
G01*
D14*
%TO.C,D1*%
X114525000Y-70274902D02*
X114525000Y-70484902D01*
X114525000Y-72624902D02*
X114525000Y-72834902D01*
X114525000Y-72834902D02*
X118855000Y-72834902D01*
X118855000Y-70274902D02*
X114525000Y-70274902D01*
X118855000Y-70274902D02*
X118855000Y-70484902D01*
X118855000Y-72834902D02*
X118855000Y-72624902D01*
D15*
X120790000Y-71554902D02*
G75*
G02*
X120590000Y-71554902I-100000J0D01*
G01*
X120590000Y-71554902D02*
G75*
G02*
X120790000Y-71554902I100000J0D01*
G01*
D12*
%TO.C,R4*%
X110045436Y-85424902D02*
X110499564Y-85424902D01*
X110045436Y-86894902D02*
X110499564Y-86894902D01*
%TO.C,R1*%
X120092064Y-81644902D02*
X119637936Y-81644902D01*
X120092064Y-83114902D02*
X119637936Y-83114902D01*
D13*
%TO.C,U1*%
X115268050Y-76617040D02*
X115268050Y-77292762D01*
X115268050Y-78529701D02*
X117071450Y-78529701D01*
X117071450Y-75380101D02*
X115268050Y-75380101D01*
D12*
%TO.C,R3*%
X110499564Y-81644902D02*
X110045436Y-81644902D01*
X110499564Y-83114902D02*
X110045436Y-83114902D01*
%TO.C,R2*%
X115117064Y-81644902D02*
X114662936Y-81644902D01*
X115117064Y-83114902D02*
X114662936Y-83114902D01*
%TO.C,J3*%
X103725000Y-74297402D02*
X103725000Y-75607402D01*
X103725000Y-74297402D02*
X105108000Y-74297402D01*
X103965000Y-74537402D02*
X103965000Y-75607402D01*
X103965000Y-74537402D02*
X110785000Y-74537402D01*
X103965000Y-77687402D02*
X103965000Y-78757402D01*
X103965000Y-78757402D02*
X110785000Y-78757402D01*
X106771667Y-76012402D02*
X106771667Y-77282402D01*
X110785000Y-74537402D02*
X110785000Y-75687402D01*
X110785000Y-77607402D02*
X110785000Y-78757402D01*
X105565000Y-76012402D02*
X106771667Y-76012402D01*
X106771667Y-77282402D01*
X105565000Y-77282402D01*
X105565000Y-76012402D01*
G36*
X105565000Y-76012402D02*
G01*
X106771667Y-76012402D01*
X106771667Y-77282402D01*
X105565000Y-77282402D01*
X105565000Y-76012402D01*
G37*
X105565000Y-76012402D02*
X109185000Y-76012402D01*
X109185000Y-77282402D01*
X105565000Y-77282402D01*
X105565000Y-76012402D01*
%TO.C,J2*%
X88970000Y-80220000D02*
X94970000Y-80220000D01*
X88970000Y-81080000D02*
X88970000Y-80220000D01*
X94970000Y-81080000D02*
X88970000Y-81080000D01*
X97730000Y-81920000D02*
X94970000Y-81920000D01*
X97960000Y-82760000D02*
X97730000Y-82760000D01*
X97960000Y-83620000D02*
X97730000Y-83620000D01*
X98042642Y-80220000D02*
X97730000Y-80220000D01*
X98042642Y-81080000D02*
X97730000Y-81080000D01*
X100390000Y-83190000D02*
X100390000Y-84460000D01*
X100390000Y-84460000D02*
X99120000Y-84460000D01*
X94970000Y-83620000D02*
X88970000Y-83620000D01*
X88970000Y-82760000D01*
X94970000Y-82760000D01*
X94970000Y-83620000D01*
G36*
X94970000Y-83620000D02*
G01*
X88970000Y-83620000D01*
X88970000Y-82760000D01*
X94970000Y-82760000D01*
X94970000Y-83620000D01*
G37*
X97730000Y-84570000D02*
X94970000Y-84570000D01*
X94970000Y-79270000D01*
X97730000Y-79270000D01*
X97730000Y-84570000D01*
%TO.C,C2*%
X116209998Y-85249902D02*
X117632502Y-85249902D01*
X116209998Y-87069902D02*
X117632502Y-87069902D01*
%TD*%
M02*
