M48
; DRILL file {KiCad 9.0.7} date 2026-02-05T22:24:32-0500
; FORMAT={-:-/ absolute / inch / decimal}
; #@! TF.CreationDate,2026-02-05T22:24:32-05:00
; #@! TF.GenerationSoftware,Kicad,Pcbnew,9.0.7
; #@! TF.FileFunction,Plated,1,2,PTH
FMAT,2
INCH
; #@! TA.AperFunction,Plated,PTH,ViaDrill
T1C0.0118
; #@! TA.AperFunction,Plated,PTH,ComponentDrill
T2C0.0315
; #@! TA.AperFunction,Plated,PTH,ComponentDrill
T3C0.0394
%
G90
G05
T1
X4.0524Y-3.2961
X4.0664Y-3.1341
X4.2394Y-3.1815
X4.2394Y-3.3008
X4.3824Y-2.8681
X4.4404Y-3.3661
X4.5324Y-3.1141
X4.5913Y-3.3221
X4.6784Y-3.0101
X4.7324Y-3.3081
X4.7854Y-3.1512
X5.0364Y-3.3741
X5.0887Y-3.2385
T2
X4.0774Y-3.0176
X4.3774Y-3.0176
T3
X3.9024Y-2.9266
X3.9024Y-3.0266
X3.9024Y-3.1752
X3.9024Y-3.2752
X5.1955Y-3.0492
X5.1955Y-3.1492
M30
