%TF.GenerationSoftware,KiCad,Pcbnew,9.0.7*%
%TF.CreationDate,2026-02-05T22:24:32-05:00*%
%TF.ProjectId,Tiny solar supply,54696e79-2073-46f6-9c61-722073757070,rev?*%
%TF.SameCoordinates,Original*%
%TF.FileFunction,Legend,Bot*%
%TF.FilePolarity,Positive*%
%FSLAX46Y46*%
G04 Gerber Fmt 4.6, Leading zero omitted, Abs format (unit mm)*
G04 Created by KiCad (PCBNEW 9.0.7) date 2026-02-05 22:24:32*
%MOMM*%
%LPD*%
G01*
G04 APERTURE LIST*
G04 Aperture macros list*
%AMRoundRect*
0 Rectangle with rounded corners*
0 $1 Rounding radius*
0 $2 $3 $4 $5 $6 $7 $8 $9 X,Y pos of 4 corners*
0 Add a 4 corners polygon primitive as box body*
4,1,4,$2,$3,$4,$5,$6,$7,$8,$9,$2,$3,0*
0 Add four circle primitives for the rounded corners*
1,1,$1+$1,$2,$3*
1,1,$1+$1,$4,$5*
1,1,$1+$1,$6,$7*
1,1,$1+$1,$8,$9*
0 Add four rect primitives between the rounded corners*
20,1,$1+$1,$2,$3,$4,$5,0*
20,1,$1+$1,$4,$5,$6,$7,0*
20,1,$1+$1,$6,$7,$8,$9,0*
20,1,$1+$1,$8,$9,$2,$3,0*%
G04 Aperture macros list end*
%ADD10C,0.100000*%
%ADD11C,0.175000*%
%ADD12C,0.000000*%
%ADD13C,0.010000*%
%ADD14R,1.700000X1.700000*%
%ADD15C,1.700000*%
%ADD16RoundRect,0.250000X-0.550000X-0.550000X0.550000X-0.550000X0.550000X0.550000X-0.550000X0.550000X0*%
%ADD17C,1.600000*%
G04 APERTURE END LIST*
D10*
X103262782Y-79448609D02*
X103119925Y-79496228D01*
X103119925Y-79496228D02*
X103072306Y-79543847D01*
X103072306Y-79543847D02*
X103024687Y-79639085D01*
X103024687Y-79639085D02*
X103024687Y-79781942D01*
X103024687Y-79781942D02*
X103072306Y-79877180D01*
X103072306Y-79877180D02*
X103119925Y-79924800D01*
X103119925Y-79924800D02*
X103215163Y-79972419D01*
X103215163Y-79972419D02*
X103596115Y-79972419D01*
X103596115Y-79972419D02*
X103596115Y-78972419D01*
X103596115Y-78972419D02*
X103262782Y-78972419D01*
X103262782Y-78972419D02*
X103167544Y-79020038D01*
X103167544Y-79020038D02*
X103119925Y-79067657D01*
X103119925Y-79067657D02*
X103072306Y-79162895D01*
X103072306Y-79162895D02*
X103072306Y-79258133D01*
X103072306Y-79258133D02*
X103119925Y-79353371D01*
X103119925Y-79353371D02*
X103167544Y-79400990D01*
X103167544Y-79400990D02*
X103262782Y-79448609D01*
X103262782Y-79448609D02*
X103596115Y-79448609D01*
X102643734Y-79686704D02*
X102167544Y-79686704D01*
X102738972Y-79972419D02*
X102405639Y-78972419D01*
X102405639Y-78972419D02*
X102072306Y-79972419D01*
X101881829Y-78972419D02*
X101310401Y-78972419D01*
X101596115Y-79972419D02*
X101596115Y-78972419D01*
X105543734Y-74122202D02*
X105400877Y-74169821D01*
X105400877Y-74169821D02*
X105162782Y-74169821D01*
X105162782Y-74169821D02*
X105067544Y-74122202D01*
X105067544Y-74122202D02*
X105019925Y-74074582D01*
X105019925Y-74074582D02*
X104972306Y-73979344D01*
X104972306Y-73979344D02*
X104972306Y-73884106D01*
X104972306Y-73884106D02*
X105019925Y-73788868D01*
X105019925Y-73788868D02*
X105067544Y-73741249D01*
X105067544Y-73741249D02*
X105162782Y-73693630D01*
X105162782Y-73693630D02*
X105353258Y-73646011D01*
X105353258Y-73646011D02*
X105448496Y-73598392D01*
X105448496Y-73598392D02*
X105496115Y-73550773D01*
X105496115Y-73550773D02*
X105543734Y-73455535D01*
X105543734Y-73455535D02*
X105543734Y-73360297D01*
X105543734Y-73360297D02*
X105496115Y-73265059D01*
X105496115Y-73265059D02*
X105448496Y-73217440D01*
X105448496Y-73217440D02*
X105353258Y-73169821D01*
X105353258Y-73169821D02*
X105115163Y-73169821D01*
X105115163Y-73169821D02*
X104972306Y-73217440D01*
X104353258Y-73169821D02*
X104162782Y-73169821D01*
X104162782Y-73169821D02*
X104067544Y-73217440D01*
X104067544Y-73217440D02*
X103972306Y-73312678D01*
X103972306Y-73312678D02*
X103924687Y-73503154D01*
X103924687Y-73503154D02*
X103924687Y-73836487D01*
X103924687Y-73836487D02*
X103972306Y-74026963D01*
X103972306Y-74026963D02*
X104067544Y-74122202D01*
X104067544Y-74122202D02*
X104162782Y-74169821D01*
X104162782Y-74169821D02*
X104353258Y-74169821D01*
X104353258Y-74169821D02*
X104448496Y-74122202D01*
X104448496Y-74122202D02*
X104543734Y-74026963D01*
X104543734Y-74026963D02*
X104591353Y-73836487D01*
X104591353Y-73836487D02*
X104591353Y-73503154D01*
X104591353Y-73503154D02*
X104543734Y-73312678D01*
X104543734Y-73312678D02*
X104448496Y-73217440D01*
X104448496Y-73217440D02*
X104353258Y-73169821D01*
X103019925Y-74169821D02*
X103496115Y-74169821D01*
X103496115Y-74169821D02*
X103496115Y-73169821D01*
X102734210Y-73884106D02*
X102258020Y-73884106D01*
X102829448Y-74169821D02*
X102496115Y-73169821D01*
X102496115Y-73169821D02*
X102162782Y-74169821D01*
X101258020Y-74169821D02*
X101591353Y-73693630D01*
X101829448Y-74169821D02*
X101829448Y-73169821D01*
X101829448Y-73169821D02*
X101448496Y-73169821D01*
X101448496Y-73169821D02*
X101353258Y-73217440D01*
X101353258Y-73217440D02*
X101305639Y-73265059D01*
X101305639Y-73265059D02*
X101258020Y-73360297D01*
X101258020Y-73360297D02*
X101258020Y-73503154D01*
X101258020Y-73503154D02*
X101305639Y-73598392D01*
X101305639Y-73598392D02*
X101353258Y-73646011D01*
X101353258Y-73646011D02*
X101448496Y-73693630D01*
X101448496Y-73693630D02*
X101829448Y-73693630D01*
D11*
X131138678Y-69541175D02*
X130872011Y-70341175D01*
X130872011Y-70341175D02*
X130605345Y-69541175D01*
X129919631Y-70341175D02*
X130376774Y-70341175D01*
X130148202Y-70341175D02*
X130148202Y-69541175D01*
X130148202Y-69541175D02*
X130224393Y-69655460D01*
X130224393Y-69655460D02*
X130300583Y-69731651D01*
X130300583Y-69731651D02*
X130376774Y-69769746D01*
X130567249Y-71552939D02*
X130605345Y-71591035D01*
X130605345Y-71591035D02*
X130719630Y-71629130D01*
X130719630Y-71629130D02*
X130795821Y-71629130D01*
X130795821Y-71629130D02*
X130910107Y-71591035D01*
X130910107Y-71591035D02*
X130986297Y-71514844D01*
X130986297Y-71514844D02*
X131024392Y-71438654D01*
X131024392Y-71438654D02*
X131062488Y-71286273D01*
X131062488Y-71286273D02*
X131062488Y-71171987D01*
X131062488Y-71171987D02*
X131024392Y-71019606D01*
X131024392Y-71019606D02*
X130986297Y-70943415D01*
X130986297Y-70943415D02*
X130910107Y-70867225D01*
X130910107Y-70867225D02*
X130795821Y-70829130D01*
X130795821Y-70829130D02*
X130719630Y-70829130D01*
X130719630Y-70829130D02*
X130605345Y-70867225D01*
X130605345Y-70867225D02*
X130567249Y-70905320D01*
X130224392Y-71629130D02*
X130224392Y-70829130D01*
X129881536Y-71400558D02*
X129500583Y-71400558D01*
X129957726Y-71629130D02*
X129691059Y-70829130D01*
X129691059Y-70829130D02*
X129424393Y-71629130D01*
X129157726Y-71629130D02*
X129157726Y-70829130D01*
X129157726Y-70829130D02*
X128852964Y-70829130D01*
X128852964Y-70829130D02*
X128776774Y-70867225D01*
X128776774Y-70867225D02*
X128738679Y-70905320D01*
X128738679Y-70905320D02*
X128700583Y-70981511D01*
X128700583Y-70981511D02*
X128700583Y-71095796D01*
X128700583Y-71095796D02*
X128738679Y-71171987D01*
X128738679Y-71171987D02*
X128776774Y-71210082D01*
X128776774Y-71210082D02*
X128852964Y-71248177D01*
X128852964Y-71248177D02*
X129157726Y-71248177D01*
X127748202Y-71324368D02*
X127138679Y-71324368D01*
X126148202Y-70829130D02*
X126148202Y-71476749D01*
X126148202Y-71476749D02*
X126110107Y-71552939D01*
X126110107Y-71552939D02*
X126072012Y-71591035D01*
X126072012Y-71591035D02*
X125995821Y-71629130D01*
X125995821Y-71629130D02*
X125843440Y-71629130D01*
X125843440Y-71629130D02*
X125767250Y-71591035D01*
X125767250Y-71591035D02*
X125729155Y-71552939D01*
X125729155Y-71552939D02*
X125691059Y-71476749D01*
X125691059Y-71476749D02*
X125691059Y-70829130D01*
X124852964Y-71552939D02*
X124891060Y-71591035D01*
X124891060Y-71591035D02*
X125005345Y-71629130D01*
X125005345Y-71629130D02*
X125081536Y-71629130D01*
X125081536Y-71629130D02*
X125195822Y-71591035D01*
X125195822Y-71591035D02*
X125272012Y-71514844D01*
X125272012Y-71514844D02*
X125310107Y-71438654D01*
X125310107Y-71438654D02*
X125348203Y-71286273D01*
X125348203Y-71286273D02*
X125348203Y-71171987D01*
X125348203Y-71171987D02*
X125310107Y-71019606D01*
X125310107Y-71019606D02*
X125272012Y-70943415D01*
X125272012Y-70943415D02*
X125195822Y-70867225D01*
X125195822Y-70867225D02*
X125081536Y-70829130D01*
X125081536Y-70829130D02*
X125005345Y-70829130D01*
X125005345Y-70829130D02*
X124891060Y-70867225D01*
X124891060Y-70867225D02*
X124852964Y-70905320D01*
X124548203Y-71400558D02*
X124167250Y-71400558D01*
X124624393Y-71629130D02*
X124357726Y-70829130D01*
X124357726Y-70829130D02*
X124091060Y-71629130D01*
X123557727Y-71210082D02*
X123443441Y-71248177D01*
X123443441Y-71248177D02*
X123405346Y-71286273D01*
X123405346Y-71286273D02*
X123367250Y-71362463D01*
X123367250Y-71362463D02*
X123367250Y-71476749D01*
X123367250Y-71476749D02*
X123405346Y-71552939D01*
X123405346Y-71552939D02*
X123443441Y-71591035D01*
X123443441Y-71591035D02*
X123519631Y-71629130D01*
X123519631Y-71629130D02*
X123824393Y-71629130D01*
X123824393Y-71629130D02*
X123824393Y-70829130D01*
X123824393Y-70829130D02*
X123557727Y-70829130D01*
X123557727Y-70829130D02*
X123481536Y-70867225D01*
X123481536Y-70867225D02*
X123443441Y-70905320D01*
X123443441Y-70905320D02*
X123405346Y-70981511D01*
X123405346Y-70981511D02*
X123405346Y-71057701D01*
X123405346Y-71057701D02*
X123443441Y-71133892D01*
X123443441Y-71133892D02*
X123481536Y-71171987D01*
X123481536Y-71171987D02*
X123557727Y-71210082D01*
X123557727Y-71210082D02*
X123824393Y-71210082D01*
X131138678Y-72117085D02*
X130681535Y-72117085D01*
X130910107Y-72917085D02*
X130910107Y-72117085D01*
X130414868Y-72917085D02*
X130414868Y-72383751D01*
X130414868Y-72117085D02*
X130452964Y-72155180D01*
X130452964Y-72155180D02*
X130414868Y-72193275D01*
X130414868Y-72193275D02*
X130376773Y-72155180D01*
X130376773Y-72155180D02*
X130414868Y-72117085D01*
X130414868Y-72117085D02*
X130414868Y-72193275D01*
X130033916Y-72383751D02*
X130033916Y-72917085D01*
X130033916Y-72459942D02*
X129995821Y-72421847D01*
X129995821Y-72421847D02*
X129919631Y-72383751D01*
X129919631Y-72383751D02*
X129805345Y-72383751D01*
X129805345Y-72383751D02*
X129729154Y-72421847D01*
X129729154Y-72421847D02*
X129691059Y-72498037D01*
X129691059Y-72498037D02*
X129691059Y-72917085D01*
X129386297Y-72383751D02*
X129195821Y-72917085D01*
X129005344Y-72383751D02*
X129195821Y-72917085D01*
X129195821Y-72917085D02*
X129272011Y-73107561D01*
X129272011Y-73107561D02*
X129310106Y-73145656D01*
X129310106Y-73145656D02*
X129386297Y-73183751D01*
X128129154Y-72878990D02*
X128014868Y-72917085D01*
X128014868Y-72917085D02*
X127824392Y-72917085D01*
X127824392Y-72917085D02*
X127748201Y-72878990D01*
X127748201Y-72878990D02*
X127710106Y-72840894D01*
X127710106Y-72840894D02*
X127672011Y-72764704D01*
X127672011Y-72764704D02*
X127672011Y-72688513D01*
X127672011Y-72688513D02*
X127710106Y-72612323D01*
X127710106Y-72612323D02*
X127748201Y-72574228D01*
X127748201Y-72574228D02*
X127824392Y-72536132D01*
X127824392Y-72536132D02*
X127976773Y-72498037D01*
X127976773Y-72498037D02*
X128052963Y-72459942D01*
X128052963Y-72459942D02*
X128091058Y-72421847D01*
X128091058Y-72421847D02*
X128129154Y-72345656D01*
X128129154Y-72345656D02*
X128129154Y-72269466D01*
X128129154Y-72269466D02*
X128091058Y-72193275D01*
X128091058Y-72193275D02*
X128052963Y-72155180D01*
X128052963Y-72155180D02*
X127976773Y-72117085D01*
X127976773Y-72117085D02*
X127786296Y-72117085D01*
X127786296Y-72117085D02*
X127672011Y-72155180D01*
X127214868Y-72917085D02*
X127291058Y-72878990D01*
X127291058Y-72878990D02*
X127329153Y-72840894D01*
X127329153Y-72840894D02*
X127367249Y-72764704D01*
X127367249Y-72764704D02*
X127367249Y-72536132D01*
X127367249Y-72536132D02*
X127329153Y-72459942D01*
X127329153Y-72459942D02*
X127291058Y-72421847D01*
X127291058Y-72421847D02*
X127214868Y-72383751D01*
X127214868Y-72383751D02*
X127100582Y-72383751D01*
X127100582Y-72383751D02*
X127024391Y-72421847D01*
X127024391Y-72421847D02*
X126986296Y-72459942D01*
X126986296Y-72459942D02*
X126948201Y-72536132D01*
X126948201Y-72536132D02*
X126948201Y-72764704D01*
X126948201Y-72764704D02*
X126986296Y-72840894D01*
X126986296Y-72840894D02*
X127024391Y-72878990D01*
X127024391Y-72878990D02*
X127100582Y-72917085D01*
X127100582Y-72917085D02*
X127214868Y-72917085D01*
X126491058Y-72917085D02*
X126567248Y-72878990D01*
X126567248Y-72878990D02*
X126605343Y-72802799D01*
X126605343Y-72802799D02*
X126605343Y-72117085D01*
X125843438Y-72917085D02*
X125843438Y-72498037D01*
X125843438Y-72498037D02*
X125881533Y-72421847D01*
X125881533Y-72421847D02*
X125957724Y-72383751D01*
X125957724Y-72383751D02*
X126110105Y-72383751D01*
X126110105Y-72383751D02*
X126186295Y-72421847D01*
X125843438Y-72878990D02*
X125919629Y-72917085D01*
X125919629Y-72917085D02*
X126110105Y-72917085D01*
X126110105Y-72917085D02*
X126186295Y-72878990D01*
X126186295Y-72878990D02*
X126224391Y-72802799D01*
X126224391Y-72802799D02*
X126224391Y-72726609D01*
X126224391Y-72726609D02*
X126186295Y-72650418D01*
X126186295Y-72650418D02*
X126110105Y-72612323D01*
X126110105Y-72612323D02*
X125919629Y-72612323D01*
X125919629Y-72612323D02*
X125843438Y-72574228D01*
X125462485Y-72917085D02*
X125462485Y-72383751D01*
X125462485Y-72536132D02*
X125424390Y-72459942D01*
X125424390Y-72459942D02*
X125386295Y-72421847D01*
X125386295Y-72421847D02*
X125310104Y-72383751D01*
X125310104Y-72383751D02*
X125233914Y-72383751D01*
X124357723Y-72917085D02*
X124357723Y-72117085D01*
X124357723Y-72117085D02*
X124052961Y-72117085D01*
X124052961Y-72117085D02*
X123976771Y-72155180D01*
X123976771Y-72155180D02*
X123938676Y-72193275D01*
X123938676Y-72193275D02*
X123900580Y-72269466D01*
X123900580Y-72269466D02*
X123900580Y-72383751D01*
X123900580Y-72383751D02*
X123938676Y-72459942D01*
X123938676Y-72459942D02*
X123976771Y-72498037D01*
X123976771Y-72498037D02*
X124052961Y-72536132D01*
X124052961Y-72536132D02*
X124357723Y-72536132D01*
X123443438Y-72917085D02*
X123519628Y-72878990D01*
X123519628Y-72878990D02*
X123557723Y-72840894D01*
X123557723Y-72840894D02*
X123595819Y-72764704D01*
X123595819Y-72764704D02*
X123595819Y-72536132D01*
X123595819Y-72536132D02*
X123557723Y-72459942D01*
X123557723Y-72459942D02*
X123519628Y-72421847D01*
X123519628Y-72421847D02*
X123443438Y-72383751D01*
X123443438Y-72383751D02*
X123329152Y-72383751D01*
X123329152Y-72383751D02*
X123252961Y-72421847D01*
X123252961Y-72421847D02*
X123214866Y-72459942D01*
X123214866Y-72459942D02*
X123176771Y-72536132D01*
X123176771Y-72536132D02*
X123176771Y-72764704D01*
X123176771Y-72764704D02*
X123214866Y-72840894D01*
X123214866Y-72840894D02*
X123252961Y-72878990D01*
X123252961Y-72878990D02*
X123329152Y-72917085D01*
X123329152Y-72917085D02*
X123443438Y-72917085D01*
X122910104Y-72383751D02*
X122757723Y-72917085D01*
X122757723Y-72917085D02*
X122605342Y-72536132D01*
X122605342Y-72536132D02*
X122452961Y-72917085D01*
X122452961Y-72917085D02*
X122300580Y-72383751D01*
X121691056Y-72878990D02*
X121767247Y-72917085D01*
X121767247Y-72917085D02*
X121919628Y-72917085D01*
X121919628Y-72917085D02*
X121995818Y-72878990D01*
X121995818Y-72878990D02*
X122033914Y-72802799D01*
X122033914Y-72802799D02*
X122033914Y-72498037D01*
X122033914Y-72498037D02*
X121995818Y-72421847D01*
X121995818Y-72421847D02*
X121919628Y-72383751D01*
X121919628Y-72383751D02*
X121767247Y-72383751D01*
X121767247Y-72383751D02*
X121691056Y-72421847D01*
X121691056Y-72421847D02*
X121652961Y-72498037D01*
X121652961Y-72498037D02*
X121652961Y-72574228D01*
X121652961Y-72574228D02*
X122033914Y-72650418D01*
X121310104Y-72917085D02*
X121310104Y-72383751D01*
X121310104Y-72536132D02*
X121272009Y-72459942D01*
X121272009Y-72459942D02*
X121233914Y-72421847D01*
X121233914Y-72421847D02*
X121157723Y-72383751D01*
X121157723Y-72383751D02*
X121081533Y-72383751D01*
X120243438Y-72878990D02*
X120129152Y-72917085D01*
X120129152Y-72917085D02*
X119938676Y-72917085D01*
X119938676Y-72917085D02*
X119862485Y-72878990D01*
X119862485Y-72878990D02*
X119824390Y-72840894D01*
X119824390Y-72840894D02*
X119786295Y-72764704D01*
X119786295Y-72764704D02*
X119786295Y-72688513D01*
X119786295Y-72688513D02*
X119824390Y-72612323D01*
X119824390Y-72612323D02*
X119862485Y-72574228D01*
X119862485Y-72574228D02*
X119938676Y-72536132D01*
X119938676Y-72536132D02*
X120091057Y-72498037D01*
X120091057Y-72498037D02*
X120167247Y-72459942D01*
X120167247Y-72459942D02*
X120205342Y-72421847D01*
X120205342Y-72421847D02*
X120243438Y-72345656D01*
X120243438Y-72345656D02*
X120243438Y-72269466D01*
X120243438Y-72269466D02*
X120205342Y-72193275D01*
X120205342Y-72193275D02*
X120167247Y-72155180D01*
X120167247Y-72155180D02*
X120091057Y-72117085D01*
X120091057Y-72117085D02*
X119900580Y-72117085D01*
X119900580Y-72117085D02*
X119786295Y-72155180D01*
X119100580Y-72383751D02*
X119100580Y-72917085D01*
X119443437Y-72383751D02*
X119443437Y-72802799D01*
X119443437Y-72802799D02*
X119405342Y-72878990D01*
X119405342Y-72878990D02*
X119329152Y-72917085D01*
X119329152Y-72917085D02*
X119214866Y-72917085D01*
X119214866Y-72917085D02*
X119138675Y-72878990D01*
X119138675Y-72878990D02*
X119100580Y-72840894D01*
X118719627Y-72383751D02*
X118719627Y-73183751D01*
X118719627Y-72421847D02*
X118643437Y-72383751D01*
X118643437Y-72383751D02*
X118491056Y-72383751D01*
X118491056Y-72383751D02*
X118414865Y-72421847D01*
X118414865Y-72421847D02*
X118376770Y-72459942D01*
X118376770Y-72459942D02*
X118338675Y-72536132D01*
X118338675Y-72536132D02*
X118338675Y-72764704D01*
X118338675Y-72764704D02*
X118376770Y-72840894D01*
X118376770Y-72840894D02*
X118414865Y-72878990D01*
X118414865Y-72878990D02*
X118491056Y-72917085D01*
X118491056Y-72917085D02*
X118643437Y-72917085D01*
X118643437Y-72917085D02*
X118719627Y-72878990D01*
X117995817Y-72383751D02*
X117995817Y-73183751D01*
X117995817Y-72421847D02*
X117919627Y-72383751D01*
X117919627Y-72383751D02*
X117767246Y-72383751D01*
X117767246Y-72383751D02*
X117691055Y-72421847D01*
X117691055Y-72421847D02*
X117652960Y-72459942D01*
X117652960Y-72459942D02*
X117614865Y-72536132D01*
X117614865Y-72536132D02*
X117614865Y-72764704D01*
X117614865Y-72764704D02*
X117652960Y-72840894D01*
X117652960Y-72840894D02*
X117691055Y-72878990D01*
X117691055Y-72878990D02*
X117767246Y-72917085D01*
X117767246Y-72917085D02*
X117919627Y-72917085D01*
X117919627Y-72917085D02*
X117995817Y-72878990D01*
X117157722Y-72917085D02*
X117233912Y-72878990D01*
X117233912Y-72878990D02*
X117272007Y-72802799D01*
X117272007Y-72802799D02*
X117272007Y-72117085D01*
X116929150Y-72383751D02*
X116738674Y-72917085D01*
X116548197Y-72383751D02*
X116738674Y-72917085D01*
X116738674Y-72917085D02*
X116814864Y-73107561D01*
X116814864Y-73107561D02*
X116852959Y-73145656D01*
X116852959Y-73145656D02*
X116929150Y-73183751D01*
X130681535Y-74166945D02*
X130757726Y-74205040D01*
X130757726Y-74205040D02*
X130910107Y-74205040D01*
X130910107Y-74205040D02*
X130986297Y-74166945D01*
X130986297Y-74166945D02*
X131024392Y-74128849D01*
X131024392Y-74128849D02*
X131062488Y-74052659D01*
X131062488Y-74052659D02*
X131062488Y-73824087D01*
X131062488Y-73824087D02*
X131024392Y-73747897D01*
X131024392Y-73747897D02*
X130986297Y-73709802D01*
X130986297Y-73709802D02*
X130910107Y-73671706D01*
X130910107Y-73671706D02*
X130757726Y-73671706D01*
X130757726Y-73671706D02*
X130681535Y-73709802D01*
X130338678Y-74205040D02*
X130338678Y-73671706D01*
X130338678Y-73824087D02*
X130300583Y-73747897D01*
X130300583Y-73747897D02*
X130262488Y-73709802D01*
X130262488Y-73709802D02*
X130186297Y-73671706D01*
X130186297Y-73671706D02*
X130110107Y-73671706D01*
X129538678Y-74166945D02*
X129614869Y-74205040D01*
X129614869Y-74205040D02*
X129767250Y-74205040D01*
X129767250Y-74205040D02*
X129843440Y-74166945D01*
X129843440Y-74166945D02*
X129881536Y-74090754D01*
X129881536Y-74090754D02*
X129881536Y-73785992D01*
X129881536Y-73785992D02*
X129843440Y-73709802D01*
X129843440Y-73709802D02*
X129767250Y-73671706D01*
X129767250Y-73671706D02*
X129614869Y-73671706D01*
X129614869Y-73671706D02*
X129538678Y-73709802D01*
X129538678Y-73709802D02*
X129500583Y-73785992D01*
X129500583Y-73785992D02*
X129500583Y-73862183D01*
X129500583Y-73862183D02*
X129881536Y-73938373D01*
X128814869Y-74205040D02*
X128814869Y-73785992D01*
X128814869Y-73785992D02*
X128852964Y-73709802D01*
X128852964Y-73709802D02*
X128929155Y-73671706D01*
X128929155Y-73671706D02*
X129081536Y-73671706D01*
X129081536Y-73671706D02*
X129157726Y-73709802D01*
X128814869Y-74166945D02*
X128891060Y-74205040D01*
X128891060Y-74205040D02*
X129081536Y-74205040D01*
X129081536Y-74205040D02*
X129157726Y-74166945D01*
X129157726Y-74166945D02*
X129195822Y-74090754D01*
X129195822Y-74090754D02*
X129195822Y-74014564D01*
X129195822Y-74014564D02*
X129157726Y-73938373D01*
X129157726Y-73938373D02*
X129081536Y-73900278D01*
X129081536Y-73900278D02*
X128891060Y-73900278D01*
X128891060Y-73900278D02*
X128814869Y-73862183D01*
X128548202Y-73671706D02*
X128243440Y-73671706D01*
X128433916Y-73405040D02*
X128433916Y-74090754D01*
X128433916Y-74090754D02*
X128395821Y-74166945D01*
X128395821Y-74166945D02*
X128319631Y-74205040D01*
X128319631Y-74205040D02*
X128243440Y-74205040D01*
X127672011Y-74166945D02*
X127748202Y-74205040D01*
X127748202Y-74205040D02*
X127900583Y-74205040D01*
X127900583Y-74205040D02*
X127976773Y-74166945D01*
X127976773Y-74166945D02*
X128014869Y-74090754D01*
X128014869Y-74090754D02*
X128014869Y-73785992D01*
X128014869Y-73785992D02*
X127976773Y-73709802D01*
X127976773Y-73709802D02*
X127900583Y-73671706D01*
X127900583Y-73671706D02*
X127748202Y-73671706D01*
X127748202Y-73671706D02*
X127672011Y-73709802D01*
X127672011Y-73709802D02*
X127633916Y-73785992D01*
X127633916Y-73785992D02*
X127633916Y-73862183D01*
X127633916Y-73862183D02*
X128014869Y-73938373D01*
X126948202Y-74205040D02*
X126948202Y-73405040D01*
X126948202Y-74166945D02*
X127024393Y-74205040D01*
X127024393Y-74205040D02*
X127176774Y-74205040D01*
X127176774Y-74205040D02*
X127252964Y-74166945D01*
X127252964Y-74166945D02*
X127291059Y-74128849D01*
X127291059Y-74128849D02*
X127329155Y-74052659D01*
X127329155Y-74052659D02*
X127329155Y-73824087D01*
X127329155Y-73824087D02*
X127291059Y-73747897D01*
X127291059Y-73747897D02*
X127252964Y-73709802D01*
X127252964Y-73709802D02*
X127176774Y-73671706D01*
X127176774Y-73671706D02*
X127024393Y-73671706D01*
X127024393Y-73671706D02*
X126948202Y-73709802D01*
X125957725Y-74205040D02*
X125957725Y-73405040D01*
X125957725Y-73709802D02*
X125881535Y-73671706D01*
X125881535Y-73671706D02*
X125729154Y-73671706D01*
X125729154Y-73671706D02*
X125652963Y-73709802D01*
X125652963Y-73709802D02*
X125614868Y-73747897D01*
X125614868Y-73747897D02*
X125576773Y-73824087D01*
X125576773Y-73824087D02*
X125576773Y-74052659D01*
X125576773Y-74052659D02*
X125614868Y-74128849D01*
X125614868Y-74128849D02*
X125652963Y-74166945D01*
X125652963Y-74166945D02*
X125729154Y-74205040D01*
X125729154Y-74205040D02*
X125881535Y-74205040D01*
X125881535Y-74205040D02*
X125957725Y-74166945D01*
X125310106Y-73671706D02*
X125119630Y-74205040D01*
X124929153Y-73671706D02*
X125119630Y-74205040D01*
X125119630Y-74205040D02*
X125195820Y-74395516D01*
X125195820Y-74395516D02*
X125233915Y-74433611D01*
X125233915Y-74433611D02*
X125310106Y-74471706D01*
X123557724Y-74128849D02*
X123595820Y-74166945D01*
X123595820Y-74166945D02*
X123710105Y-74205040D01*
X123710105Y-74205040D02*
X123786296Y-74205040D01*
X123786296Y-74205040D02*
X123900582Y-74166945D01*
X123900582Y-74166945D02*
X123976772Y-74090754D01*
X123976772Y-74090754D02*
X124014867Y-74014564D01*
X124014867Y-74014564D02*
X124052963Y-73862183D01*
X124052963Y-73862183D02*
X124052963Y-73747897D01*
X124052963Y-73747897D02*
X124014867Y-73595516D01*
X124014867Y-73595516D02*
X123976772Y-73519325D01*
X123976772Y-73519325D02*
X123900582Y-73443135D01*
X123900582Y-73443135D02*
X123786296Y-73405040D01*
X123786296Y-73405040D02*
X123710105Y-73405040D01*
X123710105Y-73405040D02*
X123595820Y-73443135D01*
X123595820Y-73443135D02*
X123557724Y-73481230D01*
X123100582Y-74205040D02*
X123176772Y-74166945D01*
X123176772Y-74166945D02*
X123214867Y-74090754D01*
X123214867Y-74090754D02*
X123214867Y-73405040D01*
X122491057Y-74166945D02*
X122567248Y-74205040D01*
X122567248Y-74205040D02*
X122719629Y-74205040D01*
X122719629Y-74205040D02*
X122795819Y-74166945D01*
X122795819Y-74166945D02*
X122833915Y-74090754D01*
X122833915Y-74090754D02*
X122833915Y-73785992D01*
X122833915Y-73785992D02*
X122795819Y-73709802D01*
X122795819Y-73709802D02*
X122719629Y-73671706D01*
X122719629Y-73671706D02*
X122567248Y-73671706D01*
X122567248Y-73671706D02*
X122491057Y-73709802D01*
X122491057Y-73709802D02*
X122452962Y-73785992D01*
X122452962Y-73785992D02*
X122452962Y-73862183D01*
X122452962Y-73862183D02*
X122833915Y-73938373D01*
X122110105Y-74205040D02*
X122110105Y-73671706D01*
X122110105Y-73747897D02*
X122072010Y-73709802D01*
X122072010Y-73709802D02*
X121995820Y-73671706D01*
X121995820Y-73671706D02*
X121881534Y-73671706D01*
X121881534Y-73671706D02*
X121805343Y-73709802D01*
X121805343Y-73709802D02*
X121767248Y-73785992D01*
X121767248Y-73785992D02*
X121767248Y-74205040D01*
X121767248Y-73785992D02*
X121729153Y-73709802D01*
X121729153Y-73709802D02*
X121652962Y-73671706D01*
X121652962Y-73671706D02*
X121538677Y-73671706D01*
X121538677Y-73671706D02*
X121462486Y-73709802D01*
X121462486Y-73709802D02*
X121424391Y-73785992D01*
X121424391Y-73785992D02*
X121424391Y-74205040D01*
X120738676Y-74166945D02*
X120814867Y-74205040D01*
X120814867Y-74205040D02*
X120967248Y-74205040D01*
X120967248Y-74205040D02*
X121043438Y-74166945D01*
X121043438Y-74166945D02*
X121081534Y-74090754D01*
X121081534Y-74090754D02*
X121081534Y-73785992D01*
X121081534Y-73785992D02*
X121043438Y-73709802D01*
X121043438Y-73709802D02*
X120967248Y-73671706D01*
X120967248Y-73671706D02*
X120814867Y-73671706D01*
X120814867Y-73671706D02*
X120738676Y-73709802D01*
X120738676Y-73709802D02*
X120700581Y-73785992D01*
X120700581Y-73785992D02*
X120700581Y-73862183D01*
X120700581Y-73862183D02*
X121081534Y-73938373D01*
X120357724Y-73671706D02*
X120357724Y-74205040D01*
X120357724Y-73747897D02*
X120319629Y-73709802D01*
X120319629Y-73709802D02*
X120243439Y-73671706D01*
X120243439Y-73671706D02*
X120129153Y-73671706D01*
X120129153Y-73671706D02*
X120052962Y-73709802D01*
X120052962Y-73709802D02*
X120014867Y-73785992D01*
X120014867Y-73785992D02*
X120014867Y-74205040D01*
X119672010Y-74166945D02*
X119595819Y-74205040D01*
X119595819Y-74205040D02*
X119443438Y-74205040D01*
X119443438Y-74205040D02*
X119367248Y-74166945D01*
X119367248Y-74166945D02*
X119329152Y-74090754D01*
X119329152Y-74090754D02*
X119329152Y-74052659D01*
X119329152Y-74052659D02*
X119367248Y-73976468D01*
X119367248Y-73976468D02*
X119443438Y-73938373D01*
X119443438Y-73938373D02*
X119557724Y-73938373D01*
X119557724Y-73938373D02*
X119633914Y-73900278D01*
X119633914Y-73900278D02*
X119672010Y-73824087D01*
X119672010Y-73824087D02*
X119672010Y-73785992D01*
X119672010Y-73785992D02*
X119633914Y-73709802D01*
X119633914Y-73709802D02*
X119557724Y-73671706D01*
X119557724Y-73671706D02*
X119443438Y-73671706D01*
X119443438Y-73671706D02*
X119367248Y-73709802D01*
X118491057Y-73405040D02*
X118224390Y-74205040D01*
X118224390Y-74205040D02*
X117957724Y-73405040D01*
X117348200Y-74205040D02*
X117348200Y-73785992D01*
X117348200Y-73785992D02*
X117386295Y-73709802D01*
X117386295Y-73709802D02*
X117462486Y-73671706D01*
X117462486Y-73671706D02*
X117614867Y-73671706D01*
X117614867Y-73671706D02*
X117691057Y-73709802D01*
X117348200Y-74166945D02*
X117424391Y-74205040D01*
X117424391Y-74205040D02*
X117614867Y-74205040D01*
X117614867Y-74205040D02*
X117691057Y-74166945D01*
X117691057Y-74166945D02*
X117729153Y-74090754D01*
X117729153Y-74090754D02*
X117729153Y-74014564D01*
X117729153Y-74014564D02*
X117691057Y-73938373D01*
X117691057Y-73938373D02*
X117614867Y-73900278D01*
X117614867Y-73900278D02*
X117424391Y-73900278D01*
X117424391Y-73900278D02*
X117348200Y-73862183D01*
X116852962Y-74205040D02*
X116929152Y-74166945D01*
X116929152Y-74166945D02*
X116967247Y-74090754D01*
X116967247Y-74090754D02*
X116967247Y-73405040D01*
X116243437Y-74166945D02*
X116319628Y-74205040D01*
X116319628Y-74205040D02*
X116472009Y-74205040D01*
X116472009Y-74205040D02*
X116548199Y-74166945D01*
X116548199Y-74166945D02*
X116586295Y-74090754D01*
X116586295Y-74090754D02*
X116586295Y-73785992D01*
X116586295Y-73785992D02*
X116548199Y-73709802D01*
X116548199Y-73709802D02*
X116472009Y-73671706D01*
X116472009Y-73671706D02*
X116319628Y-73671706D01*
X116319628Y-73671706D02*
X116243437Y-73709802D01*
X116243437Y-73709802D02*
X116205342Y-73785992D01*
X116205342Y-73785992D02*
X116205342Y-73862183D01*
X116205342Y-73862183D02*
X116586295Y-73938373D01*
X115862485Y-73671706D02*
X115862485Y-74205040D01*
X115862485Y-73747897D02*
X115824390Y-73709802D01*
X115824390Y-73709802D02*
X115748200Y-73671706D01*
X115748200Y-73671706D02*
X115633914Y-73671706D01*
X115633914Y-73671706D02*
X115557723Y-73709802D01*
X115557723Y-73709802D02*
X115519628Y-73785992D01*
X115519628Y-73785992D02*
X115519628Y-74205040D01*
X114795818Y-74205040D02*
X114795818Y-73785992D01*
X114795818Y-73785992D02*
X114833913Y-73709802D01*
X114833913Y-73709802D02*
X114910104Y-73671706D01*
X114910104Y-73671706D02*
X115062485Y-73671706D01*
X115062485Y-73671706D02*
X115138675Y-73709802D01*
X114795818Y-74166945D02*
X114872009Y-74205040D01*
X114872009Y-74205040D02*
X115062485Y-74205040D01*
X115062485Y-74205040D02*
X115138675Y-74166945D01*
X115138675Y-74166945D02*
X115176771Y-74090754D01*
X115176771Y-74090754D02*
X115176771Y-74014564D01*
X115176771Y-74014564D02*
X115138675Y-73938373D01*
X115138675Y-73938373D02*
X115062485Y-73900278D01*
X115062485Y-73900278D02*
X114872009Y-73900278D01*
X114872009Y-73900278D02*
X114795818Y-73862183D01*
X113919627Y-73671706D02*
X113614865Y-73671706D01*
X113805341Y-74205040D02*
X113805341Y-73519325D01*
X113805341Y-73519325D02*
X113767246Y-73443135D01*
X113767246Y-73443135D02*
X113691056Y-73405040D01*
X113691056Y-73405040D02*
X113614865Y-73405040D01*
X113233913Y-74205040D02*
X113310103Y-74166945D01*
X113310103Y-74166945D02*
X113348198Y-74128849D01*
X113348198Y-74128849D02*
X113386294Y-74052659D01*
X113386294Y-74052659D02*
X113386294Y-73824087D01*
X113386294Y-73824087D02*
X113348198Y-73747897D01*
X113348198Y-73747897D02*
X113310103Y-73709802D01*
X113310103Y-73709802D02*
X113233913Y-73671706D01*
X113233913Y-73671706D02*
X113119627Y-73671706D01*
X113119627Y-73671706D02*
X113043436Y-73709802D01*
X113043436Y-73709802D02*
X113005341Y-73747897D01*
X113005341Y-73747897D02*
X112967246Y-73824087D01*
X112967246Y-73824087D02*
X112967246Y-74052659D01*
X112967246Y-74052659D02*
X113005341Y-74128849D01*
X113005341Y-74128849D02*
X113043436Y-74166945D01*
X113043436Y-74166945D02*
X113119627Y-74205040D01*
X113119627Y-74205040D02*
X113233913Y-74205040D01*
X112624388Y-74205040D02*
X112624388Y-73671706D01*
X112624388Y-73824087D02*
X112586293Y-73747897D01*
X112586293Y-73747897D02*
X112548198Y-73709802D01*
X112548198Y-73709802D02*
X112472007Y-73671706D01*
X112472007Y-73671706D02*
X112395817Y-73671706D01*
X111519626Y-73785992D02*
X111252960Y-73785992D01*
X111138674Y-74205040D02*
X111519626Y-74205040D01*
X111519626Y-74205040D02*
X111519626Y-73405040D01*
X111519626Y-73405040D02*
X111138674Y-73405040D01*
X110681531Y-74205040D02*
X110757721Y-74166945D01*
X110757721Y-74166945D02*
X110795816Y-74090754D01*
X110795816Y-74090754D02*
X110795816Y-73405040D01*
X110072006Y-74166945D02*
X110148197Y-74205040D01*
X110148197Y-74205040D02*
X110300578Y-74205040D01*
X110300578Y-74205040D02*
X110376768Y-74166945D01*
X110376768Y-74166945D02*
X110414864Y-74090754D01*
X110414864Y-74090754D02*
X110414864Y-73785992D01*
X110414864Y-73785992D02*
X110376768Y-73709802D01*
X110376768Y-73709802D02*
X110300578Y-73671706D01*
X110300578Y-73671706D02*
X110148197Y-73671706D01*
X110148197Y-73671706D02*
X110072006Y-73709802D01*
X110072006Y-73709802D02*
X110033911Y-73785992D01*
X110033911Y-73785992D02*
X110033911Y-73862183D01*
X110033911Y-73862183D02*
X110414864Y-73938373D01*
X109348197Y-74166945D02*
X109424388Y-74205040D01*
X109424388Y-74205040D02*
X109576769Y-74205040D01*
X109576769Y-74205040D02*
X109652959Y-74166945D01*
X109652959Y-74166945D02*
X109691054Y-74128849D01*
X109691054Y-74128849D02*
X109729150Y-74052659D01*
X109729150Y-74052659D02*
X109729150Y-73824087D01*
X109729150Y-73824087D02*
X109691054Y-73747897D01*
X109691054Y-73747897D02*
X109652959Y-73709802D01*
X109652959Y-73709802D02*
X109576769Y-73671706D01*
X109576769Y-73671706D02*
X109424388Y-73671706D01*
X109424388Y-73671706D02*
X109348197Y-73709802D01*
X109119626Y-73671706D02*
X108814864Y-73671706D01*
X109005340Y-73405040D02*
X109005340Y-74090754D01*
X109005340Y-74090754D02*
X108967245Y-74166945D01*
X108967245Y-74166945D02*
X108891055Y-74205040D01*
X108891055Y-74205040D02*
X108814864Y-74205040D01*
X108433912Y-74205040D02*
X108510102Y-74166945D01*
X108510102Y-74166945D02*
X108548197Y-74128849D01*
X108548197Y-74128849D02*
X108586293Y-74052659D01*
X108586293Y-74052659D02*
X108586293Y-73824087D01*
X108586293Y-73824087D02*
X108548197Y-73747897D01*
X108548197Y-73747897D02*
X108510102Y-73709802D01*
X108510102Y-73709802D02*
X108433912Y-73671706D01*
X108433912Y-73671706D02*
X108319626Y-73671706D01*
X108319626Y-73671706D02*
X108243435Y-73709802D01*
X108243435Y-73709802D02*
X108205340Y-73747897D01*
X108205340Y-73747897D02*
X108167245Y-73824087D01*
X108167245Y-73824087D02*
X108167245Y-74052659D01*
X108167245Y-74052659D02*
X108205340Y-74128849D01*
X108205340Y-74128849D02*
X108243435Y-74166945D01*
X108243435Y-74166945D02*
X108319626Y-74205040D01*
X108319626Y-74205040D02*
X108433912Y-74205040D01*
X107824387Y-74205040D02*
X107824387Y-73671706D01*
X107824387Y-73824087D02*
X107786292Y-73747897D01*
X107786292Y-73747897D02*
X107748197Y-73709802D01*
X107748197Y-73709802D02*
X107672006Y-73671706D01*
X107672006Y-73671706D02*
X107595816Y-73671706D01*
X130567249Y-75416804D02*
X130605345Y-75454900D01*
X130605345Y-75454900D02*
X130719630Y-75492995D01*
X130719630Y-75492995D02*
X130795821Y-75492995D01*
X130795821Y-75492995D02*
X130910107Y-75454900D01*
X130910107Y-75454900D02*
X130986297Y-75378709D01*
X130986297Y-75378709D02*
X131024392Y-75302519D01*
X131024392Y-75302519D02*
X131062488Y-75150138D01*
X131062488Y-75150138D02*
X131062488Y-75035852D01*
X131062488Y-75035852D02*
X131024392Y-74883471D01*
X131024392Y-74883471D02*
X130986297Y-74807280D01*
X130986297Y-74807280D02*
X130910107Y-74731090D01*
X130910107Y-74731090D02*
X130795821Y-74692995D01*
X130795821Y-74692995D02*
X130719630Y-74692995D01*
X130719630Y-74692995D02*
X130605345Y-74731090D01*
X130605345Y-74731090D02*
X130567249Y-74769185D01*
X130110107Y-75492995D02*
X130186297Y-75454900D01*
X130186297Y-75454900D02*
X130224392Y-75416804D01*
X130224392Y-75416804D02*
X130262488Y-75340614D01*
X130262488Y-75340614D02*
X130262488Y-75112042D01*
X130262488Y-75112042D02*
X130224392Y-75035852D01*
X130224392Y-75035852D02*
X130186297Y-74997757D01*
X130186297Y-74997757D02*
X130110107Y-74959661D01*
X130110107Y-74959661D02*
X129995821Y-74959661D01*
X129995821Y-74959661D02*
X129919630Y-74997757D01*
X129919630Y-74997757D02*
X129881535Y-75035852D01*
X129881535Y-75035852D02*
X129843440Y-75112042D01*
X129843440Y-75112042D02*
X129843440Y-75340614D01*
X129843440Y-75340614D02*
X129881535Y-75416804D01*
X129881535Y-75416804D02*
X129919630Y-75454900D01*
X129919630Y-75454900D02*
X129995821Y-75492995D01*
X129995821Y-75492995D02*
X130110107Y-75492995D01*
X129500582Y-74959661D02*
X129500582Y-75759661D01*
X129500582Y-74997757D02*
X129424392Y-74959661D01*
X129424392Y-74959661D02*
X129272011Y-74959661D01*
X129272011Y-74959661D02*
X129195820Y-74997757D01*
X129195820Y-74997757D02*
X129157725Y-75035852D01*
X129157725Y-75035852D02*
X129119630Y-75112042D01*
X129119630Y-75112042D02*
X129119630Y-75340614D01*
X129119630Y-75340614D02*
X129157725Y-75416804D01*
X129157725Y-75416804D02*
X129195820Y-75454900D01*
X129195820Y-75454900D02*
X129272011Y-75492995D01*
X129272011Y-75492995D02*
X129424392Y-75492995D01*
X129424392Y-75492995D02*
X129500582Y-75454900D01*
X128776772Y-75492995D02*
X128776772Y-74959661D01*
X128776772Y-74692995D02*
X128814868Y-74731090D01*
X128814868Y-74731090D02*
X128776772Y-74769185D01*
X128776772Y-74769185D02*
X128738677Y-74731090D01*
X128738677Y-74731090D02*
X128776772Y-74692995D01*
X128776772Y-74692995D02*
X128776772Y-74769185D01*
X128091058Y-75454900D02*
X128167249Y-75492995D01*
X128167249Y-75492995D02*
X128319630Y-75492995D01*
X128319630Y-75492995D02*
X128395820Y-75454900D01*
X128395820Y-75454900D02*
X128433916Y-75378709D01*
X128433916Y-75378709D02*
X128433916Y-75073947D01*
X128433916Y-75073947D02*
X128395820Y-74997757D01*
X128395820Y-74997757D02*
X128319630Y-74959661D01*
X128319630Y-74959661D02*
X128167249Y-74959661D01*
X128167249Y-74959661D02*
X128091058Y-74997757D01*
X128091058Y-74997757D02*
X128052963Y-75073947D01*
X128052963Y-75073947D02*
X128052963Y-75150138D01*
X128052963Y-75150138D02*
X128433916Y-75226328D01*
X127367249Y-75492995D02*
X127367249Y-74692995D01*
X127367249Y-75454900D02*
X127443440Y-75492995D01*
X127443440Y-75492995D02*
X127595821Y-75492995D01*
X127595821Y-75492995D02*
X127672011Y-75454900D01*
X127672011Y-75454900D02*
X127710106Y-75416804D01*
X127710106Y-75416804D02*
X127748202Y-75340614D01*
X127748202Y-75340614D02*
X127748202Y-75112042D01*
X127748202Y-75112042D02*
X127710106Y-75035852D01*
X127710106Y-75035852D02*
X127672011Y-74997757D01*
X127672011Y-74997757D02*
X127595821Y-74959661D01*
X127595821Y-74959661D02*
X127443440Y-74959661D01*
X127443440Y-74959661D02*
X127367249Y-74997757D01*
X126376772Y-75492995D02*
X126376772Y-74959661D01*
X126376772Y-74692995D02*
X126414868Y-74731090D01*
X126414868Y-74731090D02*
X126376772Y-74769185D01*
X126376772Y-74769185D02*
X126338677Y-74731090D01*
X126338677Y-74731090D02*
X126376772Y-74692995D01*
X126376772Y-74692995D02*
X126376772Y-74769185D01*
X125995820Y-74959661D02*
X125995820Y-75492995D01*
X125995820Y-75035852D02*
X125957725Y-74997757D01*
X125957725Y-74997757D02*
X125881535Y-74959661D01*
X125881535Y-74959661D02*
X125767249Y-74959661D01*
X125767249Y-74959661D02*
X125691058Y-74997757D01*
X125691058Y-74997757D02*
X125652963Y-75073947D01*
X125652963Y-75073947D02*
X125652963Y-75492995D01*
X125386296Y-74959661D02*
X125081534Y-74959661D01*
X125272010Y-74692995D02*
X125272010Y-75378709D01*
X125272010Y-75378709D02*
X125233915Y-75454900D01*
X125233915Y-75454900D02*
X125157725Y-75492995D01*
X125157725Y-75492995D02*
X125081534Y-75492995D01*
X124700582Y-75492995D02*
X124776772Y-75454900D01*
X124776772Y-75454900D02*
X124814867Y-75416804D01*
X124814867Y-75416804D02*
X124852963Y-75340614D01*
X124852963Y-75340614D02*
X124852963Y-75112042D01*
X124852963Y-75112042D02*
X124814867Y-75035852D01*
X124814867Y-75035852D02*
X124776772Y-74997757D01*
X124776772Y-74997757D02*
X124700582Y-74959661D01*
X124700582Y-74959661D02*
X124586296Y-74959661D01*
X124586296Y-74959661D02*
X124510105Y-74997757D01*
X124510105Y-74997757D02*
X124472010Y-75035852D01*
X124472010Y-75035852D02*
X124433915Y-75112042D01*
X124433915Y-75112042D02*
X124433915Y-75340614D01*
X124433915Y-75340614D02*
X124472010Y-75416804D01*
X124472010Y-75416804D02*
X124510105Y-75454900D01*
X124510105Y-75454900D02*
X124586296Y-75492995D01*
X124586296Y-75492995D02*
X124700582Y-75492995D01*
X123481533Y-75492995D02*
X123481533Y-74692995D01*
X123024390Y-75492995D02*
X123367248Y-75035852D01*
X123024390Y-74692995D02*
X123481533Y-75150138D01*
X122681533Y-75492995D02*
X122681533Y-74959661D01*
X122681533Y-74692995D02*
X122719629Y-74731090D01*
X122719629Y-74731090D02*
X122681533Y-74769185D01*
X122681533Y-74769185D02*
X122643438Y-74731090D01*
X122643438Y-74731090D02*
X122681533Y-74692995D01*
X122681533Y-74692995D02*
X122681533Y-74769185D01*
X121957724Y-75454900D02*
X122033915Y-75492995D01*
X122033915Y-75492995D02*
X122186296Y-75492995D01*
X122186296Y-75492995D02*
X122262486Y-75454900D01*
X122262486Y-75454900D02*
X122300581Y-75416804D01*
X122300581Y-75416804D02*
X122338677Y-75340614D01*
X122338677Y-75340614D02*
X122338677Y-75112042D01*
X122338677Y-75112042D02*
X122300581Y-75035852D01*
X122300581Y-75035852D02*
X122262486Y-74997757D01*
X122262486Y-74997757D02*
X122186296Y-74959661D01*
X122186296Y-74959661D02*
X122033915Y-74959661D01*
X122033915Y-74959661D02*
X121957724Y-74997757D01*
X121272010Y-75492995D02*
X121272010Y-75073947D01*
X121272010Y-75073947D02*
X121310105Y-74997757D01*
X121310105Y-74997757D02*
X121386296Y-74959661D01*
X121386296Y-74959661D02*
X121538677Y-74959661D01*
X121538677Y-74959661D02*
X121614867Y-74997757D01*
X121272010Y-75454900D02*
X121348201Y-75492995D01*
X121348201Y-75492995D02*
X121538677Y-75492995D01*
X121538677Y-75492995D02*
X121614867Y-75454900D01*
X121614867Y-75454900D02*
X121652963Y-75378709D01*
X121652963Y-75378709D02*
X121652963Y-75302519D01*
X121652963Y-75302519D02*
X121614867Y-75226328D01*
X121614867Y-75226328D02*
X121538677Y-75188233D01*
X121538677Y-75188233D02*
X121348201Y-75188233D01*
X121348201Y-75188233D02*
X121272010Y-75150138D01*
X120548200Y-75492995D02*
X120548200Y-74692995D01*
X120548200Y-75454900D02*
X120624391Y-75492995D01*
X120624391Y-75492995D02*
X120776772Y-75492995D01*
X120776772Y-75492995D02*
X120852962Y-75454900D01*
X120852962Y-75454900D02*
X120891057Y-75416804D01*
X120891057Y-75416804D02*
X120929153Y-75340614D01*
X120929153Y-75340614D02*
X120929153Y-75112042D01*
X120929153Y-75112042D02*
X120891057Y-75035852D01*
X120891057Y-75035852D02*
X120852962Y-74997757D01*
X120852962Y-74997757D02*
X120776772Y-74959661D01*
X120776772Y-74959661D02*
X120624391Y-74959661D01*
X120624391Y-74959661D02*
X120548200Y-74997757D01*
X119519628Y-75492995D02*
X119367247Y-75492995D01*
X119367247Y-75492995D02*
X119291057Y-75454900D01*
X119291057Y-75454900D02*
X119252961Y-75416804D01*
X119252961Y-75416804D02*
X119176771Y-75302519D01*
X119176771Y-75302519D02*
X119138676Y-75150138D01*
X119138676Y-75150138D02*
X119138676Y-74845376D01*
X119138676Y-74845376D02*
X119176771Y-74769185D01*
X119176771Y-74769185D02*
X119214866Y-74731090D01*
X119214866Y-74731090D02*
X119291057Y-74692995D01*
X119291057Y-74692995D02*
X119443438Y-74692995D01*
X119443438Y-74692995D02*
X119519628Y-74731090D01*
X119519628Y-74731090D02*
X119557723Y-74769185D01*
X119557723Y-74769185D02*
X119595819Y-74845376D01*
X119595819Y-74845376D02*
X119595819Y-75035852D01*
X119595819Y-75035852D02*
X119557723Y-75112042D01*
X119557723Y-75112042D02*
X119519628Y-75150138D01*
X119519628Y-75150138D02*
X119443438Y-75188233D01*
X119443438Y-75188233D02*
X119291057Y-75188233D01*
X119291057Y-75188233D02*
X119214866Y-75150138D01*
X119214866Y-75150138D02*
X119176771Y-75112042D01*
X119176771Y-75112042D02*
X119138676Y-75035852D01*
X118795818Y-75416804D02*
X118757723Y-75454900D01*
X118757723Y-75454900D02*
X118795818Y-75492995D01*
X118795818Y-75492995D02*
X118833914Y-75454900D01*
X118833914Y-75454900D02*
X118795818Y-75416804D01*
X118795818Y-75416804D02*
X118795818Y-75492995D01*
X118491057Y-74692995D02*
X117957723Y-74692995D01*
X117957723Y-74692995D02*
X118300581Y-75492995D01*
X117043437Y-75492995D02*
X117043437Y-74692995D01*
X117043437Y-74997757D02*
X116967247Y-74959661D01*
X116967247Y-74959661D02*
X116814866Y-74959661D01*
X116814866Y-74959661D02*
X116738675Y-74997757D01*
X116738675Y-74997757D02*
X116700580Y-75035852D01*
X116700580Y-75035852D02*
X116662485Y-75112042D01*
X116662485Y-75112042D02*
X116662485Y-75340614D01*
X116662485Y-75340614D02*
X116700580Y-75416804D01*
X116700580Y-75416804D02*
X116738675Y-75454900D01*
X116738675Y-75454900D02*
X116814866Y-75492995D01*
X116814866Y-75492995D02*
X116967247Y-75492995D01*
X116967247Y-75492995D02*
X117043437Y-75454900D01*
X116395818Y-74959661D02*
X116205342Y-75492995D01*
X116014865Y-74959661D02*
X116205342Y-75492995D01*
X116205342Y-75492995D02*
X116281532Y-75683471D01*
X116281532Y-75683471D02*
X116319627Y-75721566D01*
X116319627Y-75721566D02*
X116395818Y-75759661D01*
X114643436Y-75492995D02*
X114910103Y-75112042D01*
X115100579Y-75492995D02*
X115100579Y-74692995D01*
X115100579Y-74692995D02*
X114795817Y-74692995D01*
X114795817Y-74692995D02*
X114719627Y-74731090D01*
X114719627Y-74731090D02*
X114681532Y-74769185D01*
X114681532Y-74769185D02*
X114643436Y-74845376D01*
X114643436Y-74845376D02*
X114643436Y-74959661D01*
X114643436Y-74959661D02*
X114681532Y-75035852D01*
X114681532Y-75035852D02*
X114719627Y-75073947D01*
X114719627Y-75073947D02*
X114795817Y-75112042D01*
X114795817Y-75112042D02*
X115100579Y-75112042D01*
X114186294Y-75492995D02*
X114262484Y-75454900D01*
X114262484Y-75454900D02*
X114300579Y-75416804D01*
X114300579Y-75416804D02*
X114338675Y-75340614D01*
X114338675Y-75340614D02*
X114338675Y-75112042D01*
X114338675Y-75112042D02*
X114300579Y-75035852D01*
X114300579Y-75035852D02*
X114262484Y-74997757D01*
X114262484Y-74997757D02*
X114186294Y-74959661D01*
X114186294Y-74959661D02*
X114072008Y-74959661D01*
X114072008Y-74959661D02*
X113995817Y-74997757D01*
X113995817Y-74997757D02*
X113957722Y-75035852D01*
X113957722Y-75035852D02*
X113919627Y-75112042D01*
X113919627Y-75112042D02*
X113919627Y-75340614D01*
X113919627Y-75340614D02*
X113957722Y-75416804D01*
X113957722Y-75416804D02*
X113995817Y-75454900D01*
X113995817Y-75454900D02*
X114072008Y-75492995D01*
X114072008Y-75492995D02*
X114186294Y-75492995D01*
X113576769Y-75492995D02*
X113576769Y-74959661D01*
X113576769Y-75035852D02*
X113538674Y-74997757D01*
X113538674Y-74997757D02*
X113462484Y-74959661D01*
X113462484Y-74959661D02*
X113348198Y-74959661D01*
X113348198Y-74959661D02*
X113272007Y-74997757D01*
X113272007Y-74997757D02*
X113233912Y-75073947D01*
X113233912Y-75073947D02*
X113233912Y-75492995D01*
X113233912Y-75073947D02*
X113195817Y-74997757D01*
X113195817Y-74997757D02*
X113119626Y-74959661D01*
X113119626Y-74959661D02*
X113005341Y-74959661D01*
X113005341Y-74959661D02*
X112929150Y-74997757D01*
X112929150Y-74997757D02*
X112891055Y-75073947D01*
X112891055Y-75073947D02*
X112891055Y-75492995D01*
X112510102Y-75492995D02*
X112510102Y-74959661D01*
X112510102Y-75035852D02*
X112472007Y-74997757D01*
X112472007Y-74997757D02*
X112395817Y-74959661D01*
X112395817Y-74959661D02*
X112281531Y-74959661D01*
X112281531Y-74959661D02*
X112205340Y-74997757D01*
X112205340Y-74997757D02*
X112167245Y-75073947D01*
X112167245Y-75073947D02*
X112167245Y-75492995D01*
X112167245Y-75073947D02*
X112129150Y-74997757D01*
X112129150Y-74997757D02*
X112052959Y-74959661D01*
X112052959Y-74959661D02*
X111938674Y-74959661D01*
X111938674Y-74959661D02*
X111862483Y-74997757D01*
X111862483Y-74997757D02*
X111824388Y-75073947D01*
X111824388Y-75073947D02*
X111824388Y-75492995D01*
X111138673Y-75454900D02*
X111214864Y-75492995D01*
X111214864Y-75492995D02*
X111367245Y-75492995D01*
X111367245Y-75492995D02*
X111443435Y-75454900D01*
X111443435Y-75454900D02*
X111481531Y-75378709D01*
X111481531Y-75378709D02*
X111481531Y-75073947D01*
X111481531Y-75073947D02*
X111443435Y-74997757D01*
X111443435Y-74997757D02*
X111367245Y-74959661D01*
X111367245Y-74959661D02*
X111214864Y-74959661D01*
X111214864Y-74959661D02*
X111138673Y-74997757D01*
X111138673Y-74997757D02*
X111100578Y-75073947D01*
X111100578Y-75073947D02*
X111100578Y-75150138D01*
X111100578Y-75150138D02*
X111481531Y-75226328D01*
X110643436Y-75492995D02*
X110719626Y-75454900D01*
X110719626Y-75454900D02*
X110757721Y-75378709D01*
X110757721Y-75378709D02*
X110757721Y-74692995D01*
X109272006Y-75416804D02*
X109310102Y-75454900D01*
X109310102Y-75454900D02*
X109424387Y-75492995D01*
X109424387Y-75492995D02*
X109500578Y-75492995D01*
X109500578Y-75492995D02*
X109614864Y-75454900D01*
X109614864Y-75454900D02*
X109691054Y-75378709D01*
X109691054Y-75378709D02*
X109729149Y-75302519D01*
X109729149Y-75302519D02*
X109767245Y-75150138D01*
X109767245Y-75150138D02*
X109767245Y-75035852D01*
X109767245Y-75035852D02*
X109729149Y-74883471D01*
X109729149Y-74883471D02*
X109691054Y-74807280D01*
X109691054Y-74807280D02*
X109614864Y-74731090D01*
X109614864Y-74731090D02*
X109500578Y-74692995D01*
X109500578Y-74692995D02*
X109424387Y-74692995D01*
X109424387Y-74692995D02*
X109310102Y-74731090D01*
X109310102Y-74731090D02*
X109272006Y-74769185D01*
X108814864Y-75492995D02*
X108891054Y-75454900D01*
X108891054Y-75454900D02*
X108929149Y-75416804D01*
X108929149Y-75416804D02*
X108967245Y-75340614D01*
X108967245Y-75340614D02*
X108967245Y-75112042D01*
X108967245Y-75112042D02*
X108929149Y-75035852D01*
X108929149Y-75035852D02*
X108891054Y-74997757D01*
X108891054Y-74997757D02*
X108814864Y-74959661D01*
X108814864Y-74959661D02*
X108700578Y-74959661D01*
X108700578Y-74959661D02*
X108624387Y-74997757D01*
X108624387Y-74997757D02*
X108586292Y-75035852D01*
X108586292Y-75035852D02*
X108548197Y-75112042D01*
X108548197Y-75112042D02*
X108548197Y-75340614D01*
X108548197Y-75340614D02*
X108586292Y-75416804D01*
X108586292Y-75416804D02*
X108624387Y-75454900D01*
X108624387Y-75454900D02*
X108700578Y-75492995D01*
X108700578Y-75492995D02*
X108814864Y-75492995D01*
X108205339Y-74959661D02*
X108205339Y-75492995D01*
X108205339Y-75035852D02*
X108167244Y-74997757D01*
X108167244Y-74997757D02*
X108091054Y-74959661D01*
X108091054Y-74959661D02*
X107976768Y-74959661D01*
X107976768Y-74959661D02*
X107900577Y-74997757D01*
X107900577Y-74997757D02*
X107862482Y-75073947D01*
X107862482Y-75073947D02*
X107862482Y-75492995D01*
X107595815Y-74959661D02*
X107291053Y-74959661D01*
X107481529Y-74692995D02*
X107481529Y-75378709D01*
X107481529Y-75378709D02*
X107443434Y-75454900D01*
X107443434Y-75454900D02*
X107367244Y-75492995D01*
X107367244Y-75492995D02*
X107291053Y-75492995D01*
X107024386Y-75492995D02*
X107024386Y-74959661D01*
X107024386Y-75112042D02*
X106986291Y-75035852D01*
X106986291Y-75035852D02*
X106948196Y-74997757D01*
X106948196Y-74997757D02*
X106872005Y-74959661D01*
X106872005Y-74959661D02*
X106795815Y-74959661D01*
X106224386Y-75454900D02*
X106300577Y-75492995D01*
X106300577Y-75492995D02*
X106452958Y-75492995D01*
X106452958Y-75492995D02*
X106529148Y-75454900D01*
X106529148Y-75454900D02*
X106567244Y-75378709D01*
X106567244Y-75378709D02*
X106567244Y-75073947D01*
X106567244Y-75073947D02*
X106529148Y-74997757D01*
X106529148Y-74997757D02*
X106452958Y-74959661D01*
X106452958Y-74959661D02*
X106300577Y-74959661D01*
X106300577Y-74959661D02*
X106224386Y-74997757D01*
X106224386Y-74997757D02*
X106186291Y-75073947D01*
X106186291Y-75073947D02*
X106186291Y-75150138D01*
X106186291Y-75150138D02*
X106567244Y-75226328D01*
X105843434Y-75492995D02*
X105843434Y-74959661D01*
X105843434Y-75112042D02*
X105805339Y-75035852D01*
X105805339Y-75035852D02*
X105767244Y-74997757D01*
X105767244Y-74997757D02*
X105691053Y-74959661D01*
X105691053Y-74959661D02*
X105614863Y-74959661D01*
X105005339Y-75492995D02*
X105005339Y-75073947D01*
X105005339Y-75073947D02*
X105043434Y-74997757D01*
X105043434Y-74997757D02*
X105119625Y-74959661D01*
X105119625Y-74959661D02*
X105272006Y-74959661D01*
X105272006Y-74959661D02*
X105348196Y-74997757D01*
X105005339Y-75454900D02*
X105081530Y-75492995D01*
X105081530Y-75492995D02*
X105272006Y-75492995D01*
X105272006Y-75492995D02*
X105348196Y-75454900D01*
X105348196Y-75454900D02*
X105386292Y-75378709D01*
X105386292Y-75378709D02*
X105386292Y-75302519D01*
X105386292Y-75302519D02*
X105348196Y-75226328D01*
X105348196Y-75226328D02*
X105272006Y-75188233D01*
X105272006Y-75188233D02*
X105081530Y-75188233D01*
X105081530Y-75188233D02*
X105005339Y-75150138D01*
X104662482Y-75454900D02*
X104586291Y-75492995D01*
X104586291Y-75492995D02*
X104433910Y-75492995D01*
X104433910Y-75492995D02*
X104357720Y-75454900D01*
X104357720Y-75454900D02*
X104319624Y-75378709D01*
X104319624Y-75378709D02*
X104319624Y-75340614D01*
X104319624Y-75340614D02*
X104357720Y-75264423D01*
X104357720Y-75264423D02*
X104433910Y-75226328D01*
X104433910Y-75226328D02*
X104548196Y-75226328D01*
X104548196Y-75226328D02*
X104624386Y-75188233D01*
X104624386Y-75188233D02*
X104662482Y-75112042D01*
X104662482Y-75112042D02*
X104662482Y-75073947D01*
X104662482Y-75073947D02*
X104624386Y-74997757D01*
X104624386Y-74997757D02*
X104548196Y-74959661D01*
X104548196Y-74959661D02*
X104433910Y-74959661D01*
X104433910Y-74959661D02*
X104357720Y-74997757D01*
D12*
%TO.C,G\u002A\u002A\u002A*%
G36*
X124091049Y-82399462D02*
G01*
X124104426Y-82452568D01*
X124109655Y-82536052D01*
X124109726Y-82549172D01*
X124114159Y-82615725D01*
X124129607Y-82677716D01*
X124161809Y-82748160D01*
X124216503Y-82840071D01*
X124299425Y-82966462D01*
X124489196Y-83250243D01*
X124489196Y-83819999D01*
X124489196Y-84389755D01*
X124299425Y-84673537D01*
X124282583Y-84698778D01*
X124205028Y-84818178D01*
X124154695Y-84905381D01*
X124125848Y-84973401D01*
X124112747Y-85035251D01*
X124109655Y-85103946D01*
X124107657Y-85157128D01*
X124097083Y-85224310D01*
X124080460Y-85250574D01*
X124069158Y-85238565D01*
X124056253Y-85182932D01*
X124051203Y-85097298D01*
X124048172Y-85023679D01*
X124035141Y-84959452D01*
X124006113Y-84890469D01*
X123955096Y-84802487D01*
X123876092Y-84681264D01*
X123701043Y-84418505D01*
X123701043Y-83819999D01*
X123701043Y-83221493D01*
X123876092Y-82958735D01*
X123955021Y-82837630D01*
X124006068Y-82749618D01*
X124035117Y-82680621D01*
X124048164Y-82616396D01*
X124051203Y-82542700D01*
X124053514Y-82483388D01*
X124064138Y-82415755D01*
X124080460Y-82389425D01*
X124091049Y-82399462D01*
G37*
G36*
X122815754Y-82390756D02*
G01*
X122824984Y-82403027D01*
X122832641Y-82431971D01*
X122838865Y-82482225D01*
X122843799Y-82558422D01*
X122847584Y-82665199D01*
X122850363Y-82807190D01*
X122852278Y-82989030D01*
X122853470Y-83215355D01*
X122854081Y-83490800D01*
X122854253Y-83819999D01*
X122854212Y-83992935D01*
X122853837Y-84294461D01*
X122852951Y-84544568D01*
X122851412Y-84747892D01*
X122849080Y-84909068D01*
X122845811Y-85032730D01*
X122841464Y-85123514D01*
X122835898Y-85186056D01*
X122828969Y-85224989D01*
X122820537Y-85244950D01*
X122810460Y-85250574D01*
X122805166Y-85249243D01*
X122795936Y-85236972D01*
X122788279Y-85208027D01*
X122782055Y-85157774D01*
X122777121Y-85081576D01*
X122773335Y-84974800D01*
X122770556Y-84832809D01*
X122768642Y-84650968D01*
X122767450Y-84424643D01*
X122766839Y-84149199D01*
X122766667Y-83819999D01*
X122766708Y-83647063D01*
X122767083Y-83345537D01*
X122767969Y-83095430D01*
X122769508Y-82892106D01*
X122771840Y-82730931D01*
X122775109Y-82607269D01*
X122779456Y-82516484D01*
X122785022Y-82453943D01*
X122791950Y-82415009D01*
X122800382Y-82395048D01*
X122810460Y-82389425D01*
X122815754Y-82390756D01*
G37*
G36*
X121212103Y-83103693D02*
G01*
X121406258Y-83177047D01*
X121572852Y-83283979D01*
X121702990Y-83420499D01*
X121787777Y-83582618D01*
X121795276Y-83606342D01*
X121824075Y-83758621D01*
X121830515Y-83926294D01*
X121814963Y-84086102D01*
X121777787Y-84214785D01*
X121738946Y-84288582D01*
X121612136Y-84443465D01*
X121442509Y-84561218D01*
X121233908Y-84638845D01*
X121186814Y-84648436D01*
X121033574Y-84662003D01*
X120860238Y-84658253D01*
X120692706Y-84637264D01*
X120630954Y-84624875D01*
X120559435Y-84608269D01*
X120527330Y-84597520D01*
X120528236Y-84569349D01*
X120546128Y-84510532D01*
X120561888Y-84474450D01*
X120593569Y-84448831D01*
X120651029Y-84462689D01*
X120743350Y-84482674D01*
X120872215Y-84490797D01*
X121013309Y-84487025D01*
X121144023Y-84471986D01*
X121241746Y-84446307D01*
X121390211Y-84360205D01*
X121505900Y-84232626D01*
X121575415Y-84069682D01*
X121598209Y-83872254D01*
X121596957Y-83825353D01*
X121563331Y-83631072D01*
X121484390Y-83473020D01*
X121360758Y-83352127D01*
X121193057Y-83269319D01*
X121123107Y-83252982D01*
X120999921Y-83239957D01*
X120864785Y-83237475D01*
X120740791Y-83245725D01*
X120651029Y-83264895D01*
X120615287Y-83276610D01*
X120574683Y-83270596D01*
X120546945Y-83219202D01*
X120527830Y-83166123D01*
X120518621Y-83134077D01*
X120536047Y-83125756D01*
X120596894Y-83108848D01*
X120686345Y-83088630D01*
X120776689Y-83073676D01*
X120999282Y-83067907D01*
X121212103Y-83103693D01*
G37*
G36*
X131028966Y-83602484D02*
G01*
X131028987Y-83636769D01*
X131030660Y-83844269D01*
X131036213Y-84002994D01*
X131047334Y-84121326D01*
X131065712Y-84207646D01*
X131093035Y-84270335D01*
X131130992Y-84317773D01*
X131181272Y-84358342D01*
X131265774Y-84391443D01*
X131379021Y-84402536D01*
X131492796Y-84390775D01*
X131580266Y-84356299D01*
X131622195Y-84321935D01*
X131661578Y-84271160D01*
X131690277Y-84202510D01*
X131709863Y-84107896D01*
X131721906Y-83979229D01*
X131727980Y-83808418D01*
X131729655Y-83587374D01*
X131729655Y-83060919D01*
X131848589Y-83060919D01*
X131967521Y-83060919D01*
X131958072Y-83652126D01*
X131957014Y-83716924D01*
X131953405Y-83903116D01*
X131949038Y-84042513D01*
X131942931Y-84144081D01*
X131934102Y-84216783D01*
X131921569Y-84269585D01*
X131904348Y-84311450D01*
X131881460Y-84351344D01*
X131790643Y-84458904D01*
X131652683Y-84554880D01*
X131498529Y-84608750D01*
X131364074Y-84617230D01*
X131199542Y-84591218D01*
X131050140Y-84531053D01*
X130935194Y-84442440D01*
X130893055Y-84390201D01*
X130857020Y-84326570D01*
X130830872Y-84248531D01*
X130813123Y-84147298D01*
X130802287Y-84014084D01*
X130796876Y-83840103D01*
X130795402Y-83616569D01*
X130795402Y-83060919D01*
X130912184Y-83060919D01*
X131028966Y-83060919D01*
X131028966Y-83602484D01*
G37*
G36*
X120226667Y-83863792D02*
G01*
X120226667Y-84637470D01*
X120124483Y-84637470D01*
X120022299Y-84637470D01*
X120022299Y-83863792D01*
X120022299Y-83090114D01*
X120124483Y-83090114D01*
X120226667Y-83090114D01*
X120226667Y-83863792D01*
G37*
G36*
X119511285Y-84017447D02*
G01*
X119578752Y-84197391D01*
X119636728Y-84353146D01*
X119682397Y-84477115D01*
X119712944Y-84561699D01*
X119725555Y-84599302D01*
X119725900Y-84616174D01*
X119698453Y-84632864D01*
X119625060Y-84632084D01*
X119624994Y-84632078D01*
X119570903Y-84625472D01*
X119533065Y-84609094D01*
X119502229Y-84571742D01*
X119469142Y-84502214D01*
X119424553Y-84389310D01*
X119334349Y-84155746D01*
X119025660Y-84147503D01*
X118716970Y-84139259D01*
X118622952Y-84388365D01*
X118528933Y-84637470D01*
X118411228Y-84637470D01*
X118338546Y-84634044D01*
X118309044Y-84619168D01*
X118313283Y-84586379D01*
X118317209Y-84576176D01*
X118340369Y-84515752D01*
X118379737Y-84412894D01*
X118431983Y-84276308D01*
X118493776Y-84114702D01*
X118547949Y-83972982D01*
X118771763Y-83972982D01*
X118776689Y-83978117D01*
X118824140Y-83986872D01*
X118911328Y-83992917D01*
X119025886Y-83995172D01*
X119289742Y-83995172D01*
X119218669Y-83812700D01*
X119185987Y-83725855D01*
X119136463Y-83585934D01*
X119095924Y-83462396D01*
X119070894Y-83386297D01*
X119045212Y-83320107D01*
X119029655Y-83294679D01*
X119029619Y-83294681D01*
X119014668Y-83320833D01*
X118984933Y-83391381D01*
X118944705Y-83495607D01*
X118898276Y-83622794D01*
X118852775Y-83750196D01*
X118813263Y-83860066D01*
X118784856Y-83938212D01*
X118771763Y-83972982D01*
X118547949Y-83972982D01*
X118561787Y-83936781D01*
X118635779Y-83742645D01*
X118711295Y-83544169D01*
X118770631Y-83390014D01*
X118816810Y-83274666D01*
X118852855Y-83192611D01*
X118881786Y-83138334D01*
X118906626Y-83106321D01*
X118930399Y-83091058D01*
X118956125Y-83087029D01*
X118986826Y-83088721D01*
X119025526Y-83090619D01*
X119161035Y-83091123D01*
X119438391Y-83824216D01*
X119502882Y-83995172D01*
X119511285Y-84017447D01*
G37*
G36*
X117715862Y-83095999D02*
G01*
X118022414Y-83104712D01*
X118030197Y-83871091D01*
X118037981Y-84637470D01*
X117920715Y-84637470D01*
X117803448Y-84637470D01*
X117803448Y-83936781D01*
X117803448Y-83236091D01*
X117630177Y-83236091D01*
X117556456Y-83238149D01*
X117393904Y-83264112D01*
X117279759Y-83320696D01*
X117212434Y-83408961D01*
X117190345Y-83529965D01*
X117190727Y-83549099D01*
X117201317Y-83640260D01*
X117221896Y-83707619D01*
X117227690Y-83716890D01*
X117288174Y-83771347D01*
X117380914Y-83823170D01*
X117484415Y-83862068D01*
X117577184Y-83877749D01*
X117602721Y-83878873D01*
X117646711Y-83897451D01*
X117657471Y-83951379D01*
X117657467Y-83953566D01*
X117650253Y-84000046D01*
X117618088Y-84020073D01*
X117544360Y-84024367D01*
X117426361Y-84014760D01*
X117267117Y-83966919D01*
X117136314Y-83885859D01*
X117038686Y-83779343D01*
X116978967Y-83655134D01*
X116961890Y-83520994D01*
X116992189Y-83384686D01*
X117074596Y-83253973D01*
X117139347Y-83193480D01*
X117232455Y-83142232D01*
X117352982Y-83110528D01*
X117510820Y-83095929D01*
X117715862Y-83095999D01*
G37*
G36*
X129944789Y-83053657D02*
G01*
X130132500Y-83119586D01*
X130296844Y-83226352D01*
X130340936Y-83267066D01*
X130466561Y-83429162D01*
X130546369Y-83613839D01*
X130578193Y-83810201D01*
X130559868Y-84007349D01*
X130489228Y-84194388D01*
X130418271Y-84303216D01*
X130268850Y-84455475D01*
X130090223Y-84563567D01*
X130000080Y-84588924D01*
X129862566Y-84604224D01*
X129710572Y-84604669D01*
X129566562Y-84590339D01*
X129453005Y-84561312D01*
X129415516Y-84545815D01*
X129361097Y-84513459D01*
X129339488Y-84467726D01*
X129335632Y-84386140D01*
X129336110Y-84349826D01*
X129340247Y-84284012D01*
X129347250Y-84257930D01*
X129359540Y-84262615D01*
X129410904Y-84288888D01*
X129485928Y-84330567D01*
X129511506Y-84344291D01*
X129678365Y-84397032D01*
X129854825Y-84396540D01*
X130027898Y-84342528D01*
X130062936Y-84324054D01*
X130196958Y-84217142D01*
X130289616Y-84080006D01*
X130338740Y-83923690D01*
X130342162Y-83759236D01*
X130297711Y-83597689D01*
X130203217Y-83450090D01*
X130085967Y-83344071D01*
X129928135Y-83265716D01*
X129758809Y-83241560D01*
X129585550Y-83272472D01*
X129415920Y-83359326D01*
X129335632Y-83415240D01*
X129335632Y-83280445D01*
X129336461Y-83225558D01*
X129347760Y-83165334D01*
X129384015Y-83127362D01*
X129459713Y-83089328D01*
X129559711Y-83054207D01*
X129748822Y-83031040D01*
X129944789Y-83053657D01*
G37*
G36*
X128923345Y-84065261D02*
G01*
X128924002Y-84066630D01*
X128998558Y-84223061D01*
X129063445Y-84361624D01*
X129114700Y-84473657D01*
X129148359Y-84550496D01*
X129160460Y-84583480D01*
X129157541Y-84588990D01*
X129117003Y-84602761D01*
X129043969Y-84608275D01*
X129006070Y-84607824D01*
X128957470Y-84600103D01*
X128922041Y-84573669D01*
X128887467Y-84516983D01*
X128841432Y-84418505D01*
X128755386Y-84228735D01*
X128407590Y-84228735D01*
X128059794Y-84228735D01*
X127979141Y-84418505D01*
X127898488Y-84608275D01*
X127771431Y-84608275D01*
X127644374Y-84608275D01*
X127698673Y-84484195D01*
X127720208Y-84436056D01*
X127764901Y-84337685D01*
X127826799Y-84202312D01*
X127901945Y-84038567D01*
X127921916Y-83995172D01*
X128168553Y-83995172D01*
X128404181Y-83995172D01*
X128440436Y-83994888D01*
X128540349Y-83990656D01*
X128607898Y-83982409D01*
X128630077Y-83971508D01*
X128602784Y-83906734D01*
X128552599Y-83793409D01*
X128501428Y-83683391D01*
X128455321Y-83589246D01*
X128420329Y-83523544D01*
X128402504Y-83498850D01*
X128380925Y-83522076D01*
X128352887Y-83579137D01*
X128331950Y-83629353D01*
X128291011Y-83723575D01*
X128244671Y-83827298D01*
X128168553Y-83995172D01*
X127921916Y-83995172D01*
X127986386Y-83855084D01*
X128076163Y-83660493D01*
X128399355Y-82960872D01*
X128542792Y-83266355D01*
X128582281Y-83350144D01*
X128656977Y-83507721D01*
X128743937Y-83690387D01*
X128835335Y-83881710D01*
X128878392Y-83971508D01*
X128923345Y-84065261D01*
G37*
G36*
X127437979Y-83823727D02*
G01*
X127437999Y-84137533D01*
X127438027Y-84593677D01*
X127109531Y-84578233D01*
X126995855Y-84570998D01*
X126869411Y-84558221D01*
X126771633Y-84542978D01*
X126717375Y-84527200D01*
X126709111Y-84522348D01*
X126620271Y-84440850D01*
X126549663Y-84326378D01*
X126512016Y-84202238D01*
X126508051Y-84131854D01*
X126512594Y-84111587D01*
X126746540Y-84111587D01*
X126748869Y-84210164D01*
X126808903Y-84303050D01*
X126813275Y-84307368D01*
X126869048Y-84349347D01*
X126938005Y-84369512D01*
X127042466Y-84374712D01*
X127204368Y-84374712D01*
X127204368Y-84137533D01*
X127204368Y-83900355D01*
X127038846Y-83914081D01*
X127032871Y-83914586D01*
X126928358Y-83929443D01*
X126859648Y-83957375D01*
X126805283Y-84006911D01*
X126801959Y-84010828D01*
X126746540Y-84111587D01*
X126512594Y-84111587D01*
X126537946Y-83998483D01*
X126621303Y-83880505D01*
X126760324Y-83774124D01*
X126760310Y-83768933D01*
X126742391Y-83728279D01*
X126705566Y-83661778D01*
X126688088Y-83628267D01*
X126657105Y-83500264D01*
X126883450Y-83500264D01*
X126901168Y-83591868D01*
X126937988Y-83656147D01*
X126941787Y-83659419D01*
X127011246Y-83697633D01*
X127098563Y-83722883D01*
X127204368Y-83740053D01*
X127204368Y-83502670D01*
X127203856Y-83395416D01*
X127199839Y-83320753D01*
X127188588Y-83282057D01*
X127166372Y-83267509D01*
X127129460Y-83265287D01*
X127058081Y-83275320D01*
X126967064Y-83312299D01*
X126905562Y-83364542D01*
X126888043Y-83410200D01*
X126883450Y-83500264D01*
X126657105Y-83500264D01*
X126655378Y-83493131D01*
X126672806Y-83355428D01*
X126736737Y-83229210D01*
X126843534Y-83128531D01*
X126899851Y-83103217D01*
X127013574Y-83079851D01*
X127178874Y-83066162D01*
X127437931Y-83053776D01*
X127437959Y-83502670D01*
X127437979Y-83823727D01*
G37*
D13*
%TO.C,REF\u002A\u002A*%
X103170406Y-86094949D02*
X103196127Y-86110647D01*
X103222778Y-86132227D01*
X103222778Y-86779684D01*
X103196127Y-86801264D01*
X103164767Y-86818739D01*
X103128966Y-86819575D01*
X103097528Y-86799082D01*
X103093652Y-86794416D01*
X103088186Y-86784949D01*
X103083979Y-86771267D01*
X103080867Y-86750748D01*
X103078687Y-86720768D01*
X103077276Y-86678704D01*
X103076471Y-86621932D01*
X103076107Y-86547830D01*
X103076022Y-86453773D01*
X103076022Y-86132227D01*
X103102673Y-86110647D01*
X103126386Y-86095877D01*
X103149400Y-86089067D01*
X103170406Y-86094949D01*
G36*
X103170406Y-86094949D02*
G01*
X103196127Y-86110647D01*
X103222778Y-86132227D01*
X103222778Y-86779684D01*
X103196127Y-86801264D01*
X103164767Y-86818739D01*
X103128966Y-86819575D01*
X103097528Y-86799082D01*
X103093652Y-86794416D01*
X103088186Y-86784949D01*
X103083979Y-86771267D01*
X103080867Y-86750748D01*
X103078687Y-86720768D01*
X103077276Y-86678704D01*
X103076471Y-86621932D01*
X103076107Y-86547830D01*
X103076022Y-86453773D01*
X103076022Y-86132227D01*
X103102673Y-86110647D01*
X103126386Y-86095877D01*
X103149400Y-86089067D01*
X103170406Y-86094949D01*
G37*
X110301137Y-86093463D02*
X110335291Y-86116776D01*
X110363000Y-86144485D01*
X110363000Y-86457537D01*
X110362959Y-86541567D01*
X110362701Y-86615789D01*
X110362030Y-86672541D01*
X110360752Y-86714512D01*
X110358673Y-86744389D01*
X110355599Y-86764861D01*
X110351334Y-86778614D01*
X110345684Y-86788337D01*
X110338455Y-86796717D01*
X110306991Y-86818181D01*
X110271826Y-86819947D01*
X110238822Y-86800267D01*
X110233516Y-86794398D01*
X110228066Y-86785314D01*
X110223900Y-86771973D01*
X110220846Y-86751757D01*
X110218732Y-86722049D01*
X110217386Y-86680232D01*
X110216638Y-86623689D01*
X110216314Y-86549802D01*
X110216245Y-86455956D01*
X110216284Y-86380294D01*
X110216539Y-86302385D01*
X110217183Y-86242375D01*
X110218387Y-86197648D01*
X110220324Y-86165585D01*
X110223164Y-86143571D01*
X110227079Y-86128987D01*
X110232242Y-86119218D01*
X110238822Y-86111645D01*
X110268006Y-86092623D01*
X110301137Y-86093463D01*
G36*
X110301137Y-86093463D02*
G01*
X110335291Y-86116776D01*
X110363000Y-86144485D01*
X110363000Y-86457537D01*
X110362959Y-86541567D01*
X110362701Y-86615789D01*
X110362030Y-86672541D01*
X110360752Y-86714512D01*
X110358673Y-86744389D01*
X110355599Y-86764861D01*
X110351334Y-86778614D01*
X110345684Y-86788337D01*
X110338455Y-86796717D01*
X110306991Y-86818181D01*
X110271826Y-86819947D01*
X110238822Y-86800267D01*
X110233516Y-86794398D01*
X110228066Y-86785314D01*
X110223900Y-86771973D01*
X110220846Y-86751757D01*
X110218732Y-86722049D01*
X110217386Y-86680232D01*
X110216638Y-86623689D01*
X110216314Y-86549802D01*
X110216245Y-86455956D01*
X110216284Y-86380294D01*
X110216539Y-86302385D01*
X110217183Y-86242375D01*
X110218387Y-86197648D01*
X110220324Y-86165585D01*
X110223164Y-86143571D01*
X110227079Y-86128987D01*
X110232242Y-86119218D01*
X110238822Y-86111645D01*
X110268006Y-86092623D01*
X110301137Y-86093463D01*
G37*
X109769562Y-80852850D02*
X109852313Y-80880053D01*
X109927406Y-80925484D01*
X109999298Y-80991302D01*
X110037846Y-81035567D01*
X110077256Y-81093961D01*
X110102446Y-81154586D01*
X110115861Y-81223865D01*
X110119948Y-81308222D01*
X110119669Y-81354307D01*
X110117460Y-81395450D01*
X110111894Y-81427582D01*
X110101586Y-81458122D01*
X110085148Y-81494489D01*
X110071200Y-81521728D01*
X110012665Y-81607429D01*
X109940619Y-81676617D01*
X109856947Y-81727741D01*
X109763531Y-81759250D01*
X109730434Y-81766225D01*
X109689960Y-81773094D01*
X109656999Y-81774919D01*
X109622698Y-81771947D01*
X109578200Y-81764426D01*
X109526934Y-81752002D01*
X109436434Y-81714112D01*
X109357345Y-81659836D01*
X109291528Y-81591770D01*
X109240840Y-81512511D01*
X109207140Y-81424654D01*
X109192286Y-81330795D01*
X109198136Y-81233530D01*
X109224399Y-81137220D01*
X109269418Y-81048494D01*
X109330373Y-80973419D01*
X109405184Y-80913641D01*
X109491768Y-80870809D01*
X109588043Y-80846571D01*
X109691928Y-80842576D01*
X109769562Y-80852850D01*
G36*
X109769562Y-80852850D02*
G01*
X109852313Y-80880053D01*
X109927406Y-80925484D01*
X109999298Y-80991302D01*
X110037846Y-81035567D01*
X110077256Y-81093961D01*
X110102446Y-81154586D01*
X110115861Y-81223865D01*
X110119948Y-81308222D01*
X110119669Y-81354307D01*
X110117460Y-81395450D01*
X110111894Y-81427582D01*
X110101586Y-81458122D01*
X110085148Y-81494489D01*
X110071200Y-81521728D01*
X110012665Y-81607429D01*
X109940619Y-81676617D01*
X109856947Y-81727741D01*
X109763531Y-81759250D01*
X109730434Y-81766225D01*
X109689960Y-81773094D01*
X109656999Y-81774919D01*
X109622698Y-81771947D01*
X109578200Y-81764426D01*
X109526934Y-81752002D01*
X109436434Y-81714112D01*
X109357345Y-81659836D01*
X109291528Y-81591770D01*
X109240840Y-81512511D01*
X109207140Y-81424654D01*
X109192286Y-81330795D01*
X109198136Y-81233530D01*
X109224399Y-81137220D01*
X109269418Y-81048494D01*
X109330373Y-80973419D01*
X109405184Y-80913641D01*
X109491768Y-80870809D01*
X109588043Y-80846571D01*
X109691928Y-80842576D01*
X109769562Y-80852850D01*
G37*
X102470767Y-86089068D02*
X102564890Y-86089158D01*
X102639405Y-86089498D01*
X102696811Y-86090239D01*
X102739611Y-86091535D01*
X102770304Y-86093537D01*
X102791391Y-86096396D01*
X102805373Y-86100266D01*
X102814750Y-86105298D01*
X102822022Y-86111645D01*
X102840828Y-86144362D01*
X102842275Y-86181939D01*
X102825917Y-86215178D01*
X102824557Y-86216631D01*
X102813354Y-86224992D01*
X102796252Y-86230547D01*
X102769082Y-86233840D01*
X102727678Y-86235418D01*
X102667873Y-86235822D01*
X102528511Y-86235822D01*
X102528511Y-86499589D01*
X102528436Y-86575417D01*
X102528028Y-86642083D01*
X102527046Y-86691867D01*
X102525250Y-86727784D01*
X102522399Y-86752850D01*
X102518253Y-86770081D01*
X102512571Y-86782492D01*
X102505114Y-86793100D01*
X102502824Y-86795906D01*
X102471646Y-86818548D01*
X102437266Y-86820112D01*
X102404334Y-86800267D01*
X102397355Y-86792191D01*
X102391883Y-86781593D01*
X102387863Y-86765749D01*
X102385072Y-86741773D01*
X102383288Y-86706774D01*
X102382289Y-86657864D01*
X102381852Y-86592154D01*
X102381756Y-86506756D01*
X102381756Y-86235822D01*
X102235820Y-86235822D01*
X102224720Y-86235821D01*
X102168202Y-86235596D01*
X102129358Y-86234457D01*
X102103965Y-86231657D01*
X102087804Y-86226450D01*
X102076652Y-86218089D01*
X102066289Y-86205826D01*
X102050441Y-86175138D01*
X102053543Y-86141358D01*
X102079187Y-86108822D01*
X102084129Y-86105105D01*
X102094338Y-86100269D01*
X102109764Y-86096506D01*
X102132886Y-86093683D01*
X102166183Y-86091670D01*
X102212137Y-86090333D01*
X102273228Y-86089542D01*
X102351935Y-86089163D01*
X102450740Y-86089067D01*
X102470767Y-86089068D01*
G36*
X102470767Y-86089068D02*
G01*
X102564890Y-86089158D01*
X102639405Y-86089498D01*
X102696811Y-86090239D01*
X102739611Y-86091535D01*
X102770304Y-86093537D01*
X102791391Y-86096396D01*
X102805373Y-86100266D01*
X102814750Y-86105298D01*
X102822022Y-86111645D01*
X102840828Y-86144362D01*
X102842275Y-86181939D01*
X102825917Y-86215178D01*
X102824557Y-86216631D01*
X102813354Y-86224992D01*
X102796252Y-86230547D01*
X102769082Y-86233840D01*
X102727678Y-86235418D01*
X102667873Y-86235822D01*
X102528511Y-86235822D01*
X102528511Y-86499589D01*
X102528436Y-86575417D01*
X102528028Y-86642083D01*
X102527046Y-86691867D01*
X102525250Y-86727784D01*
X102522399Y-86752850D01*
X102518253Y-86770081D01*
X102512571Y-86782492D01*
X102505114Y-86793100D01*
X102502824Y-86795906D01*
X102471646Y-86818548D01*
X102437266Y-86820112D01*
X102404334Y-86800267D01*
X102397355Y-86792191D01*
X102391883Y-86781593D01*
X102387863Y-86765749D01*
X102385072Y-86741773D01*
X102383288Y-86706774D01*
X102382289Y-86657864D01*
X102381852Y-86592154D01*
X102381756Y-86506756D01*
X102381756Y-86235822D01*
X102235820Y-86235822D01*
X102224720Y-86235821D01*
X102168202Y-86235596D01*
X102129358Y-86234457D01*
X102103965Y-86231657D01*
X102087804Y-86226450D01*
X102076652Y-86218089D01*
X102066289Y-86205826D01*
X102050441Y-86175138D01*
X102053543Y-86141358D01*
X102079187Y-86108822D01*
X102084129Y-86105105D01*
X102094338Y-86100269D01*
X102109764Y-86096506D01*
X102132886Y-86093683D01*
X102166183Y-86091670D01*
X102212137Y-86090333D01*
X102273228Y-86089542D01*
X102351935Y-86089163D01*
X102450740Y-86089067D01*
X102470767Y-86089068D01*
G37*
X101794734Y-86111645D02*
X101800366Y-86117835D01*
X101805456Y-86126041D01*
X101809543Y-86137817D01*
X101812721Y-86155276D01*
X101815087Y-86180530D01*
X101816738Y-86215690D01*
X101817769Y-86262869D01*
X101818277Y-86324177D01*
X101818359Y-86401727D01*
X101818109Y-86497631D01*
X101817625Y-86614000D01*
X101817557Y-86628175D01*
X101816971Y-86689937D01*
X101815648Y-86733620D01*
X101813103Y-86763001D01*
X101808848Y-86781855D01*
X101802396Y-86793959D01*
X101793262Y-86803089D01*
X101759804Y-86820506D01*
X101724856Y-86817604D01*
X101693953Y-86793100D01*
X101684944Y-86779897D01*
X101677492Y-86761361D01*
X101673124Y-86735333D01*
X101671069Y-86696787D01*
X101670556Y-86640700D01*
X101670556Y-86518045D01*
X101173845Y-86518045D01*
X101173845Y-86652871D01*
X101173772Y-86688662D01*
X101173009Y-86734992D01*
X101170833Y-86765526D01*
X101166536Y-86784557D01*
X101159412Y-86796374D01*
X101148755Y-86805271D01*
X101116504Y-86820341D01*
X101081217Y-86817673D01*
X101050486Y-86793100D01*
X101045831Y-86786845D01*
X101039895Y-86776321D01*
X101035364Y-86762391D01*
X101032048Y-86742317D01*
X101029759Y-86713360D01*
X101028308Y-86672780D01*
X101027505Y-86617840D01*
X101027162Y-86545799D01*
X101027089Y-86453920D01*
X101027089Y-86144485D01*
X101054798Y-86116776D01*
X101086177Y-86094533D01*
X101119406Y-86091844D01*
X101151267Y-86111645D01*
X101159553Y-86121415D01*
X101166965Y-86137307D01*
X101171302Y-86161275D01*
X101173338Y-86198148D01*
X101173845Y-86252756D01*
X101173845Y-86371289D01*
X101670556Y-86371289D01*
X101670556Y-86255776D01*
X101670994Y-86204078D01*
X101672958Y-86169554D01*
X101677474Y-86146978D01*
X101685567Y-86131126D01*
X101698265Y-86116776D01*
X101729643Y-86094533D01*
X101762872Y-86091844D01*
X101794734Y-86111645D01*
G36*
X101794734Y-86111645D02*
G01*
X101800366Y-86117835D01*
X101805456Y-86126041D01*
X101809543Y-86137817D01*
X101812721Y-86155276D01*
X101815087Y-86180530D01*
X101816738Y-86215690D01*
X101817769Y-86262869D01*
X101818277Y-86324177D01*
X101818359Y-86401727D01*
X101818109Y-86497631D01*
X101817625Y-86614000D01*
X101817557Y-86628175D01*
X101816971Y-86689937D01*
X101815648Y-86733620D01*
X101813103Y-86763001D01*
X101808848Y-86781855D01*
X101802396Y-86793959D01*
X101793262Y-86803089D01*
X101759804Y-86820506D01*
X101724856Y-86817604D01*
X101693953Y-86793100D01*
X101684944Y-86779897D01*
X101677492Y-86761361D01*
X101673124Y-86735333D01*
X101671069Y-86696787D01*
X101670556Y-86640700D01*
X101670556Y-86518045D01*
X101173845Y-86518045D01*
X101173845Y-86652871D01*
X101173772Y-86688662D01*
X101173009Y-86734992D01*
X101170833Y-86765526D01*
X101166536Y-86784557D01*
X101159412Y-86796374D01*
X101148755Y-86805271D01*
X101116504Y-86820341D01*
X101081217Y-86817673D01*
X101050486Y-86793100D01*
X101045831Y-86786845D01*
X101039895Y-86776321D01*
X101035364Y-86762391D01*
X101032048Y-86742317D01*
X101029759Y-86713360D01*
X101028308Y-86672780D01*
X101027505Y-86617840D01*
X101027162Y-86545799D01*
X101027089Y-86453920D01*
X101027089Y-86144485D01*
X101054798Y-86116776D01*
X101086177Y-86094533D01*
X101119406Y-86091844D01*
X101151267Y-86111645D01*
X101159553Y-86121415D01*
X101166965Y-86137307D01*
X101171302Y-86161275D01*
X101173338Y-86198148D01*
X101173845Y-86252756D01*
X101173845Y-86371289D01*
X101670556Y-86371289D01*
X101670556Y-86255776D01*
X101670994Y-86204078D01*
X101672958Y-86169554D01*
X101677474Y-86146978D01*
X101685567Y-86131126D01*
X101698265Y-86116776D01*
X101729643Y-86094533D01*
X101762872Y-86091844D01*
X101794734Y-86111645D01*
G37*
X106500133Y-86700396D02*
X106498163Y-86733175D01*
X106495235Y-86756095D01*
X106491158Y-86771897D01*
X106485743Y-86783319D01*
X106478803Y-86793100D01*
X106455406Y-86822845D01*
X106289714Y-86822251D01*
X106254918Y-86821953D01*
X106156435Y-86818522D01*
X106075473Y-86810839D01*
X106008379Y-86798282D01*
X105951496Y-86780227D01*
X105901169Y-86756052D01*
X105897810Y-86754135D01*
X105839998Y-86717417D01*
X105797644Y-86680451D01*
X105764828Y-86636966D01*
X105735628Y-86580689D01*
X105731346Y-86571073D01*
X105708769Y-86507887D01*
X105703034Y-86462333D01*
X105852279Y-86462333D01*
X105857892Y-86487061D01*
X105863618Y-86502939D01*
X105896548Y-86562847D01*
X105943886Y-86608600D01*
X106007652Y-86641736D01*
X106089861Y-86663790D01*
X106092655Y-86664292D01*
X106138940Y-86670255D01*
X106195336Y-86674483D01*
X106250274Y-86676089D01*
X106344156Y-86676089D01*
X106344156Y-86235822D01*
X106256667Y-86236270D01*
X106189747Y-86238746D01*
X106097349Y-86249998D01*
X106018034Y-86269537D01*
X105956060Y-86296511D01*
X105925120Y-86317240D01*
X105897000Y-86347006D01*
X105873660Y-86389434D01*
X105866533Y-86405400D01*
X105854709Y-86437902D01*
X105852279Y-86462333D01*
X105703034Y-86462333D01*
X105701797Y-86452509D01*
X105710399Y-86397483D01*
X105734541Y-86335351D01*
X105735337Y-86333658D01*
X105775788Y-86264236D01*
X105826473Y-86207638D01*
X105889198Y-86163070D01*
X105965774Y-86129741D01*
X106058009Y-86106861D01*
X106167712Y-86093636D01*
X106296691Y-86089275D01*
X106300263Y-86089270D01*
X106360283Y-86089410D01*
X106402214Y-86090446D01*
X106430328Y-86093040D01*
X106448897Y-86097853D01*
X106462194Y-86105544D01*
X106474491Y-86116776D01*
X106502200Y-86144485D01*
X106502200Y-86453920D01*
X106502175Y-86515526D01*
X106501950Y-86594311D01*
X106501332Y-86655021D01*
X106500775Y-86676089D01*
X106500133Y-86700396D01*
G36*
X106500133Y-86700396D02*
G01*
X106498163Y-86733175D01*
X106495235Y-86756095D01*
X106491158Y-86771897D01*
X106485743Y-86783319D01*
X106478803Y-86793100D01*
X106455406Y-86822845D01*
X106289714Y-86822251D01*
X106254918Y-86821953D01*
X106156435Y-86818522D01*
X106075473Y-86810839D01*
X106008379Y-86798282D01*
X105951496Y-86780227D01*
X105901169Y-86756052D01*
X105897810Y-86754135D01*
X105839998Y-86717417D01*
X105797644Y-86680451D01*
X105764828Y-86636966D01*
X105735628Y-86580689D01*
X105731346Y-86571073D01*
X105708769Y-86507887D01*
X105703034Y-86462333D01*
X105852279Y-86462333D01*
X105857892Y-86487061D01*
X105863618Y-86502939D01*
X105896548Y-86562847D01*
X105943886Y-86608600D01*
X106007652Y-86641736D01*
X106089861Y-86663790D01*
X106092655Y-86664292D01*
X106138940Y-86670255D01*
X106195336Y-86674483D01*
X106250274Y-86676089D01*
X106344156Y-86676089D01*
X106344156Y-86235822D01*
X106256667Y-86236270D01*
X106189747Y-86238746D01*
X106097349Y-86249998D01*
X106018034Y-86269537D01*
X105956060Y-86296511D01*
X105925120Y-86317240D01*
X105897000Y-86347006D01*
X105873660Y-86389434D01*
X105866533Y-86405400D01*
X105854709Y-86437902D01*
X105852279Y-86462333D01*
X105703034Y-86462333D01*
X105701797Y-86452509D01*
X105710399Y-86397483D01*
X105734541Y-86335351D01*
X105735337Y-86333658D01*
X105775788Y-86264236D01*
X105826473Y-86207638D01*
X105889198Y-86163070D01*
X105965774Y-86129741D01*
X106058009Y-86106861D01*
X106167712Y-86093636D01*
X106296691Y-86089275D01*
X106300263Y-86089270D01*
X106360283Y-86089410D01*
X106402214Y-86090446D01*
X106430328Y-86093040D01*
X106448897Y-86097853D01*
X106462194Y-86105544D01*
X106474491Y-86116776D01*
X106502200Y-86144485D01*
X106502200Y-86453920D01*
X106502175Y-86515526D01*
X106501950Y-86594311D01*
X106501332Y-86655021D01*
X106500775Y-86676089D01*
X106500133Y-86700396D01*
G37*
X113591817Y-86274427D02*
X113591870Y-86355041D01*
X113591622Y-86455956D01*
X113591583Y-86531617D01*
X113591328Y-86609526D01*
X113590684Y-86669536D01*
X113589480Y-86714264D01*
X113587543Y-86746326D01*
X113584703Y-86768340D01*
X113580788Y-86782924D01*
X113575626Y-86792694D01*
X113569045Y-86800267D01*
X113562077Y-86806501D01*
X113549079Y-86813801D01*
X113529931Y-86818554D01*
X113500528Y-86821292D01*
X113456762Y-86822545D01*
X113394528Y-86822845D01*
X113345582Y-86822469D01*
X113238722Y-86818041D01*
X113149494Y-86807953D01*
X113074696Y-86791365D01*
X113011125Y-86767435D01*
X112955579Y-86735321D01*
X112904854Y-86694182D01*
X112898866Y-86688330D01*
X112861999Y-86639821D01*
X112830899Y-86579013D01*
X112809417Y-86514769D01*
X112804136Y-86476026D01*
X112951353Y-86476026D01*
X112969635Y-86526961D01*
X112999305Y-86572878D01*
X113046002Y-86615287D01*
X113107392Y-86645090D01*
X113186538Y-86664226D01*
X113188028Y-86664464D01*
X113236999Y-86670256D01*
X113295693Y-86674396D01*
X113351734Y-86676004D01*
X113444867Y-86676089D01*
X113444867Y-86235822D01*
X113368667Y-86235808D01*
X113365639Y-86235817D01*
X113314519Y-86237782D01*
X113254416Y-86242507D01*
X113197708Y-86249035D01*
X113147750Y-86258331D01*
X113072998Y-86284600D01*
X113015489Y-86323899D01*
X112973988Y-86376933D01*
X112952771Y-86428200D01*
X112951353Y-86476026D01*
X112804136Y-86476026D01*
X112801400Y-86455956D01*
X112802679Y-86434739D01*
X112814991Y-86377323D01*
X112837520Y-86317413D01*
X112866750Y-86263363D01*
X112899167Y-86223532D01*
X112918708Y-86206510D01*
X112973420Y-86167322D01*
X113033723Y-86137193D01*
X113102919Y-86115232D01*
X113184311Y-86100550D01*
X113281200Y-86092259D01*
X113396889Y-86089467D01*
X113436371Y-86089066D01*
X113482082Y-86088653D01*
X113517883Y-86090457D01*
X113544974Y-86096739D01*
X113564556Y-86109759D01*
X113577830Y-86131778D01*
X113585998Y-86165055D01*
X113590260Y-86211851D01*
X113590857Y-86235822D01*
X113591817Y-86274427D01*
G36*
X113591817Y-86274427D02*
G01*
X113591870Y-86355041D01*
X113591622Y-86455956D01*
X113591583Y-86531617D01*
X113591328Y-86609526D01*
X113590684Y-86669536D01*
X113589480Y-86714264D01*
X113587543Y-86746326D01*
X113584703Y-86768340D01*
X113580788Y-86782924D01*
X113575626Y-86792694D01*
X113569045Y-86800267D01*
X113562077Y-86806501D01*
X113549079Y-86813801D01*
X113529931Y-86818554D01*
X113500528Y-86821292D01*
X113456762Y-86822545D01*
X113394528Y-86822845D01*
X113345582Y-86822469D01*
X113238722Y-86818041D01*
X113149494Y-86807953D01*
X113074696Y-86791365D01*
X113011125Y-86767435D01*
X112955579Y-86735321D01*
X112904854Y-86694182D01*
X112898866Y-86688330D01*
X112861999Y-86639821D01*
X112830899Y-86579013D01*
X112809417Y-86514769D01*
X112804136Y-86476026D01*
X112951353Y-86476026D01*
X112969635Y-86526961D01*
X112999305Y-86572878D01*
X113046002Y-86615287D01*
X113107392Y-86645090D01*
X113186538Y-86664226D01*
X113188028Y-86664464D01*
X113236999Y-86670256D01*
X113295693Y-86674396D01*
X113351734Y-86676004D01*
X113444867Y-86676089D01*
X113444867Y-86235822D01*
X113368667Y-86235808D01*
X113365639Y-86235817D01*
X113314519Y-86237782D01*
X113254416Y-86242507D01*
X113197708Y-86249035D01*
X113147750Y-86258331D01*
X113072998Y-86284600D01*
X113015489Y-86323899D01*
X112973988Y-86376933D01*
X112952771Y-86428200D01*
X112951353Y-86476026D01*
X112804136Y-86476026D01*
X112801400Y-86455956D01*
X112802679Y-86434739D01*
X112814991Y-86377323D01*
X112837520Y-86317413D01*
X112866750Y-86263363D01*
X112899167Y-86223532D01*
X112918708Y-86206510D01*
X112973420Y-86167322D01*
X113033723Y-86137193D01*
X113102919Y-86115232D01*
X113184311Y-86100550D01*
X113281200Y-86092259D01*
X113396889Y-86089467D01*
X113436371Y-86089066D01*
X113482082Y-86088653D01*
X113517883Y-86090457D01*
X113544974Y-86096739D01*
X113564556Y-86109759D01*
X113577830Y-86131778D01*
X113585998Y-86165055D01*
X113590260Y-86211851D01*
X113590857Y-86235822D01*
X113591817Y-86274427D01*
G37*
X108646893Y-86087892D02*
X108658301Y-86094029D01*
X108668850Y-86104691D01*
X108680136Y-86118811D01*
X108684589Y-86124772D01*
X108690588Y-86135268D01*
X108695167Y-86149093D01*
X108698519Y-86168998D01*
X108700833Y-86197732D01*
X108702301Y-86238045D01*
X108703113Y-86292687D01*
X108703460Y-86364407D01*
X108703534Y-86455956D01*
X108703511Y-86514486D01*
X108703292Y-86593573D01*
X108702683Y-86654516D01*
X108701492Y-86700062D01*
X108699529Y-86732963D01*
X108696603Y-86755968D01*
X108692523Y-86771826D01*
X108687097Y-86783286D01*
X108680136Y-86793100D01*
X108649708Y-86817493D01*
X108614765Y-86820372D01*
X108577784Y-86801282D01*
X108573600Y-86797807D01*
X108565424Y-86789279D01*
X108559364Y-86777728D01*
X108554981Y-86759896D01*
X108551839Y-86732524D01*
X108549502Y-86692354D01*
X108547531Y-86636128D01*
X108545489Y-86560589D01*
X108539845Y-86341458D01*
X108274556Y-86582099D01*
X108200722Y-86648875D01*
X108135542Y-86706991D01*
X108083348Y-86751949D01*
X108042273Y-86784871D01*
X108010455Y-86806879D01*
X107986026Y-86819094D01*
X107967124Y-86822639D01*
X107951883Y-86818636D01*
X107938439Y-86808207D01*
X107924927Y-86792474D01*
X107918682Y-86783991D01*
X107913050Y-86773413D01*
X107908839Y-86759255D01*
X107905887Y-86738803D01*
X107904032Y-86709342D01*
X107903113Y-86668161D01*
X107902968Y-86612544D01*
X107903435Y-86539779D01*
X107904352Y-86447151D01*
X107907667Y-86132199D01*
X107934318Y-86110633D01*
X107960383Y-86094441D01*
X107993241Y-86091670D01*
X108027772Y-86110623D01*
X108032084Y-86114208D01*
X108040216Y-86122737D01*
X108046245Y-86134329D01*
X108050606Y-86152235D01*
X108053734Y-86179706D01*
X108056063Y-86219994D01*
X108058029Y-86276351D01*
X108060067Y-86352029D01*
X108065711Y-86571878D01*
X108246334Y-86408084D01*
X108333072Y-86329451D01*
X108408843Y-86261058D01*
X108470980Y-86205708D01*
X108521078Y-86162338D01*
X108560735Y-86129881D01*
X108591548Y-86107273D01*
X108615114Y-86093448D01*
X108633030Y-86087343D01*
X108646893Y-86087892D01*
G36*
X108646893Y-86087892D02*
G01*
X108658301Y-86094029D01*
X108668850Y-86104691D01*
X108680136Y-86118811D01*
X108684589Y-86124772D01*
X108690588Y-86135268D01*
X108695167Y-86149093D01*
X108698519Y-86168998D01*
X108700833Y-86197732D01*
X108702301Y-86238045D01*
X108703113Y-86292687D01*
X108703460Y-86364407D01*
X108703534Y-86455956D01*
X108703511Y-86514486D01*
X108703292Y-86593573D01*
X108702683Y-86654516D01*
X108701492Y-86700062D01*
X108699529Y-86732963D01*
X108696603Y-86755968D01*
X108692523Y-86771826D01*
X108687097Y-86783286D01*
X108680136Y-86793100D01*
X108649708Y-86817493D01*
X108614765Y-86820372D01*
X108577784Y-86801282D01*
X108573600Y-86797807D01*
X108565424Y-86789279D01*
X108559364Y-86777728D01*
X108554981Y-86759896D01*
X108551839Y-86732524D01*
X108549502Y-86692354D01*
X108547531Y-86636128D01*
X108545489Y-86560589D01*
X108539845Y-86341458D01*
X108274556Y-86582099D01*
X108200722Y-86648875D01*
X108135542Y-86706991D01*
X108083348Y-86751949D01*
X108042273Y-86784871D01*
X108010455Y-86806879D01*
X107986026Y-86819094D01*
X107967124Y-86822639D01*
X107951883Y-86818636D01*
X107938439Y-86808207D01*
X107924927Y-86792474D01*
X107918682Y-86783991D01*
X107913050Y-86773413D01*
X107908839Y-86759255D01*
X107905887Y-86738803D01*
X107904032Y-86709342D01*
X107903113Y-86668161D01*
X107902968Y-86612544D01*
X107903435Y-86539779D01*
X107904352Y-86447151D01*
X107907667Y-86132199D01*
X107934318Y-86110633D01*
X107960383Y-86094441D01*
X107993241Y-86091670D01*
X108027772Y-86110623D01*
X108032084Y-86114208D01*
X108040216Y-86122737D01*
X108046245Y-86134329D01*
X108050606Y-86152235D01*
X108053734Y-86179706D01*
X108056063Y-86219994D01*
X108058029Y-86276351D01*
X108060067Y-86352029D01*
X108065711Y-86571878D01*
X108246334Y-86408084D01*
X108333072Y-86329451D01*
X108408843Y-86261058D01*
X108470980Y-86205708D01*
X108521078Y-86162338D01*
X108560735Y-86129881D01*
X108591548Y-86107273D01*
X108615114Y-86093448D01*
X108633030Y-86087343D01*
X108646893Y-86087892D01*
G37*
X109444150Y-86094179D02*
X109550157Y-86110494D01*
X109643969Y-86138545D01*
X109722765Y-86177452D01*
X109783719Y-86226334D01*
X109809789Y-86259195D01*
X109839297Y-86308394D01*
X109864568Y-86362252D01*
X109882218Y-86413419D01*
X109888858Y-86454544D01*
X109887298Y-86474259D01*
X109874357Y-86525592D01*
X109851194Y-86582118D01*
X109821302Y-86636035D01*
X109788173Y-86679539D01*
X109777977Y-86689887D01*
X109710892Y-86741662D01*
X109630766Y-86781554D01*
X109544556Y-86805956D01*
X109489592Y-86814068D01*
X109396139Y-86820673D01*
X109306358Y-86818586D01*
X109223869Y-86808340D01*
X109152286Y-86790470D01*
X109095228Y-86765508D01*
X109056311Y-86733988D01*
X109054936Y-86732012D01*
X109047848Y-86706786D01*
X109043609Y-86659535D01*
X109042200Y-86590071D01*
X109043060Y-86527838D01*
X109047780Y-86480456D01*
X109059470Y-86448353D01*
X109081239Y-86428800D01*
X109116198Y-86419070D01*
X109167456Y-86416433D01*
X109238123Y-86418161D01*
X109286743Y-86421173D01*
X109336939Y-86429366D01*
X109369433Y-86443419D01*
X109386892Y-86464654D01*
X109391983Y-86494394D01*
X109391877Y-86498936D01*
X109383175Y-86533730D01*
X109359165Y-86557147D01*
X109317900Y-86570347D01*
X109257431Y-86574489D01*
X109188956Y-86574489D01*
X109188956Y-86612841D01*
X109189006Y-86621976D01*
X109191227Y-86639227D01*
X109200494Y-86649521D01*
X109221875Y-86656459D01*
X109260436Y-86663641D01*
X109265910Y-86664575D01*
X109362860Y-86674478D01*
X109452852Y-86671559D01*
X109533760Y-86656829D01*
X109603459Y-86631299D01*
X109659824Y-86595978D01*
X109700729Y-86551879D01*
X109724051Y-86500012D01*
X109727663Y-86441388D01*
X109722145Y-86412494D01*
X109695461Y-86356604D01*
X109649273Y-86310945D01*
X109584291Y-86276108D01*
X109501229Y-86252690D01*
X109476555Y-86248241D01*
X109387226Y-86237742D01*
X109307419Y-86238971D01*
X109229326Y-86251906D01*
X109194183Y-86258696D01*
X109148745Y-86259713D01*
X109117430Y-86247182D01*
X109097277Y-86220395D01*
X109090893Y-86192148D01*
X109100379Y-86160924D01*
X109109708Y-86147499D01*
X109143943Y-86123967D01*
X109196565Y-86106095D01*
X109265081Y-86094599D01*
X109347000Y-86090192D01*
X109444150Y-86094179D01*
G36*
X109444150Y-86094179D02*
G01*
X109550157Y-86110494D01*
X109643969Y-86138545D01*
X109722765Y-86177452D01*
X109783719Y-86226334D01*
X109809789Y-86259195D01*
X109839297Y-86308394D01*
X109864568Y-86362252D01*
X109882218Y-86413419D01*
X109888858Y-86454544D01*
X109887298Y-86474259D01*
X109874357Y-86525592D01*
X109851194Y-86582118D01*
X109821302Y-86636035D01*
X109788173Y-86679539D01*
X109777977Y-86689887D01*
X109710892Y-86741662D01*
X109630766Y-86781554D01*
X109544556Y-86805956D01*
X109489592Y-86814068D01*
X109396139Y-86820673D01*
X109306358Y-86818586D01*
X109223869Y-86808340D01*
X109152286Y-86790470D01*
X109095228Y-86765508D01*
X109056311Y-86733988D01*
X109054936Y-86732012D01*
X109047848Y-86706786D01*
X109043609Y-86659535D01*
X109042200Y-86590071D01*
X109043060Y-86527838D01*
X109047780Y-86480456D01*
X109059470Y-86448353D01*
X109081239Y-86428800D01*
X109116198Y-86419070D01*
X109167456Y-86416433D01*
X109238123Y-86418161D01*
X109286743Y-86421173D01*
X109336939Y-86429366D01*
X109369433Y-86443419D01*
X109386892Y-86464654D01*
X109391983Y-86494394D01*
X109391877Y-86498936D01*
X109383175Y-86533730D01*
X109359165Y-86557147D01*
X109317900Y-86570347D01*
X109257431Y-86574489D01*
X109188956Y-86574489D01*
X109188956Y-86612841D01*
X109189006Y-86621976D01*
X109191227Y-86639227D01*
X109200494Y-86649521D01*
X109221875Y-86656459D01*
X109260436Y-86663641D01*
X109265910Y-86664575D01*
X109362860Y-86674478D01*
X109452852Y-86671559D01*
X109533760Y-86656829D01*
X109603459Y-86631299D01*
X109659824Y-86595978D01*
X109700729Y-86551879D01*
X109724051Y-86500012D01*
X109727663Y-86441388D01*
X109722145Y-86412494D01*
X109695461Y-86356604D01*
X109649273Y-86310945D01*
X109584291Y-86276108D01*
X109501229Y-86252690D01*
X109476555Y-86248241D01*
X109387226Y-86237742D01*
X109307419Y-86238971D01*
X109229326Y-86251906D01*
X109194183Y-86258696D01*
X109148745Y-86259713D01*
X109117430Y-86247182D01*
X109097277Y-86220395D01*
X109090893Y-86192148D01*
X109100379Y-86160924D01*
X109109708Y-86147499D01*
X109143943Y-86123967D01*
X109196565Y-86106095D01*
X109265081Y-86094599D01*
X109347000Y-86090192D01*
X109444150Y-86094179D01*
G37*
X107494803Y-86118811D02*
X107499752Y-86125495D01*
X107505596Y-86136066D01*
X107510057Y-86150153D01*
X107513321Y-86170478D01*
X107515574Y-86199765D01*
X107517002Y-86240737D01*
X107517792Y-86296117D01*
X107518129Y-86368628D01*
X107518200Y-86460994D01*
X107518171Y-86526911D01*
X107517939Y-86605228D01*
X107517319Y-86665496D01*
X107516126Y-86710393D01*
X107514179Y-86742602D01*
X107511294Y-86764800D01*
X107507288Y-86779669D01*
X107501979Y-86789889D01*
X107495183Y-86798138D01*
X107490668Y-86802795D01*
X107482438Y-86809282D01*
X107471078Y-86814194D01*
X107453810Y-86817749D01*
X107427855Y-86820167D01*
X107390436Y-86821667D01*
X107338773Y-86822467D01*
X107270089Y-86822787D01*
X107181606Y-86822845D01*
X107161931Y-86822838D01*
X107074906Y-86822572D01*
X107007254Y-86821806D01*
X106956299Y-86820392D01*
X106919367Y-86818180D01*
X106893783Y-86815022D01*
X106876871Y-86810769D01*
X106865957Y-86805271D01*
X106855464Y-86795285D01*
X106842203Y-86764168D01*
X106843386Y-86728280D01*
X106859550Y-86696733D01*
X106861739Y-86694457D01*
X106870427Y-86688189D01*
X106883769Y-86683523D01*
X106904752Y-86680227D01*
X106936363Y-86678068D01*
X106981590Y-86676814D01*
X107043420Y-86676231D01*
X107124839Y-86676089D01*
X107371445Y-86676089D01*
X107371445Y-86518045D01*
X107209006Y-86518045D01*
X107173338Y-86517964D01*
X107117568Y-86517167D01*
X107078430Y-86515162D01*
X107051976Y-86511521D01*
X107034259Y-86505812D01*
X107021329Y-86497607D01*
X107017686Y-86494423D01*
X106999278Y-86463448D01*
X106998644Y-86427112D01*
X107016183Y-86393493D01*
X107016245Y-86393424D01*
X107025916Y-86384798D01*
X107039209Y-86378742D01*
X107059917Y-86374811D01*
X107091828Y-86372556D01*
X107138734Y-86371531D01*
X107204424Y-86371289D01*
X107372571Y-86371289D01*
X107369186Y-86306378D01*
X107365800Y-86241467D01*
X107123723Y-86238414D01*
X107098707Y-86238086D01*
X107017087Y-86236606D01*
X106954768Y-86234222D01*
X106909154Y-86230227D01*
X106877652Y-86223913D01*
X106857667Y-86214574D01*
X106846604Y-86201503D01*
X106841869Y-86183992D01*
X106840867Y-86161335D01*
X106840873Y-86158970D01*
X106842027Y-86138939D01*
X106846824Y-86123146D01*
X106857632Y-86111090D01*
X106876817Y-86102267D01*
X106906745Y-86096175D01*
X106949783Y-86092311D01*
X107008299Y-86090174D01*
X107084657Y-86089260D01*
X107181226Y-86089067D01*
X107471406Y-86089067D01*
X107494803Y-86118811D01*
G36*
X107494803Y-86118811D02*
G01*
X107499752Y-86125495D01*
X107505596Y-86136066D01*
X107510057Y-86150153D01*
X107513321Y-86170478D01*
X107515574Y-86199765D01*
X107517002Y-86240737D01*
X107517792Y-86296117D01*
X107518129Y-86368628D01*
X107518200Y-86460994D01*
X107518171Y-86526911D01*
X107517939Y-86605228D01*
X107517319Y-86665496D01*
X107516126Y-86710393D01*
X107514179Y-86742602D01*
X107511294Y-86764800D01*
X107507288Y-86779669D01*
X107501979Y-86789889D01*
X107495183Y-86798138D01*
X107490668Y-86802795D01*
X107482438Y-86809282D01*
X107471078Y-86814194D01*
X107453810Y-86817749D01*
X107427855Y-86820167D01*
X107390436Y-86821667D01*
X107338773Y-86822467D01*
X107270089Y-86822787D01*
X107181606Y-86822845D01*
X107161931Y-86822838D01*
X107074906Y-86822572D01*
X107007254Y-86821806D01*
X106956299Y-86820392D01*
X106919367Y-86818180D01*
X106893783Y-86815022D01*
X106876871Y-86810769D01*
X106865957Y-86805271D01*
X106855464Y-86795285D01*
X106842203Y-86764168D01*
X106843386Y-86728280D01*
X106859550Y-86696733D01*
X106861739Y-86694457D01*
X106870427Y-86688189D01*
X106883769Y-86683523D01*
X106904752Y-86680227D01*
X106936363Y-86678068D01*
X106981590Y-86676814D01*
X107043420Y-86676231D01*
X107124839Y-86676089D01*
X107371445Y-86676089D01*
X107371445Y-86518045D01*
X107209006Y-86518045D01*
X107173338Y-86517964D01*
X107117568Y-86517167D01*
X107078430Y-86515162D01*
X107051976Y-86511521D01*
X107034259Y-86505812D01*
X107021329Y-86497607D01*
X107017686Y-86494423D01*
X106999278Y-86463448D01*
X106998644Y-86427112D01*
X107016183Y-86393493D01*
X107016245Y-86393424D01*
X107025916Y-86384798D01*
X107039209Y-86378742D01*
X107059917Y-86374811D01*
X107091828Y-86372556D01*
X107138734Y-86371531D01*
X107204424Y-86371289D01*
X107372571Y-86371289D01*
X107369186Y-86306378D01*
X107365800Y-86241467D01*
X107123723Y-86238414D01*
X107098707Y-86238086D01*
X107017087Y-86236606D01*
X106954768Y-86234222D01*
X106909154Y-86230227D01*
X106877652Y-86223913D01*
X106857667Y-86214574D01*
X106846604Y-86201503D01*
X106841869Y-86183992D01*
X106840867Y-86161335D01*
X106840873Y-86158970D01*
X106842027Y-86138939D01*
X106846824Y-86123146D01*
X106857632Y-86111090D01*
X106876817Y-86102267D01*
X106906745Y-86096175D01*
X106949783Y-86092311D01*
X107008299Y-86090174D01*
X107084657Y-86089260D01*
X107181226Y-86089067D01*
X107471406Y-86089067D01*
X107494803Y-86118811D01*
G37*
X112171734Y-86089083D02*
X112248831Y-86089275D01*
X112307777Y-86089860D01*
X112351364Y-86091051D01*
X112382383Y-86093064D01*
X112403625Y-86096112D01*
X112417882Y-86100409D01*
X112427945Y-86106172D01*
X112436606Y-86113612D01*
X112438391Y-86115293D01*
X112445635Y-86122832D01*
X112451277Y-86131850D01*
X112455517Y-86144984D01*
X112458556Y-86164872D01*
X112460594Y-86194151D01*
X112461830Y-86235458D01*
X112462465Y-86291431D01*
X112462700Y-86364707D01*
X112462734Y-86457923D01*
X112462697Y-86530713D01*
X112462448Y-86608889D01*
X112461812Y-86669103D01*
X112460615Y-86713982D01*
X112458684Y-86746152D01*
X112455846Y-86768239D01*
X112451927Y-86782870D01*
X112446755Y-86792670D01*
X112440156Y-86800267D01*
X112436822Y-86803444D01*
X112428300Y-86809554D01*
X112416298Y-86814229D01*
X112398087Y-86817659D01*
X112370940Y-86820036D01*
X112332129Y-86821552D01*
X112278924Y-86822398D01*
X112208598Y-86822765D01*
X112118422Y-86822845D01*
X112076314Y-86822833D01*
X111995167Y-86822651D01*
X111932675Y-86822098D01*
X111886109Y-86820982D01*
X111852741Y-86819113D01*
X111829844Y-86816298D01*
X111814688Y-86812346D01*
X111804546Y-86807066D01*
X111796689Y-86800267D01*
X111781963Y-86778667D01*
X111774111Y-86749467D01*
X111779610Y-86725560D01*
X111796689Y-86698667D01*
X111801668Y-86694059D01*
X111811443Y-86687772D01*
X111825559Y-86683146D01*
X111847054Y-86679930D01*
X111878968Y-86677870D01*
X111924342Y-86676712D01*
X111986213Y-86676202D01*
X112067622Y-86676089D01*
X112315978Y-86676089D01*
X112315978Y-86518045D01*
X112154801Y-86518045D01*
X112118983Y-86517899D01*
X112053359Y-86516176D01*
X112006118Y-86511741D01*
X111974383Y-86503637D01*
X111955277Y-86490906D01*
X111945923Y-86472592D01*
X111943445Y-86447738D01*
X111944242Y-86427482D01*
X111949494Y-86405656D01*
X111962288Y-86390304D01*
X111985628Y-86380309D01*
X112022517Y-86374553D01*
X112075959Y-86371919D01*
X112148958Y-86371289D01*
X112317105Y-86371289D01*
X112313719Y-86306378D01*
X112310334Y-86241467D01*
X112062617Y-86238418D01*
X112000026Y-86237539D01*
X111931565Y-86236095D01*
X111880661Y-86234164D01*
X111844408Y-86231514D01*
X111819901Y-86227910D01*
X111804235Y-86223121D01*
X111794506Y-86216913D01*
X111788491Y-86210510D01*
X111775482Y-86178828D01*
X111779043Y-86143142D01*
X111798818Y-86112084D01*
X111802069Y-86109161D01*
X111811049Y-86102810D01*
X111823153Y-86097957D01*
X111841159Y-86094403D01*
X111867847Y-86091946D01*
X111905997Y-86090385D01*
X111958386Y-86089518D01*
X112027794Y-86089146D01*
X112117001Y-86089067D01*
X112171734Y-86089083D01*
G36*
X112171734Y-86089083D02*
G01*
X112248831Y-86089275D01*
X112307777Y-86089860D01*
X112351364Y-86091051D01*
X112382383Y-86093064D01*
X112403625Y-86096112D01*
X112417882Y-86100409D01*
X112427945Y-86106172D01*
X112436606Y-86113612D01*
X112438391Y-86115293D01*
X112445635Y-86122832D01*
X112451277Y-86131850D01*
X112455517Y-86144984D01*
X112458556Y-86164872D01*
X112460594Y-86194151D01*
X112461830Y-86235458D01*
X112462465Y-86291431D01*
X112462700Y-86364707D01*
X112462734Y-86457923D01*
X112462697Y-86530713D01*
X112462448Y-86608889D01*
X112461812Y-86669103D01*
X112460615Y-86713982D01*
X112458684Y-86746152D01*
X112455846Y-86768239D01*
X112451927Y-86782870D01*
X112446755Y-86792670D01*
X112440156Y-86800267D01*
X112436822Y-86803444D01*
X112428300Y-86809554D01*
X112416298Y-86814229D01*
X112398087Y-86817659D01*
X112370940Y-86820036D01*
X112332129Y-86821552D01*
X112278924Y-86822398D01*
X112208598Y-86822765D01*
X112118422Y-86822845D01*
X112076314Y-86822833D01*
X111995167Y-86822651D01*
X111932675Y-86822098D01*
X111886109Y-86820982D01*
X111852741Y-86819113D01*
X111829844Y-86816298D01*
X111814688Y-86812346D01*
X111804546Y-86807066D01*
X111796689Y-86800267D01*
X111781963Y-86778667D01*
X111774111Y-86749467D01*
X111779610Y-86725560D01*
X111796689Y-86698667D01*
X111801668Y-86694059D01*
X111811443Y-86687772D01*
X111825559Y-86683146D01*
X111847054Y-86679930D01*
X111878968Y-86677870D01*
X111924342Y-86676712D01*
X111986213Y-86676202D01*
X112067622Y-86676089D01*
X112315978Y-86676089D01*
X112315978Y-86518045D01*
X112154801Y-86518045D01*
X112118983Y-86517899D01*
X112053359Y-86516176D01*
X112006118Y-86511741D01*
X111974383Y-86503637D01*
X111955277Y-86490906D01*
X111945923Y-86472592D01*
X111943445Y-86447738D01*
X111944242Y-86427482D01*
X111949494Y-86405656D01*
X111962288Y-86390304D01*
X111985628Y-86380309D01*
X112022517Y-86374553D01*
X112075959Y-86371919D01*
X112148958Y-86371289D01*
X112317105Y-86371289D01*
X112313719Y-86306378D01*
X112310334Y-86241467D01*
X112062617Y-86238418D01*
X112000026Y-86237539D01*
X111931565Y-86236095D01*
X111880661Y-86234164D01*
X111844408Y-86231514D01*
X111819901Y-86227910D01*
X111804235Y-86223121D01*
X111794506Y-86216913D01*
X111788491Y-86210510D01*
X111775482Y-86178828D01*
X111779043Y-86143142D01*
X111798818Y-86112084D01*
X111802069Y-86109161D01*
X111811049Y-86102810D01*
X111823153Y-86097957D01*
X111841159Y-86094403D01*
X111867847Y-86091946D01*
X111905997Y-86090385D01*
X111958386Y-86089518D01*
X112027794Y-86089146D01*
X112117001Y-86089067D01*
X112171734Y-86089083D01*
G37*
X103604702Y-86098478D02*
X103622663Y-86116989D01*
X103643263Y-86148071D01*
X103668095Y-86193756D01*
X103698750Y-86256078D01*
X103736820Y-86337071D01*
X103751454Y-86368454D01*
X103781203Y-86431638D01*
X103807297Y-86486244D01*
X103828292Y-86529290D01*
X103842739Y-86557793D01*
X103849191Y-86568770D01*
X103850550Y-86568189D01*
X103860542Y-86554242D01*
X103877833Y-86524704D01*
X103900430Y-86483087D01*
X103926338Y-86432903D01*
X103942311Y-86401414D01*
X103971261Y-86346061D01*
X103993749Y-86307044D01*
X104011965Y-86281566D01*
X104028096Y-86266831D01*
X104044330Y-86260042D01*
X104062857Y-86258400D01*
X104073360Y-86258875D01*
X104089476Y-86263082D01*
X104104790Y-86273946D01*
X104121388Y-86294219D01*
X104141357Y-86326654D01*
X104166783Y-86374004D01*
X104199752Y-86439022D01*
X104209485Y-86458277D01*
X104233943Y-86504946D01*
X104254178Y-86541109D01*
X104268311Y-86563497D01*
X104274460Y-86568845D01*
X104275827Y-86565573D01*
X104285202Y-86544664D01*
X104302062Y-86507725D01*
X104324979Y-86457874D01*
X104352520Y-86398226D01*
X104383255Y-86331898D01*
X104409970Y-86274677D01*
X104439593Y-86212688D01*
X104462664Y-86166949D01*
X104480643Y-86134908D01*
X104494990Y-86114014D01*
X104507166Y-86101718D01*
X104518632Y-86095466D01*
X104528042Y-86092574D01*
X104553147Y-86092425D01*
X104580290Y-86107768D01*
X104581590Y-86108753D01*
X104603674Y-86131388D01*
X104614723Y-86153613D01*
X104614769Y-86154253D01*
X104610228Y-86171915D01*
X104597364Y-86206481D01*
X104577605Y-86254826D01*
X104552381Y-86313825D01*
X104523119Y-86380355D01*
X104491250Y-86451291D01*
X104458201Y-86523507D01*
X104425401Y-86593880D01*
X104394280Y-86659285D01*
X104366265Y-86716597D01*
X104342786Y-86762692D01*
X104325272Y-86794446D01*
X104315151Y-86808733D01*
X104280743Y-86822102D01*
X104239046Y-86815741D01*
X104233681Y-86811044D01*
X104217852Y-86788893D01*
X104195650Y-86752132D01*
X104169233Y-86704415D01*
X104140760Y-86649393D01*
X104060986Y-86490150D01*
X103987799Y-86636742D01*
X103978103Y-86656032D01*
X103951125Y-86708380D01*
X103927096Y-86753170D01*
X103908332Y-86786154D01*
X103897146Y-86803089D01*
X103896000Y-86804332D01*
X103867879Y-86819619D01*
X103832817Y-86821302D01*
X103801776Y-86808733D01*
X103799350Y-86805884D01*
X103787090Y-86785259D01*
X103767352Y-86747708D01*
X103741448Y-86695880D01*
X103710685Y-86632423D01*
X103676375Y-86559985D01*
X103639825Y-86481216D01*
X103619585Y-86437093D01*
X103582812Y-86356365D01*
X103554355Y-86292687D01*
X103533331Y-86243752D01*
X103518854Y-86207257D01*
X103510039Y-86180895D01*
X103506004Y-86162361D01*
X103505862Y-86149352D01*
X103508730Y-86139561D01*
X103523387Y-86118678D01*
X103549990Y-86098377D01*
X103550745Y-86098035D01*
X103570335Y-86091034D01*
X103587790Y-86090504D01*
X103604702Y-86098478D01*
G36*
X103604702Y-86098478D02*
G01*
X103622663Y-86116989D01*
X103643263Y-86148071D01*
X103668095Y-86193756D01*
X103698750Y-86256078D01*
X103736820Y-86337071D01*
X103751454Y-86368454D01*
X103781203Y-86431638D01*
X103807297Y-86486244D01*
X103828292Y-86529290D01*
X103842739Y-86557793D01*
X103849191Y-86568770D01*
X103850550Y-86568189D01*
X103860542Y-86554242D01*
X103877833Y-86524704D01*
X103900430Y-86483087D01*
X103926338Y-86432903D01*
X103942311Y-86401414D01*
X103971261Y-86346061D01*
X103993749Y-86307044D01*
X104011965Y-86281566D01*
X104028096Y-86266831D01*
X104044330Y-86260042D01*
X104062857Y-86258400D01*
X104073360Y-86258875D01*
X104089476Y-86263082D01*
X104104790Y-86273946D01*
X104121388Y-86294219D01*
X104141357Y-86326654D01*
X104166783Y-86374004D01*
X104199752Y-86439022D01*
X104209485Y-86458277D01*
X104233943Y-86504946D01*
X104254178Y-86541109D01*
X104268311Y-86563497D01*
X104274460Y-86568845D01*
X104275827Y-86565573D01*
X104285202Y-86544664D01*
X104302062Y-86507725D01*
X104324979Y-86457874D01*
X104352520Y-86398226D01*
X104383255Y-86331898D01*
X104409970Y-86274677D01*
X104439593Y-86212688D01*
X104462664Y-86166949D01*
X104480643Y-86134908D01*
X104494990Y-86114014D01*
X104507166Y-86101718D01*
X104518632Y-86095466D01*
X104528042Y-86092574D01*
X104553147Y-86092425D01*
X104580290Y-86107768D01*
X104581590Y-86108753D01*
X104603674Y-86131388D01*
X104614723Y-86153613D01*
X104614769Y-86154253D01*
X104610228Y-86171915D01*
X104597364Y-86206481D01*
X104577605Y-86254826D01*
X104552381Y-86313825D01*
X104523119Y-86380355D01*
X104491250Y-86451291D01*
X104458201Y-86523507D01*
X104425401Y-86593880D01*
X104394280Y-86659285D01*
X104366265Y-86716597D01*
X104342786Y-86762692D01*
X104325272Y-86794446D01*
X104315151Y-86808733D01*
X104280743Y-86822102D01*
X104239046Y-86815741D01*
X104233681Y-86811044D01*
X104217852Y-86788893D01*
X104195650Y-86752132D01*
X104169233Y-86704415D01*
X104140760Y-86649393D01*
X104060986Y-86490150D01*
X103987799Y-86636742D01*
X103978103Y-86656032D01*
X103951125Y-86708380D01*
X103927096Y-86753170D01*
X103908332Y-86786154D01*
X103897146Y-86803089D01*
X103896000Y-86804332D01*
X103867879Y-86819619D01*
X103832817Y-86821302D01*
X103801776Y-86808733D01*
X103799350Y-86805884D01*
X103787090Y-86785259D01*
X103767352Y-86747708D01*
X103741448Y-86695880D01*
X103710685Y-86632423D01*
X103676375Y-86559985D01*
X103639825Y-86481216D01*
X103619585Y-86437093D01*
X103582812Y-86356365D01*
X103554355Y-86292687D01*
X103533331Y-86243752D01*
X103518854Y-86207257D01*
X103510039Y-86180895D01*
X103506004Y-86162361D01*
X103505862Y-86149352D01*
X103508730Y-86139561D01*
X103523387Y-86118678D01*
X103549990Y-86098377D01*
X103550745Y-86098035D01*
X103570335Y-86091034D01*
X103587790Y-86090504D01*
X103604702Y-86098478D01*
G37*
X111155853Y-86089936D02*
X111222100Y-86095366D01*
X111277400Y-86104964D01*
X111328283Y-86119825D01*
X111399595Y-86152958D01*
X111450752Y-86195640D01*
X111481575Y-86247705D01*
X111491889Y-86308983D01*
X111490952Y-86340232D01*
X111485160Y-86365029D01*
X111470353Y-86386699D01*
X111442380Y-86414049D01*
X111434402Y-86421378D01*
X111410692Y-86442281D01*
X111388298Y-86459251D01*
X111364265Y-86473205D01*
X111335637Y-86485056D01*
X111299460Y-86495720D01*
X111252780Y-86506111D01*
X111192641Y-86517146D01*
X111116090Y-86529738D01*
X111020171Y-86544804D01*
X111001808Y-86547838D01*
X110939478Y-86561458D01*
X110894260Y-86577192D01*
X110867976Y-86594263D01*
X110862447Y-86611897D01*
X110865068Y-86616168D01*
X110883000Y-86631233D01*
X110911126Y-86647867D01*
X110923926Y-86653857D01*
X110945224Y-86661050D01*
X110971610Y-86665827D01*
X111007454Y-86668646D01*
X111057128Y-86669964D01*
X111125000Y-86670237D01*
X111142785Y-86670164D01*
X111210406Y-86669053D01*
X111275345Y-86666828D01*
X111330970Y-86663762D01*
X111370651Y-86660127D01*
X111406162Y-86656059D01*
X111435415Y-86655276D01*
X111454315Y-86659876D01*
X111469429Y-86670551D01*
X111473085Y-86674144D01*
X111489427Y-86705918D01*
X111488107Y-86741572D01*
X111469150Y-86772190D01*
X111448780Y-86783796D01*
X111412796Y-86796491D01*
X111370372Y-86806541D01*
X111366922Y-86807140D01*
X111324252Y-86812356D01*
X111266866Y-86816730D01*
X111201849Y-86819818D01*
X111136289Y-86821177D01*
X111120057Y-86821218D01*
X111021744Y-86818741D01*
X110941692Y-86810735D01*
X110876513Y-86796203D01*
X110822817Y-86774149D01*
X110777216Y-86743576D01*
X110736323Y-86703486D01*
X110716202Y-86677259D01*
X110704576Y-86647712D01*
X110701667Y-86607995D01*
X110701808Y-86596026D01*
X110705681Y-86563345D01*
X110718065Y-86536819D01*
X110743230Y-86505971D01*
X110764442Y-86483831D01*
X110790838Y-86461285D01*
X110820555Y-86442917D01*
X110856785Y-86427661D01*
X110902717Y-86414449D01*
X110961544Y-86402214D01*
X111036456Y-86389889D01*
X111130645Y-86376406D01*
X111175957Y-86369396D01*
X111243911Y-86354837D01*
X111293047Y-86338337D01*
X111322614Y-86320439D01*
X111331864Y-86301685D01*
X111320048Y-86282615D01*
X111286416Y-86263771D01*
X111283370Y-86262557D01*
X111237011Y-86250479D01*
X111174361Y-86242279D01*
X111100927Y-86238119D01*
X111022217Y-86238161D01*
X110943739Y-86242569D01*
X110871000Y-86251505D01*
X110867073Y-86252154D01*
X110818257Y-86259861D01*
X110786005Y-86263473D01*
X110765008Y-86262876D01*
X110749954Y-86257954D01*
X110735534Y-86248596D01*
X110734364Y-86247725D01*
X110709847Y-86217351D01*
X110705054Y-86181850D01*
X110720860Y-86147269D01*
X110725406Y-86142813D01*
X110755020Y-86127673D01*
X110802002Y-86114550D01*
X110862306Y-86103750D01*
X110931888Y-86095581D01*
X111006703Y-86090351D01*
X111082706Y-86088367D01*
X111155853Y-86089936D01*
G36*
X111155853Y-86089936D02*
G01*
X111222100Y-86095366D01*
X111277400Y-86104964D01*
X111328283Y-86119825D01*
X111399595Y-86152958D01*
X111450752Y-86195640D01*
X111481575Y-86247705D01*
X111491889Y-86308983D01*
X111490952Y-86340232D01*
X111485160Y-86365029D01*
X111470353Y-86386699D01*
X111442380Y-86414049D01*
X111434402Y-86421378D01*
X111410692Y-86442281D01*
X111388298Y-86459251D01*
X111364265Y-86473205D01*
X111335637Y-86485056D01*
X111299460Y-86495720D01*
X111252780Y-86506111D01*
X111192641Y-86517146D01*
X111116090Y-86529738D01*
X111020171Y-86544804D01*
X111001808Y-86547838D01*
X110939478Y-86561458D01*
X110894260Y-86577192D01*
X110867976Y-86594263D01*
X110862447Y-86611897D01*
X110865068Y-86616168D01*
X110883000Y-86631233D01*
X110911126Y-86647867D01*
X110923926Y-86653857D01*
X110945224Y-86661050D01*
X110971610Y-86665827D01*
X111007454Y-86668646D01*
X111057128Y-86669964D01*
X111125000Y-86670237D01*
X111142785Y-86670164D01*
X111210406Y-86669053D01*
X111275345Y-86666828D01*
X111330970Y-86663762D01*
X111370651Y-86660127D01*
X111406162Y-86656059D01*
X111435415Y-86655276D01*
X111454315Y-86659876D01*
X111469429Y-86670551D01*
X111473085Y-86674144D01*
X111489427Y-86705918D01*
X111488107Y-86741572D01*
X111469150Y-86772190D01*
X111448780Y-86783796D01*
X111412796Y-86796491D01*
X111370372Y-86806541D01*
X111366922Y-86807140D01*
X111324252Y-86812356D01*
X111266866Y-86816730D01*
X111201849Y-86819818D01*
X111136289Y-86821177D01*
X111120057Y-86821218D01*
X111021744Y-86818741D01*
X110941692Y-86810735D01*
X110876513Y-86796203D01*
X110822817Y-86774149D01*
X110777216Y-86743576D01*
X110736323Y-86703486D01*
X110716202Y-86677259D01*
X110704576Y-86647712D01*
X110701667Y-86607995D01*
X110701808Y-86596026D01*
X110705681Y-86563345D01*
X110718065Y-86536819D01*
X110743230Y-86505971D01*
X110764442Y-86483831D01*
X110790838Y-86461285D01*
X110820555Y-86442917D01*
X110856785Y-86427661D01*
X110902717Y-86414449D01*
X110961544Y-86402214D01*
X111036456Y-86389889D01*
X111130645Y-86376406D01*
X111175957Y-86369396D01*
X111243911Y-86354837D01*
X111293047Y-86338337D01*
X111322614Y-86320439D01*
X111331864Y-86301685D01*
X111320048Y-86282615D01*
X111286416Y-86263771D01*
X111283370Y-86262557D01*
X111237011Y-86250479D01*
X111174361Y-86242279D01*
X111100927Y-86238119D01*
X111022217Y-86238161D01*
X110943739Y-86242569D01*
X110871000Y-86251505D01*
X110867073Y-86252154D01*
X110818257Y-86259861D01*
X110786005Y-86263473D01*
X110765008Y-86262876D01*
X110749954Y-86257954D01*
X110735534Y-86248596D01*
X110734364Y-86247725D01*
X110709847Y-86217351D01*
X110705054Y-86181850D01*
X110720860Y-86147269D01*
X110725406Y-86142813D01*
X110755020Y-86127673D01*
X110802002Y-86114550D01*
X110862306Y-86103750D01*
X110931888Y-86095581D01*
X111006703Y-86090351D01*
X111082706Y-86088367D01*
X111155853Y-86089936D01*
G37*
X107303711Y-81782033D02*
X107399268Y-81799523D01*
X107563558Y-81844564D01*
X107717589Y-81907656D01*
X107863509Y-81989915D01*
X108003466Y-82092457D01*
X108139608Y-82216399D01*
X108183473Y-82261661D01*
X108295758Y-82393865D01*
X108388972Y-82531832D01*
X108465719Y-82679750D01*
X108528603Y-82841803D01*
X108532420Y-82853391D01*
X108582507Y-83039392D01*
X108615899Y-83235521D01*
X108632584Y-83437568D01*
X108632551Y-83641325D01*
X108615791Y-83842581D01*
X108582292Y-84037128D01*
X108532044Y-84220756D01*
X108488190Y-84338053D01*
X108410348Y-84500951D01*
X108316828Y-84654866D01*
X108209822Y-84796671D01*
X108091519Y-84923239D01*
X107964111Y-85031441D01*
X107886606Y-85084120D01*
X107759725Y-85153750D01*
X107622243Y-85212468D01*
X107480716Y-85257587D01*
X107341702Y-85286422D01*
X107327597Y-85288106D01*
X107284153Y-85291434D01*
X107226723Y-85294275D01*
X107161122Y-85296373D01*
X107093167Y-85297468D01*
X106966378Y-85295140D01*
X106818673Y-85282136D01*
X106680779Y-85257133D01*
X106547014Y-85219318D01*
X106523562Y-85210889D01*
X106475612Y-85191408D01*
X106419140Y-85166473D01*
X106357379Y-85137722D01*
X106293563Y-85106790D01*
X106230926Y-85075315D01*
X106172703Y-85044934D01*
X106122127Y-85017283D01*
X106082433Y-84993999D01*
X106056854Y-84976718D01*
X106048625Y-84967079D01*
X106050076Y-84963984D01*
X106061250Y-84944079D01*
X106082134Y-84908420D01*
X106111265Y-84859459D01*
X106147181Y-84799646D01*
X106188420Y-84731433D01*
X106233517Y-84657271D01*
X106414785Y-84360008D01*
X106461315Y-84404539D01*
X106552723Y-84482865D01*
X106666334Y-84557439D01*
X106784122Y-84611474D01*
X106904559Y-84644290D01*
X107026117Y-84655211D01*
X107067585Y-84653868D01*
X107185080Y-84635612D01*
X107295089Y-84596617D01*
X107396430Y-84537670D01*
X107487921Y-84459557D01*
X107568380Y-84363064D01*
X107636627Y-84248978D01*
X107652908Y-84214724D01*
X107698982Y-84091240D01*
X107734106Y-83952918D01*
X107758197Y-83803561D01*
X107771173Y-83646973D01*
X107772949Y-83486956D01*
X107763443Y-83327314D01*
X107742572Y-83171850D01*
X107710252Y-83024366D01*
X107666399Y-82888667D01*
X107628982Y-82802076D01*
X107564185Y-82688688D01*
X107488772Y-82595070D01*
X107402418Y-82520959D01*
X107304795Y-82466094D01*
X107195577Y-82430212D01*
X107074439Y-82413051D01*
X107005038Y-82411880D01*
X106882168Y-82426141D01*
X106766664Y-82461241D01*
X106659953Y-82516682D01*
X106563464Y-82591964D01*
X106547720Y-82606440D01*
X106517150Y-82632962D01*
X106494809Y-82650138D01*
X106484691Y-82654787D01*
X106482706Y-82652597D01*
X106468241Y-82633721D01*
X106444400Y-82600397D01*
X106413029Y-82555380D01*
X106375974Y-82501425D01*
X106335083Y-82441285D01*
X106292202Y-82377718D01*
X106249178Y-82313476D01*
X106207857Y-82251315D01*
X106170086Y-82193991D01*
X106137712Y-82144257D01*
X106112582Y-82104868D01*
X106096542Y-82078580D01*
X106091439Y-82068147D01*
X106096050Y-82063941D01*
X106115267Y-82058933D01*
X106124838Y-82056386D01*
X106152809Y-82045249D01*
X106194448Y-82026802D01*
X106245995Y-82002725D01*
X106303690Y-81974699D01*
X106314957Y-81969154D01*
X106492687Y-81889889D01*
X106662490Y-81830385D01*
X106826430Y-81790245D01*
X106986571Y-81769071D01*
X107144977Y-81766466D01*
X107303711Y-81782033D01*
G36*
X107303711Y-81782033D02*
G01*
X107399268Y-81799523D01*
X107563558Y-81844564D01*
X107717589Y-81907656D01*
X107863509Y-81989915D01*
X108003466Y-82092457D01*
X108139608Y-82216399D01*
X108183473Y-82261661D01*
X108295758Y-82393865D01*
X108388972Y-82531832D01*
X108465719Y-82679750D01*
X108528603Y-82841803D01*
X108532420Y-82853391D01*
X108582507Y-83039392D01*
X108615899Y-83235521D01*
X108632584Y-83437568D01*
X108632551Y-83641325D01*
X108615791Y-83842581D01*
X108582292Y-84037128D01*
X108532044Y-84220756D01*
X108488190Y-84338053D01*
X108410348Y-84500951D01*
X108316828Y-84654866D01*
X108209822Y-84796671D01*
X108091519Y-84923239D01*
X107964111Y-85031441D01*
X107886606Y-85084120D01*
X107759725Y-85153750D01*
X107622243Y-85212468D01*
X107480716Y-85257587D01*
X107341702Y-85286422D01*
X107327597Y-85288106D01*
X107284153Y-85291434D01*
X107226723Y-85294275D01*
X107161122Y-85296373D01*
X107093167Y-85297468D01*
X106966378Y-85295140D01*
X106818673Y-85282136D01*
X106680779Y-85257133D01*
X106547014Y-85219318D01*
X106523562Y-85210889D01*
X106475612Y-85191408D01*
X106419140Y-85166473D01*
X106357379Y-85137722D01*
X106293563Y-85106790D01*
X106230926Y-85075315D01*
X106172703Y-85044934D01*
X106122127Y-85017283D01*
X106082433Y-84993999D01*
X106056854Y-84976718D01*
X106048625Y-84967079D01*
X106050076Y-84963984D01*
X106061250Y-84944079D01*
X106082134Y-84908420D01*
X106111265Y-84859459D01*
X106147181Y-84799646D01*
X106188420Y-84731433D01*
X106233517Y-84657271D01*
X106414785Y-84360008D01*
X106461315Y-84404539D01*
X106552723Y-84482865D01*
X106666334Y-84557439D01*
X106784122Y-84611474D01*
X106904559Y-84644290D01*
X107026117Y-84655211D01*
X107067585Y-84653868D01*
X107185080Y-84635612D01*
X107295089Y-84596617D01*
X107396430Y-84537670D01*
X107487921Y-84459557D01*
X107568380Y-84363064D01*
X107636627Y-84248978D01*
X107652908Y-84214724D01*
X107698982Y-84091240D01*
X107734106Y-83952918D01*
X107758197Y-83803561D01*
X107771173Y-83646973D01*
X107772949Y-83486956D01*
X107763443Y-83327314D01*
X107742572Y-83171850D01*
X107710252Y-83024366D01*
X107666399Y-82888667D01*
X107628982Y-82802076D01*
X107564185Y-82688688D01*
X107488772Y-82595070D01*
X107402418Y-82520959D01*
X107304795Y-82466094D01*
X107195577Y-82430212D01*
X107074439Y-82413051D01*
X107005038Y-82411880D01*
X106882168Y-82426141D01*
X106766664Y-82461241D01*
X106659953Y-82516682D01*
X106563464Y-82591964D01*
X106547720Y-82606440D01*
X106517150Y-82632962D01*
X106494809Y-82650138D01*
X106484691Y-82654787D01*
X106482706Y-82652597D01*
X106468241Y-82633721D01*
X106444400Y-82600397D01*
X106413029Y-82555380D01*
X106375974Y-82501425D01*
X106335083Y-82441285D01*
X106292202Y-82377718D01*
X106249178Y-82313476D01*
X106207857Y-82251315D01*
X106170086Y-82193991D01*
X106137712Y-82144257D01*
X106112582Y-82104868D01*
X106096542Y-82078580D01*
X106091439Y-82068147D01*
X106096050Y-82063941D01*
X106115267Y-82058933D01*
X106124838Y-82056386D01*
X106152809Y-82045249D01*
X106194448Y-82026802D01*
X106245995Y-82002725D01*
X106303690Y-81974699D01*
X106314957Y-81969154D01*
X106492687Y-81889889D01*
X106662490Y-81830385D01*
X106826430Y-81790245D01*
X106986571Y-81769071D01*
X107144977Y-81766466D01*
X107303711Y-81782033D01*
G37*
X103500994Y-84062711D02*
X103500268Y-84140158D01*
X103491689Y-84291594D01*
X103472833Y-84428283D01*
X103442837Y-84554276D01*
X103400836Y-84673625D01*
X103345969Y-84790381D01*
X103279167Y-84901179D01*
X103188363Y-85014739D01*
X103084708Y-85110211D01*
X102968887Y-85187073D01*
X102841586Y-85244797D01*
X102703489Y-85282858D01*
X102665793Y-85288666D01*
X102586752Y-85294396D01*
X102498629Y-85294583D01*
X102409236Y-85289539D01*
X102326384Y-85279578D01*
X102257887Y-85265012D01*
X102227035Y-85255364D01*
X102149730Y-85225123D01*
X102072679Y-85187617D01*
X102003200Y-85146614D01*
X101948615Y-85105879D01*
X101925916Y-85086505D01*
X101903201Y-85068662D01*
X101891779Y-85061778D01*
X101890537Y-85063424D01*
X101887728Y-85081205D01*
X101885776Y-85114370D01*
X101885045Y-85157733D01*
X101885045Y-85253689D01*
X101026896Y-85253689D01*
X101061161Y-85192974D01*
X101066355Y-85183868D01*
X101074715Y-85169249D01*
X101082288Y-85155173D01*
X101089112Y-85140540D01*
X101095227Y-85124249D01*
X101100673Y-85105198D01*
X101105487Y-85082286D01*
X101109708Y-85054413D01*
X101113377Y-85020478D01*
X101116531Y-84979379D01*
X101119211Y-84930015D01*
X101121454Y-84871286D01*
X101123299Y-84802090D01*
X101124787Y-84721326D01*
X101125955Y-84627894D01*
X101126844Y-84520692D01*
X101127491Y-84398620D01*
X101127936Y-84260576D01*
X101128218Y-84105459D01*
X101128375Y-83932168D01*
X101128448Y-83739603D01*
X101128474Y-83526662D01*
X101128485Y-83390530D01*
X101930200Y-83390530D01*
X101930200Y-84540721D01*
X102000756Y-84587089D01*
X102041417Y-84610791D01*
X102095546Y-84636639D01*
X102144689Y-84654829D01*
X102208165Y-84670551D01*
X102304331Y-84681541D01*
X102388900Y-84673365D01*
X102462219Y-84645805D01*
X102524637Y-84598642D01*
X102576502Y-84531658D01*
X102618160Y-84444633D01*
X102649962Y-84337350D01*
X102652545Y-84325009D01*
X102661000Y-84263772D01*
X102666663Y-84186692D01*
X102669576Y-84099002D01*
X102669783Y-84005934D01*
X102667330Y-83912720D01*
X102662261Y-83824594D01*
X102654619Y-83746788D01*
X102644448Y-83684533D01*
X102643167Y-83678666D01*
X102614126Y-83568121D01*
X102579610Y-83477575D01*
X102538456Y-83404953D01*
X102489499Y-83348181D01*
X102431574Y-83305184D01*
X102399620Y-83289615D01*
X102326784Y-83270722D01*
X102245443Y-83267465D01*
X102160319Y-83279389D01*
X102076133Y-83306040D01*
X101997608Y-83346962D01*
X101930200Y-83390530D01*
X101128485Y-83390530D01*
X101128493Y-83292245D01*
X101128689Y-81607378D01*
X102034017Y-81607378D01*
X102009585Y-81644067D01*
X102003318Y-81653647D01*
X101977208Y-81699981D01*
X101959469Y-81747102D01*
X101947908Y-81802251D01*
X101940331Y-81872667D01*
X101939839Y-81879650D01*
X101938062Y-81917641D01*
X101936444Y-81971576D01*
X101934999Y-82038703D01*
X101933740Y-82116271D01*
X101932680Y-82201528D01*
X101931829Y-82291724D01*
X101931203Y-82384107D01*
X101930812Y-82475925D01*
X101930670Y-82564427D01*
X101930790Y-82646862D01*
X101931183Y-82720479D01*
X101931862Y-82782526D01*
X101932841Y-82830251D01*
X101934132Y-82860904D01*
X101935747Y-82871733D01*
X101943957Y-82867333D01*
X101965647Y-82852362D01*
X101995014Y-82830448D01*
X102043879Y-82796236D01*
X102132125Y-82749714D01*
X102230916Y-82716046D01*
X102343510Y-82694231D01*
X102473164Y-82683265D01*
X102565670Y-82682219D01*
X102687011Y-82692014D01*
X102797099Y-82716174D01*
X102900389Y-82755785D01*
X103001338Y-82811932D01*
X103046503Y-82842883D01*
X103151911Y-82934115D01*
X103243538Y-83043106D01*
X103321332Y-83169726D01*
X103385241Y-83313845D01*
X103435214Y-83475332D01*
X103471198Y-83654059D01*
X103493143Y-83849895D01*
X103498900Y-84005934D01*
X103500994Y-84062711D01*
G36*
X103500994Y-84062711D02*
G01*
X103500268Y-84140158D01*
X103491689Y-84291594D01*
X103472833Y-84428283D01*
X103442837Y-84554276D01*
X103400836Y-84673625D01*
X103345969Y-84790381D01*
X103279167Y-84901179D01*
X103188363Y-85014739D01*
X103084708Y-85110211D01*
X102968887Y-85187073D01*
X102841586Y-85244797D01*
X102703489Y-85282858D01*
X102665793Y-85288666D01*
X102586752Y-85294396D01*
X102498629Y-85294583D01*
X102409236Y-85289539D01*
X102326384Y-85279578D01*
X102257887Y-85265012D01*
X102227035Y-85255364D01*
X102149730Y-85225123D01*
X102072679Y-85187617D01*
X102003200Y-85146614D01*
X101948615Y-85105879D01*
X101925916Y-85086505D01*
X101903201Y-85068662D01*
X101891779Y-85061778D01*
X101890537Y-85063424D01*
X101887728Y-85081205D01*
X101885776Y-85114370D01*
X101885045Y-85157733D01*
X101885045Y-85253689D01*
X101026896Y-85253689D01*
X101061161Y-85192974D01*
X101066355Y-85183868D01*
X101074715Y-85169249D01*
X101082288Y-85155173D01*
X101089112Y-85140540D01*
X101095227Y-85124249D01*
X101100673Y-85105198D01*
X101105487Y-85082286D01*
X101109708Y-85054413D01*
X101113377Y-85020478D01*
X101116531Y-84979379D01*
X101119211Y-84930015D01*
X101121454Y-84871286D01*
X101123299Y-84802090D01*
X101124787Y-84721326D01*
X101125955Y-84627894D01*
X101126844Y-84520692D01*
X101127491Y-84398620D01*
X101127936Y-84260576D01*
X101128218Y-84105459D01*
X101128375Y-83932168D01*
X101128448Y-83739603D01*
X101128474Y-83526662D01*
X101128485Y-83390530D01*
X101930200Y-83390530D01*
X101930200Y-84540721D01*
X102000756Y-84587089D01*
X102041417Y-84610791D01*
X102095546Y-84636639D01*
X102144689Y-84654829D01*
X102208165Y-84670551D01*
X102304331Y-84681541D01*
X102388900Y-84673365D01*
X102462219Y-84645805D01*
X102524637Y-84598642D01*
X102576502Y-84531658D01*
X102618160Y-84444633D01*
X102649962Y-84337350D01*
X102652545Y-84325009D01*
X102661000Y-84263772D01*
X102666663Y-84186692D01*
X102669576Y-84099002D01*
X102669783Y-84005934D01*
X102667330Y-83912720D01*
X102662261Y-83824594D01*
X102654619Y-83746788D01*
X102644448Y-83684533D01*
X102643167Y-83678666D01*
X102614126Y-83568121D01*
X102579610Y-83477575D01*
X102538456Y-83404953D01*
X102489499Y-83348181D01*
X102431574Y-83305184D01*
X102399620Y-83289615D01*
X102326784Y-83270722D01*
X102245443Y-83267465D01*
X102160319Y-83279389D01*
X102076133Y-83306040D01*
X101997608Y-83346962D01*
X101930200Y-83390530D01*
X101128485Y-83390530D01*
X101128493Y-83292245D01*
X101128689Y-81607378D01*
X102034017Y-81607378D01*
X102009585Y-81644067D01*
X102003318Y-81653647D01*
X101977208Y-81699981D01*
X101959469Y-81747102D01*
X101947908Y-81802251D01*
X101940331Y-81872667D01*
X101939839Y-81879650D01*
X101938062Y-81917641D01*
X101936444Y-81971576D01*
X101934999Y-82038703D01*
X101933740Y-82116271D01*
X101932680Y-82201528D01*
X101931829Y-82291724D01*
X101931203Y-82384107D01*
X101930812Y-82475925D01*
X101930670Y-82564427D01*
X101930790Y-82646862D01*
X101931183Y-82720479D01*
X101931862Y-82782526D01*
X101932841Y-82830251D01*
X101934132Y-82860904D01*
X101935747Y-82871733D01*
X101943957Y-82867333D01*
X101965647Y-82852362D01*
X101995014Y-82830448D01*
X102043879Y-82796236D01*
X102132125Y-82749714D01*
X102230916Y-82716046D01*
X102343510Y-82694231D01*
X102473164Y-82683265D01*
X102565670Y-82682219D01*
X102687011Y-82692014D01*
X102797099Y-82716174D01*
X102900389Y-82755785D01*
X103001338Y-82811932D01*
X103046503Y-82842883D01*
X103151911Y-82934115D01*
X103243538Y-83043106D01*
X103321332Y-83169726D01*
X103385241Y-83313845D01*
X103435214Y-83475332D01*
X103471198Y-83654059D01*
X103493143Y-83849895D01*
X103498900Y-84005934D01*
X103500994Y-84062711D01*
G37*
X106042755Y-84463467D02*
X106042261Y-84497363D01*
X106038632Y-84572202D01*
X106031022Y-84634401D01*
X106018688Y-84690984D01*
X105974313Y-84817076D01*
X105911400Y-84931679D01*
X105831238Y-85032568D01*
X105734740Y-85118924D01*
X105622822Y-85189932D01*
X105496397Y-85244776D01*
X105356378Y-85282638D01*
X105320149Y-85288351D01*
X105241155Y-85294313D01*
X105152841Y-85294646D01*
X105063075Y-85289659D01*
X104979722Y-85279666D01*
X104910651Y-85264978D01*
X104824187Y-85234749D01*
X104714286Y-85180057D01*
X104616956Y-85112543D01*
X104554867Y-85061556D01*
X104551605Y-85157622D01*
X104548343Y-85253689D01*
X104125450Y-85253689D01*
X104114543Y-85253686D01*
X104020056Y-85253380D01*
X103933331Y-85252616D01*
X103856837Y-85251451D01*
X103793043Y-85249942D01*
X103744418Y-85248147D01*
X103713433Y-85246121D01*
X103702556Y-85243922D01*
X103702578Y-85243463D01*
X103709614Y-85227910D01*
X103725434Y-85205071D01*
X103729734Y-85199638D01*
X103740777Y-85185606D01*
X103750311Y-85172186D01*
X103758461Y-85157722D01*
X103765352Y-85140556D01*
X103771111Y-85119034D01*
X103775862Y-85091498D01*
X103779731Y-85056292D01*
X103782844Y-85011760D01*
X103785325Y-84956246D01*
X103787300Y-84888093D01*
X103788894Y-84805645D01*
X103790234Y-84707246D01*
X103791444Y-84591239D01*
X103792649Y-84455968D01*
X103793595Y-84344586D01*
X104594378Y-84344586D01*
X104594378Y-84540462D01*
X104639048Y-84596973D01*
X104651785Y-84612212D01*
X104698604Y-84654844D01*
X104759255Y-84690672D01*
X104769897Y-84695850D01*
X104808676Y-84712745D01*
X104843692Y-84722909D01*
X104883722Y-84728325D01*
X104937541Y-84730978D01*
X104955648Y-84731383D01*
X105031011Y-84728540D01*
X105091743Y-84716620D01*
X105143452Y-84694037D01*
X105191746Y-84659211D01*
X105196803Y-84654798D01*
X105245272Y-84599160D01*
X105273459Y-84535333D01*
X105282752Y-84460282D01*
X105275520Y-84388693D01*
X105250796Y-84325645D01*
X105206249Y-84267758D01*
X105151319Y-84220808D01*
X105078894Y-84180961D01*
X104992340Y-84153263D01*
X104889670Y-84137096D01*
X104768894Y-84131842D01*
X104760007Y-84131857D01*
X104704660Y-84132655D01*
X104657736Y-84134488D01*
X104623953Y-84137111D01*
X104608028Y-84140274D01*
X104603943Y-84146741D01*
X104599572Y-84168875D01*
X104596604Y-84207988D01*
X104594914Y-84265939D01*
X104594378Y-84344586D01*
X103793595Y-84344586D01*
X103793975Y-84299778D01*
X103795228Y-84157012D01*
X103796651Y-84011942D01*
X103798176Y-83886027D01*
X103799933Y-83777436D01*
X103802051Y-83684334D01*
X103804660Y-83604891D01*
X103807890Y-83537273D01*
X103811869Y-83479649D01*
X103816728Y-83430185D01*
X103822597Y-83387050D01*
X103829604Y-83348410D01*
X103837880Y-83312434D01*
X103847554Y-83277289D01*
X103858756Y-83241142D01*
X103871616Y-83202161D01*
X103887090Y-83159091D01*
X103929994Y-83066871D01*
X103983735Y-82987099D01*
X104052576Y-82912965D01*
X104130185Y-82849405D01*
X104234761Y-82787725D01*
X104354244Y-82740202D01*
X104489508Y-82706567D01*
X104641426Y-82686552D01*
X104810872Y-82679889D01*
X104868890Y-82680287D01*
X104934398Y-82682335D01*
X104995693Y-82686704D01*
X105057097Y-82694035D01*
X105122932Y-82704969D01*
X105197520Y-82720147D01*
X105285184Y-82740209D01*
X105390245Y-82765797D01*
X105418806Y-82772820D01*
X105494054Y-82790776D01*
X105564388Y-82806820D01*
X105625567Y-82820028D01*
X105673354Y-82829474D01*
X105703511Y-82834231D01*
X105731783Y-82837910D01*
X105758060Y-82843187D01*
X105768059Y-82847942D01*
X105764952Y-82856781D01*
X105754194Y-82884072D01*
X105736864Y-82926906D01*
X105714126Y-82982425D01*
X105687147Y-83047772D01*
X105657090Y-83120089D01*
X105650493Y-83135879D01*
X105611907Y-83226484D01*
X105580768Y-83296217D01*
X105556917Y-83345405D01*
X105540198Y-83374374D01*
X105530454Y-83383452D01*
X105522766Y-83381405D01*
X105496415Y-83371760D01*
X105457982Y-83356190D01*
X105412822Y-83336815D01*
X105318293Y-83298814D01*
X105181480Y-83257780D01*
X105040289Y-83232612D01*
X105002314Y-83228611D01*
X104899059Y-83226447D01*
X104811952Y-83239622D01*
X104740129Y-83268756D01*
X104682731Y-83314466D01*
X104638896Y-83377372D01*
X104607762Y-83458092D01*
X104588470Y-83557245D01*
X104581050Y-83616224D01*
X104742936Y-83609445D01*
X104869495Y-83607813D01*
X105020951Y-83614194D01*
X105169396Y-83628777D01*
X105305578Y-83650882D01*
X105370245Y-83665821D01*
X105502490Y-83708741D01*
X105624762Y-83765340D01*
X105734685Y-83834017D01*
X105829883Y-83913170D01*
X105907980Y-84001196D01*
X105966599Y-84096493D01*
X105990595Y-84148864D01*
X106016232Y-84219590D01*
X106032478Y-84290812D01*
X106040822Y-84369712D01*
X106042690Y-84460282D01*
X106042755Y-84463467D01*
G36*
X106042755Y-84463467D02*
G01*
X106042261Y-84497363D01*
X106038632Y-84572202D01*
X106031022Y-84634401D01*
X106018688Y-84690984D01*
X105974313Y-84817076D01*
X105911400Y-84931679D01*
X105831238Y-85032568D01*
X105734740Y-85118924D01*
X105622822Y-85189932D01*
X105496397Y-85244776D01*
X105356378Y-85282638D01*
X105320149Y-85288351D01*
X105241155Y-85294313D01*
X105152841Y-85294646D01*
X105063075Y-85289659D01*
X104979722Y-85279666D01*
X104910651Y-85264978D01*
X104824187Y-85234749D01*
X104714286Y-85180057D01*
X104616956Y-85112543D01*
X104554867Y-85061556D01*
X104551605Y-85157622D01*
X104548343Y-85253689D01*
X104125450Y-85253689D01*
X104114543Y-85253686D01*
X104020056Y-85253380D01*
X103933331Y-85252616D01*
X103856837Y-85251451D01*
X103793043Y-85249942D01*
X103744418Y-85248147D01*
X103713433Y-85246121D01*
X103702556Y-85243922D01*
X103702578Y-85243463D01*
X103709614Y-85227910D01*
X103725434Y-85205071D01*
X103729734Y-85199638D01*
X103740777Y-85185606D01*
X103750311Y-85172186D01*
X103758461Y-85157722D01*
X103765352Y-85140556D01*
X103771111Y-85119034D01*
X103775862Y-85091498D01*
X103779731Y-85056292D01*
X103782844Y-85011760D01*
X103785325Y-84956246D01*
X103787300Y-84888093D01*
X103788894Y-84805645D01*
X103790234Y-84707246D01*
X103791444Y-84591239D01*
X103792649Y-84455968D01*
X103793595Y-84344586D01*
X104594378Y-84344586D01*
X104594378Y-84540462D01*
X104639048Y-84596973D01*
X104651785Y-84612212D01*
X104698604Y-84654844D01*
X104759255Y-84690672D01*
X104769897Y-84695850D01*
X104808676Y-84712745D01*
X104843692Y-84722909D01*
X104883722Y-84728325D01*
X104937541Y-84730978D01*
X104955648Y-84731383D01*
X105031011Y-84728540D01*
X105091743Y-84716620D01*
X105143452Y-84694037D01*
X105191746Y-84659211D01*
X105196803Y-84654798D01*
X105245272Y-84599160D01*
X105273459Y-84535333D01*
X105282752Y-84460282D01*
X105275520Y-84388693D01*
X105250796Y-84325645D01*
X105206249Y-84267758D01*
X105151319Y-84220808D01*
X105078894Y-84180961D01*
X104992340Y-84153263D01*
X104889670Y-84137096D01*
X104768894Y-84131842D01*
X104760007Y-84131857D01*
X104704660Y-84132655D01*
X104657736Y-84134488D01*
X104623953Y-84137111D01*
X104608028Y-84140274D01*
X104603943Y-84146741D01*
X104599572Y-84168875D01*
X104596604Y-84207988D01*
X104594914Y-84265939D01*
X104594378Y-84344586D01*
X103793595Y-84344586D01*
X103793975Y-84299778D01*
X103795228Y-84157012D01*
X103796651Y-84011942D01*
X103798176Y-83886027D01*
X103799933Y-83777436D01*
X103802051Y-83684334D01*
X103804660Y-83604891D01*
X103807890Y-83537273D01*
X103811869Y-83479649D01*
X103816728Y-83430185D01*
X103822597Y-83387050D01*
X103829604Y-83348410D01*
X103837880Y-83312434D01*
X103847554Y-83277289D01*
X103858756Y-83241142D01*
X103871616Y-83202161D01*
X103887090Y-83159091D01*
X103929994Y-83066871D01*
X103983735Y-82987099D01*
X104052576Y-82912965D01*
X104130185Y-82849405D01*
X104234761Y-82787725D01*
X104354244Y-82740202D01*
X104489508Y-82706567D01*
X104641426Y-82686552D01*
X104810872Y-82679889D01*
X104868890Y-82680287D01*
X104934398Y-82682335D01*
X104995693Y-82686704D01*
X105057097Y-82694035D01*
X105122932Y-82704969D01*
X105197520Y-82720147D01*
X105285184Y-82740209D01*
X105390245Y-82765797D01*
X105418806Y-82772820D01*
X105494054Y-82790776D01*
X105564388Y-82806820D01*
X105625567Y-82820028D01*
X105673354Y-82829474D01*
X105703511Y-82834231D01*
X105731783Y-82837910D01*
X105758060Y-82843187D01*
X105768059Y-82847942D01*
X105764952Y-82856781D01*
X105754194Y-82884072D01*
X105736864Y-82926906D01*
X105714126Y-82982425D01*
X105687147Y-83047772D01*
X105657090Y-83120089D01*
X105650493Y-83135879D01*
X105611907Y-83226484D01*
X105580768Y-83296217D01*
X105556917Y-83345405D01*
X105540198Y-83374374D01*
X105530454Y-83383452D01*
X105522766Y-83381405D01*
X105496415Y-83371760D01*
X105457982Y-83356190D01*
X105412822Y-83336815D01*
X105318293Y-83298814D01*
X105181480Y-83257780D01*
X105040289Y-83232612D01*
X105002314Y-83228611D01*
X104899059Y-83226447D01*
X104811952Y-83239622D01*
X104740129Y-83268756D01*
X104682731Y-83314466D01*
X104638896Y-83377372D01*
X104607762Y-83458092D01*
X104588470Y-83557245D01*
X104581050Y-83616224D01*
X104742936Y-83609445D01*
X104869495Y-83607813D01*
X105020951Y-83614194D01*
X105169396Y-83628777D01*
X105305578Y-83650882D01*
X105370245Y-83665821D01*
X105502490Y-83708741D01*
X105624762Y-83765340D01*
X105734685Y-83834017D01*
X105829883Y-83913170D01*
X105907980Y-84001196D01*
X105966599Y-84096493D01*
X105990595Y-84148864D01*
X106016232Y-84219590D01*
X106032478Y-84290812D01*
X106040822Y-84369712D01*
X106042690Y-84460282D01*
X106042755Y-84463467D01*
G37*
X113590614Y-81931792D02*
X113591059Y-82063011D01*
X113591362Y-82210216D01*
X113591548Y-82374349D01*
X113591642Y-82556352D01*
X113591671Y-82757165D01*
X113591661Y-82977732D01*
X113591636Y-83218992D01*
X113591622Y-83481889D01*
X113591622Y-83524040D01*
X113591646Y-83784668D01*
X113591685Y-84023796D01*
X113591708Y-84242360D01*
X113591687Y-84441295D01*
X113591593Y-84621535D01*
X113591395Y-84784015D01*
X113591063Y-84929670D01*
X113590569Y-85059434D01*
X113589883Y-85174243D01*
X113588976Y-85275030D01*
X113587817Y-85362730D01*
X113586378Y-85438279D01*
X113584629Y-85502611D01*
X113582540Y-85556661D01*
X113580083Y-85601363D01*
X113577227Y-85637652D01*
X113573943Y-85666463D01*
X113570202Y-85688731D01*
X113565974Y-85705390D01*
X113561229Y-85717375D01*
X113555939Y-85725621D01*
X113550073Y-85731062D01*
X113543602Y-85734634D01*
X113536497Y-85737270D01*
X113528728Y-85739906D01*
X113520266Y-85743477D01*
X113515908Y-85745145D01*
X113507395Y-85747111D01*
X113494694Y-85748911D01*
X113476885Y-85750555D01*
X113453049Y-85752047D01*
X113422266Y-85753397D01*
X113383617Y-85754611D01*
X113336182Y-85755697D01*
X113279043Y-85756661D01*
X113211279Y-85757511D01*
X113131971Y-85758253D01*
X113040199Y-85758897D01*
X112935044Y-85759447D01*
X112815587Y-85759913D01*
X112680908Y-85760300D01*
X112530088Y-85760616D01*
X112362206Y-85760869D01*
X112176345Y-85761066D01*
X111971583Y-85761213D01*
X111747002Y-85761318D01*
X111501682Y-85761389D01*
X111234704Y-85761432D01*
X111196321Y-85761437D01*
X110930922Y-85761480D01*
X110687050Y-85761525D01*
X110463783Y-85761548D01*
X110260196Y-85761524D01*
X110075367Y-85761430D01*
X109908373Y-85761243D01*
X109758290Y-85760939D01*
X109624196Y-85760494D01*
X109505166Y-85759885D01*
X109400279Y-85759089D01*
X109308610Y-85758080D01*
X109229237Y-85756837D01*
X109161237Y-85755335D01*
X109103686Y-85753551D01*
X109055662Y-85751461D01*
X109016240Y-85749042D01*
X108984499Y-85746270D01*
X108959514Y-85743121D01*
X108940364Y-85739572D01*
X108926123Y-85735598D01*
X108915871Y-85731178D01*
X108908682Y-85726286D01*
X108903635Y-85720900D01*
X108899805Y-85714996D01*
X108896271Y-85708549D01*
X108892108Y-85701537D01*
X108891025Y-85699687D01*
X108888813Y-85694180D01*
X108886786Y-85685868D01*
X108884938Y-85673809D01*
X108883261Y-85657063D01*
X108881745Y-85634687D01*
X108880383Y-85605740D01*
X108879167Y-85569280D01*
X108878089Y-85524367D01*
X108877140Y-85470057D01*
X108876312Y-85405410D01*
X108875597Y-85329484D01*
X108874987Y-85241338D01*
X108874942Y-85232493D01*
X109166378Y-85232493D01*
X109170260Y-85233765D01*
X109193520Y-85235791D01*
X109235874Y-85237626D01*
X109295132Y-85239227D01*
X109369107Y-85240549D01*
X109455610Y-85241548D01*
X109552452Y-85242180D01*
X109657445Y-85242400D01*
X110355651Y-85242400D01*
X111510090Y-85242400D01*
X111509456Y-85166200D01*
X111510574Y-85124160D01*
X111516304Y-85088334D01*
X111528890Y-85050772D01*
X111550568Y-85002577D01*
X111553789Y-84995897D01*
X111579188Y-84946359D01*
X111605996Y-84898369D01*
X111628917Y-84861466D01*
X111633485Y-84854834D01*
X111655516Y-84823593D01*
X111687693Y-84778654D01*
X111728457Y-84722147D01*
X111776245Y-84656204D01*
X111829498Y-84582957D01*
X111886655Y-84504536D01*
X111946155Y-84423072D01*
X112006437Y-84340698D01*
X112065940Y-84259544D01*
X112123105Y-84181742D01*
X112176370Y-84109423D01*
X112224174Y-84044718D01*
X112264957Y-83989759D01*
X112297158Y-83946676D01*
X112319216Y-83917602D01*
X112329571Y-83904667D01*
X112334044Y-83900351D01*
X112338236Y-83898312D01*
X112341643Y-83900926D01*
X112344325Y-83909986D01*
X112346341Y-83927285D01*
X112347748Y-83954614D01*
X112348605Y-83993765D01*
X112348970Y-84046533D01*
X112348903Y-84114707D01*
X112348460Y-84200082D01*
X112347702Y-84304449D01*
X112346685Y-84429600D01*
X112346308Y-84474300D01*
X112345169Y-84595395D01*
X112343972Y-84696688D01*
X112342636Y-84780262D01*
X112341077Y-84848204D01*
X112339215Y-84902599D01*
X112336966Y-84945532D01*
X112334248Y-84979089D01*
X112330979Y-85005355D01*
X112327078Y-85026416D01*
X112322461Y-85044357D01*
X112314192Y-85070770D01*
X112290583Y-85132772D01*
X112264685Y-85185573D01*
X112239535Y-85222645D01*
X112238339Y-85224075D01*
X112236168Y-85228424D01*
X112238328Y-85232026D01*
X112246644Y-85234951D01*
X112262940Y-85237269D01*
X112289041Y-85239051D01*
X112326771Y-85240367D01*
X112377956Y-85241286D01*
X112444420Y-85241878D01*
X112527987Y-85242215D01*
X112630483Y-85242365D01*
X112753732Y-85242400D01*
X113285296Y-85242400D01*
X113246523Y-85184783D01*
X113240432Y-85175893D01*
X113229976Y-85161069D01*
X113220579Y-85147422D01*
X113212183Y-85133765D01*
X113204733Y-85118911D01*
X113198173Y-85101670D01*
X113192446Y-85080855D01*
X113187495Y-85055280D01*
X113183266Y-85023755D01*
X113179701Y-84985093D01*
X113176744Y-84938107D01*
X113174340Y-84881608D01*
X113172431Y-84814409D01*
X113170962Y-84735322D01*
X113169876Y-84643160D01*
X113169118Y-84536734D01*
X113168630Y-84414857D01*
X113168358Y-84276341D01*
X113168243Y-84119999D01*
X113168231Y-83944642D01*
X113168265Y-83749082D01*
X113168289Y-83532133D01*
X113168280Y-83409513D01*
X113168243Y-83204447D01*
X113168227Y-83020116D01*
X113168288Y-82855334D01*
X113168484Y-82708916D01*
X113168870Y-82579674D01*
X113169505Y-82466422D01*
X113170444Y-82367975D01*
X113171745Y-82283144D01*
X113173464Y-82210744D01*
X113175659Y-82149589D01*
X113178385Y-82098492D01*
X113181701Y-82056267D01*
X113185662Y-82021727D01*
X113190325Y-81993686D01*
X113195747Y-81970958D01*
X113201986Y-81952356D01*
X113209097Y-81936693D01*
X113217138Y-81922784D01*
X113226166Y-81909441D01*
X113236236Y-81895479D01*
X113247407Y-81879711D01*
X113287197Y-81821867D01*
X112227314Y-81821867D01*
X112265311Y-81884966D01*
X112279993Y-81910005D01*
X112294531Y-81937586D01*
X112306627Y-81965700D01*
X112316532Y-81996551D01*
X112324494Y-82032344D01*
X112330761Y-82075283D01*
X112335582Y-82127574D01*
X112339206Y-82191419D01*
X112341881Y-82269025D01*
X112343857Y-82362594D01*
X112345382Y-82474333D01*
X112346704Y-82606445D01*
X112347613Y-82726434D01*
X112348020Y-82843063D01*
X112347767Y-82938531D01*
X112346857Y-83012556D01*
X112345293Y-83064855D01*
X112343079Y-83095149D01*
X112340220Y-83103156D01*
X112337161Y-83099858D01*
X112319006Y-83078408D01*
X112289275Y-83041889D01*
X112249639Y-82992442D01*
X112201771Y-82932207D01*
X112147343Y-82863327D01*
X112088027Y-82787943D01*
X112025495Y-82708196D01*
X111961421Y-82626228D01*
X111897475Y-82544180D01*
X111835331Y-82464194D01*
X111776661Y-82388411D01*
X111723137Y-82318973D01*
X111676430Y-82258021D01*
X111638214Y-82207696D01*
X111610161Y-82170140D01*
X111593943Y-82147495D01*
X111548635Y-82075212D01*
X111508661Y-81995463D01*
X111487130Y-81927188D01*
X111483827Y-81869844D01*
X111489116Y-81821867D01*
X110357356Y-81822117D01*
X110396867Y-81852722D01*
X110406248Y-81860089D01*
X110469183Y-81914438D01*
X110537997Y-81982259D01*
X110614596Y-82065516D01*
X110700888Y-82166178D01*
X110718052Y-82186847D01*
X110758833Y-82236409D01*
X110808588Y-82297326D01*
X110865955Y-82367898D01*
X110929569Y-82446424D01*
X110998069Y-82531204D01*
X111070090Y-82620537D01*
X111144270Y-82712722D01*
X111159517Y-82731702D01*
X111219246Y-82806060D01*
X111293653Y-82898848D01*
X111366131Y-82989388D01*
X111435314Y-83075978D01*
X111499841Y-83156918D01*
X111558347Y-83230506D01*
X111609470Y-83295044D01*
X111651847Y-83348829D01*
X111684115Y-83390162D01*
X111704910Y-83417342D01*
X111712869Y-83428668D01*
X111711111Y-83432771D01*
X111698230Y-83453334D01*
X111673885Y-83489561D01*
X111639247Y-83539824D01*
X111595486Y-83602492D01*
X111543775Y-83675936D01*
X111485284Y-83758527D01*
X111421184Y-83848636D01*
X111352646Y-83944631D01*
X111280843Y-84044885D01*
X111206944Y-84147768D01*
X111132121Y-84251650D01*
X111057545Y-84354901D01*
X110984387Y-84455892D01*
X110913819Y-84552994D01*
X110847011Y-84644577D01*
X110785135Y-84729011D01*
X110729361Y-84804667D01*
X110680862Y-84869916D01*
X110640807Y-84923128D01*
X110610369Y-84962673D01*
X110589944Y-84988026D01*
X110543899Y-85042295D01*
X110493612Y-85098775D01*
X110446815Y-85148669D01*
X110355651Y-85242400D01*
X109657445Y-85242400D01*
X109726356Y-85242349D01*
X109824607Y-85242091D01*
X109914030Y-85241637D01*
X109992333Y-85241010D01*
X110057223Y-85240235D01*
X110106411Y-85239335D01*
X110137604Y-85238334D01*
X110148511Y-85237257D01*
X110147322Y-85234037D01*
X110137176Y-85216452D01*
X110120040Y-85190158D01*
X110111540Y-85177691D01*
X110102329Y-85163622D01*
X110094233Y-85149351D01*
X110087185Y-85133479D01*
X110081117Y-85114609D01*
X110075961Y-85091341D01*
X110071651Y-85062278D01*
X110068119Y-85026021D01*
X110065297Y-84981170D01*
X110063118Y-84926328D01*
X110061514Y-84860097D01*
X110060419Y-84781077D01*
X110059765Y-84687871D01*
X110059484Y-84579079D01*
X110059509Y-84453303D01*
X110059772Y-84309145D01*
X110060206Y-84145207D01*
X110060745Y-83960089D01*
X110061279Y-83781232D01*
X110061805Y-83622374D01*
X110062350Y-83483316D01*
X110062945Y-83362665D01*
X110063619Y-83259028D01*
X110064403Y-83171011D01*
X110065326Y-83097223D01*
X110066419Y-83036269D01*
X110067712Y-82986757D01*
X110069235Y-82947293D01*
X110071019Y-82916484D01*
X110073092Y-82892938D01*
X110075486Y-82875260D01*
X110078230Y-82862059D01*
X110081356Y-82851940D01*
X110084892Y-82843511D01*
X110088791Y-82835375D01*
X110108438Y-82798544D01*
X110127225Y-82768391D01*
X110128272Y-82766908D01*
X110142602Y-82744659D01*
X110148511Y-82731702D01*
X110147504Y-82731249D01*
X110130305Y-82729803D01*
X110093656Y-82728480D01*
X110039962Y-82727316D01*
X109971630Y-82726347D01*
X109891064Y-82725611D01*
X109800670Y-82725142D01*
X109702853Y-82724978D01*
X109257195Y-82724978D01*
X109254120Y-83901845D01*
X109251045Y-85078711D01*
X109224407Y-85137622D01*
X109212485Y-85162183D01*
X109195246Y-85192434D01*
X109182074Y-85209560D01*
X109174076Y-85217591D01*
X109166378Y-85232493D01*
X108874942Y-85232493D01*
X108874474Y-85140029D01*
X108874050Y-85024617D01*
X108873706Y-84894160D01*
X108873434Y-84747716D01*
X108873227Y-84584344D01*
X108873076Y-84403101D01*
X108872972Y-84203048D01*
X108872908Y-83983241D01*
X108872876Y-83742739D01*
X108872867Y-83480602D01*
X108872867Y-81289031D01*
X108911249Y-81250649D01*
X108938355Y-81226911D01*
X108965253Y-81215111D01*
X109001560Y-81212267D01*
X109053489Y-81212267D01*
X109053489Y-81300206D01*
X109055427Y-81350102D01*
X109074199Y-81460523D01*
X109111217Y-81561987D01*
X109164369Y-81653152D01*
X109231546Y-81732673D01*
X109310638Y-81799205D01*
X109399534Y-81851406D01*
X109496125Y-81887930D01*
X109598300Y-81907434D01*
X109703950Y-81908573D01*
X109810964Y-81890005D01*
X109917232Y-81850384D01*
X110014219Y-81792516D01*
X110099293Y-81717684D01*
X110168015Y-81629615D01*
X110218918Y-81530616D01*
X110250535Y-81422993D01*
X110261400Y-81309054D01*
X110261400Y-81212267D01*
X111881753Y-81212267D01*
X112092897Y-81212280D01*
X112297020Y-81212330D01*
X112480686Y-81212430D01*
X112644991Y-81212592D01*
X112791029Y-81212829D01*
X112919894Y-81213153D01*
X113032683Y-81213575D01*
X113130488Y-81214109D01*
X113214404Y-81214767D01*
X113285527Y-81215561D01*
X113344950Y-81216504D01*
X113393768Y-81217608D01*
X113433077Y-81218884D01*
X113463969Y-81220347D01*
X113487541Y-81222007D01*
X113504886Y-81223878D01*
X113517099Y-81225972D01*
X113525275Y-81228300D01*
X113530508Y-81230876D01*
X113536504Y-81234445D01*
X113543279Y-81237978D01*
X113549478Y-81241488D01*
X113555126Y-81245918D01*
X113560247Y-81252208D01*
X113564869Y-81261301D01*
X113569015Y-81274139D01*
X113572713Y-81291662D01*
X113575987Y-81314813D01*
X113578863Y-81344534D01*
X113581367Y-81381765D01*
X113583524Y-81427449D01*
X113585360Y-81482527D01*
X113586900Y-81547941D01*
X113588170Y-81624633D01*
X113589195Y-81713544D01*
X113590001Y-81815617D01*
X113590034Y-81821867D01*
X113590614Y-81931792D01*
G36*
X113590614Y-81931792D02*
G01*
X113591059Y-82063011D01*
X113591362Y-82210216D01*
X113591548Y-82374349D01*
X113591642Y-82556352D01*
X113591671Y-82757165D01*
X113591661Y-82977732D01*
X113591636Y-83218992D01*
X113591622Y-83481889D01*
X113591622Y-83524040D01*
X113591646Y-83784668D01*
X113591685Y-84023796D01*
X113591708Y-84242360D01*
X113591687Y-84441295D01*
X113591593Y-84621535D01*
X113591395Y-84784015D01*
X113591063Y-84929670D01*
X113590569Y-85059434D01*
X113589883Y-85174243D01*
X113588976Y-85275030D01*
X113587817Y-85362730D01*
X113586378Y-85438279D01*
X113584629Y-85502611D01*
X113582540Y-85556661D01*
X113580083Y-85601363D01*
X113577227Y-85637652D01*
X113573943Y-85666463D01*
X113570202Y-85688731D01*
X113565974Y-85705390D01*
X113561229Y-85717375D01*
X113555939Y-85725621D01*
X113550073Y-85731062D01*
X113543602Y-85734634D01*
X113536497Y-85737270D01*
X113528728Y-85739906D01*
X113520266Y-85743477D01*
X113515908Y-85745145D01*
X113507395Y-85747111D01*
X113494694Y-85748911D01*
X113476885Y-85750555D01*
X113453049Y-85752047D01*
X113422266Y-85753397D01*
X113383617Y-85754611D01*
X113336182Y-85755697D01*
X113279043Y-85756661D01*
X113211279Y-85757511D01*
X113131971Y-85758253D01*
X113040199Y-85758897D01*
X112935044Y-85759447D01*
X112815587Y-85759913D01*
X112680908Y-85760300D01*
X112530088Y-85760616D01*
X112362206Y-85760869D01*
X112176345Y-85761066D01*
X111971583Y-85761213D01*
X111747002Y-85761318D01*
X111501682Y-85761389D01*
X111234704Y-85761432D01*
X111196321Y-85761437D01*
X110930922Y-85761480D01*
X110687050Y-85761525D01*
X110463783Y-85761548D01*
X110260196Y-85761524D01*
X110075367Y-85761430D01*
X109908373Y-85761243D01*
X109758290Y-85760939D01*
X109624196Y-85760494D01*
X109505166Y-85759885D01*
X109400279Y-85759089D01*
X109308610Y-85758080D01*
X109229237Y-85756837D01*
X109161237Y-85755335D01*
X109103686Y-85753551D01*
X109055662Y-85751461D01*
X109016240Y-85749042D01*
X108984499Y-85746270D01*
X108959514Y-85743121D01*
X108940364Y-85739572D01*
X108926123Y-85735598D01*
X108915871Y-85731178D01*
X108908682Y-85726286D01*
X108903635Y-85720900D01*
X108899805Y-85714996D01*
X108896271Y-85708549D01*
X108892108Y-85701537D01*
X108891025Y-85699687D01*
X108888813Y-85694180D01*
X108886786Y-85685868D01*
X108884938Y-85673809D01*
X108883261Y-85657063D01*
X108881745Y-85634687D01*
X108880383Y-85605740D01*
X108879167Y-85569280D01*
X108878089Y-85524367D01*
X108877140Y-85470057D01*
X108876312Y-85405410D01*
X108875597Y-85329484D01*
X108874987Y-85241338D01*
X108874942Y-85232493D01*
X109166378Y-85232493D01*
X109170260Y-85233765D01*
X109193520Y-85235791D01*
X109235874Y-85237626D01*
X109295132Y-85239227D01*
X109369107Y-85240549D01*
X109455610Y-85241548D01*
X109552452Y-85242180D01*
X109657445Y-85242400D01*
X110355651Y-85242400D01*
X111510090Y-85242400D01*
X111509456Y-85166200D01*
X111510574Y-85124160D01*
X111516304Y-85088334D01*
X111528890Y-85050772D01*
X111550568Y-85002577D01*
X111553789Y-84995897D01*
X111579188Y-84946359D01*
X111605996Y-84898369D01*
X111628917Y-84861466D01*
X111633485Y-84854834D01*
X111655516Y-84823593D01*
X111687693Y-84778654D01*
X111728457Y-84722147D01*
X111776245Y-84656204D01*
X111829498Y-84582957D01*
X111886655Y-84504536D01*
X111946155Y-84423072D01*
X112006437Y-84340698D01*
X112065940Y-84259544D01*
X112123105Y-84181742D01*
X112176370Y-84109423D01*
X112224174Y-84044718D01*
X112264957Y-83989759D01*
X112297158Y-83946676D01*
X112319216Y-83917602D01*
X112329571Y-83904667D01*
X112334044Y-83900351D01*
X112338236Y-83898312D01*
X112341643Y-83900926D01*
X112344325Y-83909986D01*
X112346341Y-83927285D01*
X112347748Y-83954614D01*
X112348605Y-83993765D01*
X112348970Y-84046533D01*
X112348903Y-84114707D01*
X112348460Y-84200082D01*
X112347702Y-84304449D01*
X112346685Y-84429600D01*
X112346308Y-84474300D01*
X112345169Y-84595395D01*
X112343972Y-84696688D01*
X112342636Y-84780262D01*
X112341077Y-84848204D01*
X112339215Y-84902599D01*
X112336966Y-84945532D01*
X112334248Y-84979089D01*
X112330979Y-85005355D01*
X112327078Y-85026416D01*
X112322461Y-85044357D01*
X112314192Y-85070770D01*
X112290583Y-85132772D01*
X112264685Y-85185573D01*
X112239535Y-85222645D01*
X112238339Y-85224075D01*
X112236168Y-85228424D01*
X112238328Y-85232026D01*
X112246644Y-85234951D01*
X112262940Y-85237269D01*
X112289041Y-85239051D01*
X112326771Y-85240367D01*
X112377956Y-85241286D01*
X112444420Y-85241878D01*
X112527987Y-85242215D01*
X112630483Y-85242365D01*
X112753732Y-85242400D01*
X113285296Y-85242400D01*
X113246523Y-85184783D01*
X113240432Y-85175893D01*
X113229976Y-85161069D01*
X113220579Y-85147422D01*
X113212183Y-85133765D01*
X113204733Y-85118911D01*
X113198173Y-85101670D01*
X113192446Y-85080855D01*
X113187495Y-85055280D01*
X113183266Y-85023755D01*
X113179701Y-84985093D01*
X113176744Y-84938107D01*
X113174340Y-84881608D01*
X113172431Y-84814409D01*
X113170962Y-84735322D01*
X113169876Y-84643160D01*
X113169118Y-84536734D01*
X113168630Y-84414857D01*
X113168358Y-84276341D01*
X113168243Y-84119999D01*
X113168231Y-83944642D01*
X113168265Y-83749082D01*
X113168289Y-83532133D01*
X113168280Y-83409513D01*
X113168243Y-83204447D01*
X113168227Y-83020116D01*
X113168288Y-82855334D01*
X113168484Y-82708916D01*
X113168870Y-82579674D01*
X113169505Y-82466422D01*
X113170444Y-82367975D01*
X113171745Y-82283144D01*
X113173464Y-82210744D01*
X113175659Y-82149589D01*
X113178385Y-82098492D01*
X113181701Y-82056267D01*
X113185662Y-82021727D01*
X113190325Y-81993686D01*
X113195747Y-81970958D01*
X113201986Y-81952356D01*
X113209097Y-81936693D01*
X113217138Y-81922784D01*
X113226166Y-81909441D01*
X113236236Y-81895479D01*
X113247407Y-81879711D01*
X113287197Y-81821867D01*
X112227314Y-81821867D01*
X112265311Y-81884966D01*
X112279993Y-81910005D01*
X112294531Y-81937586D01*
X112306627Y-81965700D01*
X112316532Y-81996551D01*
X112324494Y-82032344D01*
X112330761Y-82075283D01*
X112335582Y-82127574D01*
X112339206Y-82191419D01*
X112341881Y-82269025D01*
X112343857Y-82362594D01*
X112345382Y-82474333D01*
X112346704Y-82606445D01*
X112347613Y-82726434D01*
X112348020Y-82843063D01*
X112347767Y-82938531D01*
X112346857Y-83012556D01*
X112345293Y-83064855D01*
X112343079Y-83095149D01*
X112340220Y-83103156D01*
X112337161Y-83099858D01*
X112319006Y-83078408D01*
X112289275Y-83041889D01*
X112249639Y-82992442D01*
X112201771Y-82932207D01*
X112147343Y-82863327D01*
X112088027Y-82787943D01*
X112025495Y-82708196D01*
X111961421Y-82626228D01*
X111897475Y-82544180D01*
X111835331Y-82464194D01*
X111776661Y-82388411D01*
X111723137Y-82318973D01*
X111676430Y-82258021D01*
X111638214Y-82207696D01*
X111610161Y-82170140D01*
X111593943Y-82147495D01*
X111548635Y-82075212D01*
X111508661Y-81995463D01*
X111487130Y-81927188D01*
X111483827Y-81869844D01*
X111489116Y-81821867D01*
X110357356Y-81822117D01*
X110396867Y-81852722D01*
X110406248Y-81860089D01*
X110469183Y-81914438D01*
X110537997Y-81982259D01*
X110614596Y-82065516D01*
X110700888Y-82166178D01*
X110718052Y-82186847D01*
X110758833Y-82236409D01*
X110808588Y-82297326D01*
X110865955Y-82367898D01*
X110929569Y-82446424D01*
X110998069Y-82531204D01*
X111070090Y-82620537D01*
X111144270Y-82712722D01*
X111159517Y-82731702D01*
X111219246Y-82806060D01*
X111293653Y-82898848D01*
X111366131Y-82989388D01*
X111435314Y-83075978D01*
X111499841Y-83156918D01*
X111558347Y-83230506D01*
X111609470Y-83295044D01*
X111651847Y-83348829D01*
X111684115Y-83390162D01*
X111704910Y-83417342D01*
X111712869Y-83428668D01*
X111711111Y-83432771D01*
X111698230Y-83453334D01*
X111673885Y-83489561D01*
X111639247Y-83539824D01*
X111595486Y-83602492D01*
X111543775Y-83675936D01*
X111485284Y-83758527D01*
X111421184Y-83848636D01*
X111352646Y-83944631D01*
X111280843Y-84044885D01*
X111206944Y-84147768D01*
X111132121Y-84251650D01*
X111057545Y-84354901D01*
X110984387Y-84455892D01*
X110913819Y-84552994D01*
X110847011Y-84644577D01*
X110785135Y-84729011D01*
X110729361Y-84804667D01*
X110680862Y-84869916D01*
X110640807Y-84923128D01*
X110610369Y-84962673D01*
X110589944Y-84988026D01*
X110543899Y-85042295D01*
X110493612Y-85098775D01*
X110446815Y-85148669D01*
X110355651Y-85242400D01*
X109657445Y-85242400D01*
X109726356Y-85242349D01*
X109824607Y-85242091D01*
X109914030Y-85241637D01*
X109992333Y-85241010D01*
X110057223Y-85240235D01*
X110106411Y-85239335D01*
X110137604Y-85238334D01*
X110148511Y-85237257D01*
X110147322Y-85234037D01*
X110137176Y-85216452D01*
X110120040Y-85190158D01*
X110111540Y-85177691D01*
X110102329Y-85163622D01*
X110094233Y-85149351D01*
X110087185Y-85133479D01*
X110081117Y-85114609D01*
X110075961Y-85091341D01*
X110071651Y-85062278D01*
X110068119Y-85026021D01*
X110065297Y-84981170D01*
X110063118Y-84926328D01*
X110061514Y-84860097D01*
X110060419Y-84781077D01*
X110059765Y-84687871D01*
X110059484Y-84579079D01*
X110059509Y-84453303D01*
X110059772Y-84309145D01*
X110060206Y-84145207D01*
X110060745Y-83960089D01*
X110061279Y-83781232D01*
X110061805Y-83622374D01*
X110062350Y-83483316D01*
X110062945Y-83362665D01*
X110063619Y-83259028D01*
X110064403Y-83171011D01*
X110065326Y-83097223D01*
X110066419Y-83036269D01*
X110067712Y-82986757D01*
X110069235Y-82947293D01*
X110071019Y-82916484D01*
X110073092Y-82892938D01*
X110075486Y-82875260D01*
X110078230Y-82862059D01*
X110081356Y-82851940D01*
X110084892Y-82843511D01*
X110088791Y-82835375D01*
X110108438Y-82798544D01*
X110127225Y-82768391D01*
X110128272Y-82766908D01*
X110142602Y-82744659D01*
X110148511Y-82731702D01*
X110147504Y-82731249D01*
X110130305Y-82729803D01*
X110093656Y-82728480D01*
X110039962Y-82727316D01*
X109971630Y-82726347D01*
X109891064Y-82725611D01*
X109800670Y-82725142D01*
X109702853Y-82724978D01*
X109257195Y-82724978D01*
X109254120Y-83901845D01*
X109251045Y-85078711D01*
X109224407Y-85137622D01*
X109212485Y-85162183D01*
X109195246Y-85192434D01*
X109182074Y-85209560D01*
X109174076Y-85217591D01*
X109166378Y-85232493D01*
X108874942Y-85232493D01*
X108874474Y-85140029D01*
X108874050Y-85024617D01*
X108873706Y-84894160D01*
X108873434Y-84747716D01*
X108873227Y-84584344D01*
X108873076Y-84403101D01*
X108872972Y-84203048D01*
X108872908Y-83983241D01*
X108872876Y-83742739D01*
X108872867Y-83480602D01*
X108872867Y-81289031D01*
X108911249Y-81250649D01*
X108938355Y-81226911D01*
X108965253Y-81215111D01*
X109001560Y-81212267D01*
X109053489Y-81212267D01*
X109053489Y-81300206D01*
X109055427Y-81350102D01*
X109074199Y-81460523D01*
X109111217Y-81561987D01*
X109164369Y-81653152D01*
X109231546Y-81732673D01*
X109310638Y-81799205D01*
X109399534Y-81851406D01*
X109496125Y-81887930D01*
X109598300Y-81907434D01*
X109703950Y-81908573D01*
X109810964Y-81890005D01*
X109917232Y-81850384D01*
X110014219Y-81792516D01*
X110099293Y-81717684D01*
X110168015Y-81629615D01*
X110218918Y-81530616D01*
X110250535Y-81422993D01*
X110261400Y-81309054D01*
X110261400Y-81212267D01*
X111881753Y-81212267D01*
X112092897Y-81212280D01*
X112297020Y-81212330D01*
X112480686Y-81212430D01*
X112644991Y-81212592D01*
X112791029Y-81212829D01*
X112919894Y-81213153D01*
X113032683Y-81213575D01*
X113130488Y-81214109D01*
X113214404Y-81214767D01*
X113285527Y-81215561D01*
X113344950Y-81216504D01*
X113393768Y-81217608D01*
X113433077Y-81218884D01*
X113463969Y-81220347D01*
X113487541Y-81222007D01*
X113504886Y-81223878D01*
X113517099Y-81225972D01*
X113525275Y-81228300D01*
X113530508Y-81230876D01*
X113536504Y-81234445D01*
X113543279Y-81237978D01*
X113549478Y-81241488D01*
X113555126Y-81245918D01*
X113560247Y-81252208D01*
X113564869Y-81261301D01*
X113569015Y-81274139D01*
X113572713Y-81291662D01*
X113575987Y-81314813D01*
X113578863Y-81344534D01*
X113581367Y-81381765D01*
X113583524Y-81427449D01*
X113585360Y-81482527D01*
X113586900Y-81547941D01*
X113588170Y-81624633D01*
X113589195Y-81713544D01*
X113590001Y-81815617D01*
X113590034Y-81821867D01*
X113590614Y-81931792D01*
G37*
%TD*%
%LPC*%
D14*
%TO.C,J4*%
X99120000Y-76874537D03*
D15*
X99120000Y-74334537D03*
%TD*%
D14*
%TO.C,J1*%
X131965000Y-77450000D03*
D15*
X131965000Y-79990000D03*
%TD*%
D16*
%TO.C,J3*%
X103565000Y-76647402D03*
D17*
X111185000Y-76647402D03*
%TD*%
D14*
%TO.C,J2*%
X99120000Y-83190000D03*
D15*
X99120000Y-80650000D03*
%TD*%
%LPD*%
M02*
